#N canvas 93 23 347 736 10;
#X text 78 -51 arguments:;
#X text 13 -32 1 amplitude \; 2 relative duration \; 3 relative frequency
\; 4 detune;
#X floatatom 37 105 5 0 0 0 - - final-amp-1, f 5;
#X floatatom 83 108 5 0 0 0 - - -, f 5;
#X floatatom 60 89 5 0 0 0 - - -, f 5;
#X obj 14 25 r part1-v\$1;
#X obj 13 137 r part2-v\$1;
#X obj 10 267 r part3-v\$1;
#X obj 7 386 r part4-v\$1;
#X obj 7 521 r part5-v\$1;
#X obj 342 -49 r part6-v\$1;
#X obj 338 69 r part7-v\$1;
#X obj 338 194 r part8-v\$1;
#X obj 339 316 r part9-v\$1;
#X obj 331 441 r part10-v\$1;
#X obj 332 569 r part11-v\$1;
#X obj 697 -32 r part12-v\$1;
#X obj 689 85 r part13-v\$1;
#X obj 690 209 r part14-v\$1;
#X obj 691 332 r part15-v\$1;
#X obj 695 457 r part16-v\$1;
#X obj 687 590 r part17-v\$1;
#X obj 1015 -33 r part18-v\$1;
#X obj 110 141 r act-p2-v\$1;
#X obj 84 273 r act-p3-v\$1;
#X obj 84 390 r act-p4-v\$1;
#X obj 79 528 r act-p5-v\$1;
#X obj 422 -44 r act-p6-v\$1;
#X obj 415 74 r act-p7-v\$1;
#X obj 410 200 r act-p8-v\$1;
#X obj 412 321 r act-p9-v\$1;
#X obj 415 449 r act-p10-v\$1;
#X obj 411 576 r act-p11-v\$1;
#X obj 770 601 r act-p17-v\$1;
#X obj 773 465 r act-p16-v\$1;
#X obj 771 340 r act-p15-v\$1;
#X obj 771 217 r act-p14-v\$1;
#X obj 785 94 r act-p13-v\$1;
#X obj 779 -25 r act-p12-v\$1;
#X obj 1104 -27 r act-p18-v\$1;
#X floatatom 36 228 5 0 0 0 - - final-amp-2, f 5;
#X floatatom 82 231 5 0 0 0 - - -, f 5;
#X floatatom 59 212 5 0 0 0 - - -, f 5;
#X floatatom 10 336 5 0 0 0 - - -, f 5;
#X floatatom 33 349 5 0 0 0 - - final-amp-3, f 5;
#X floatatom 79 352 5 0 0 0 - - -, f 5;
#X floatatom 56 333 5 0 0 0 - - -, f 5;
#X floatatom 7 453 5 0 0 0 - - -, f 5;
#X floatatom 30 466 5 0 0 0 - - final-amp-4, f 5;
#X floatatom 76 469 5 0 0 0 - - -, f 5;
#X floatatom 53 450 5 0 0 0 - - -, f 5;
#X floatatom 7 591 5 0 0 0 - - -, f 5;
#X floatatom 30 604 5 0 0 0 - - final-amp-5, f 5;
#X floatatom 76 607 5 0 0 0 - - -, f 5;
#X floatatom 53 588 5 0 0 0 - - -, f 5;
#X floatatom 342 19 5 0 0 0 - - -, f 5;
#X floatatom 365 32 5 0 0 0 - - final-amp-6, f 5;
#X floatatom 411 35 5 0 0 0 - - -, f 5;
#X floatatom 388 16 5 0 0 0 - - -, f 5;
#X floatatom 338 137 5 0 0 0 - - -, f 5;
#X floatatom 361 150 5 0 0 0 - - final-amp-7, f 5;
#X floatatom 407 153 5 0 0 0 - - -, f 5;
#X floatatom 384 134 5 0 0 0 - - -, f 5;
#X floatatom 338 263 5 0 0 0 - - -, f 5;
#X floatatom 361 276 5 0 0 0 - - final-amp-8, f 5;
#X floatatom 407 279 5 0 0 0 - - -, f 5;
#X floatatom 384 260 5 0 0 0 - - -, f 5;
#X floatatom 339 384 5 0 0 0 - - -, f 5;
#X floatatom 362 397 5 0 0 0 - - final-amp-9, f 5;
#X floatatom 408 400 5 0 0 0 - - -, f 5;
#X floatatom 385 381 5 0 0 0 - - -, f 5;
#X floatatom 331 512 5 0 0 0 - - -, f 5;
#X floatatom 354 525 5 0 0 0 - - final-amp-10, f 5;
#X floatatom 400 528 5 0 0 0 - - -, f 5;
#X floatatom 377 509 5 0 0 0 - - -, f 5;
#X floatatom 332 639 5 0 0 0 - - -, f 5;
#X floatatom 355 652 5 0 0 0 - - final-amp-11, f 5;
#X floatatom 401 655 5 0 0 0 - - -, f 5;
#X floatatom 378 636 5 0 0 0 - - -, f 5;
#X floatatom 697 38 5 0 0 0 - - -, f 5;
#X floatatom 720 51 5 0 0 0 - - final-amp-12, f 5;
#X floatatom 766 54 5 0 0 0 - - -, f 5;
#X floatatom 743 35 5 0 0 0 - - -, f 5;
#X floatatom 689 157 5 0 0 0 - - -, f 5;
#X floatatom 712 170 5 0 0 0 - - final-amp-13, f 5;
#X floatatom 758 173 5 0 0 0 - - -, f 5;
#X floatatom 735 154 5 0 0 0 - - -, f 5;
#X floatatom 690 280 5 0 0 0 - - -, f 5;
#X floatatom 713 293 5 0 0 0 - - final-amp-14, f 5;
#X floatatom 759 296 5 0 0 0 - - -, f 5;
#X floatatom 736 277 5 0 0 0 - - -, f 5;
#X floatatom 691 403 5 0 0 0 - - -, f 5;
#X floatatom 714 416 5 0 0 0 - - final-amp-15, f 5;
#X floatatom 760 419 5 0 0 0 - - -, f 5;
#X floatatom 737 400 5 0 0 0 - - -, f 5;
#X floatatom 695 528 5 0 0 0 - - -, f 5;
#X floatatom 718 541 5 0 0 0 - - final-amp-16, f 5;
#X floatatom 764 544 5 0 0 0 - - -, f 5;
#X floatatom 741 525 5 0 0 0 - - -, f 5;
#X floatatom 687 664 5 0 0 0 - - -, f 5;
#X floatatom 710 677 5 0 0 0 - - final-amp-17, f 5;
#X floatatom 756 680 5 0 0 0 - - -, f 5;
#X floatatom 733 661 5 0 0 0 - - -, f 5;
#X floatatom 1015 36 5 0 0 0 - - -, f 5;
#X floatatom 1038 49 5 0 0 0 - - final-amp-18, f 5;
#X floatatom 1084 52 5 0 0 0 - - -, f 5;
#X floatatom 1061 33 5 0 0 0 - - -, f 5;
#X floatatom 106 211 5 0 0 0 - - -, f 5;
#X floatatom 107 89 5 0 0 0 - - -, f 5;
#X obj 14 88 bng 15 250 50 0 empty empty empty 17 7 0 10 -262144 -1
-1;
#X obj 13 201 bng 15 250 50 0 empty empty empty 17 7 0 10 -262144 -1
-1;
#X obj 1016 -10 spigot 0;
#X obj 698 -9 spigot 0;
#X obj 689 111 spigot 0;
#X obj 690 234 spigot 0;
#X obj 691 357 spigot 0;
#X obj 696 482 spigot 0;
#X obj 687 618 spigot 0;
#X obj 331 593 spigot 0;
#X obj 331 466 spigot 0;
#X obj 339 338 spigot 0;
#X obj 338 217 spigot 0;
#X obj 338 91 spigot 0;
#X obj 342 -27 spigot 0;
#X obj 14 46 spigot 0;
#X obj 13 158 spigot 0;
#X obj 10 290 spigot 0;
#X obj 7 407 spigot 0;
#X obj 7 545 spigot 0;
#X obj 124 29 r act-p1-v\$1;
#X obj 145 105 s final-dur-1;
#X obj 244 106 s final-freq-1;
#X obj 147 216 s final-dur-2;
#X obj 244 216 s final-freq-2;
#X obj 138 348 s final-dur-3;
#X obj 250 349 s final-freq-3;
#X obj 133 466 s final-dur-4;
#X obj 220 466 s final-freq-4;
#X obj 133 606 s final-dur-5;
#X obj 220 607 s final-freq-5;
#X obj 472 32 s final-dur-6;
#X obj 559 33 s final-freq-6;
#X obj 463 153 s final-dur-7;
#X obj 550 154 s final-freq-7;
#X obj 470 280 s final-dur-8;
#X obj 557 281 s final-freq-8;
#X obj 462 396 s final-dur-9;
#X obj 550 397 s final-freq-9;
#X obj 447 529 s final-dur-10;
#X obj 545 530 s final-freq-10;
#X obj 464 658 s final-dur-11;
#X obj 559 658 s final-freq-11;
#X obj 828 53 s final-dur-12;
#X obj 923 55 s final-freq-12;
#X obj 817 176 s final-dur-13;
#X obj 914 175 s final-freq-13;
#X obj 828 303 s final-dur-14;
#X obj 924 302 s final-freq-14;
#X obj 816 421 s final-dur-15;
#X obj 912 422 s final-freq-15;
#X obj 830 549 s final-dur-16;
#X obj 926 551 s final-freq-16;
#X obj 815 681 s final-dur-17;
#X obj 912 682 s final-freq-17;
#X obj 1139 51 s final-dur-18;
#X obj 1236 52 s final-freq-18;
#X obj 14 67 unpack f f f f f f f;
#X obj 13 179 unpack f f f f f f f;
#X obj 10 311 unpack f f f f f f f;
#X obj 7 428 unpack f f f f f f f;
#X obj 8 566 unpack f f f f f f f;
#X obj 342 -6 unpack f f f f f f f;
#X obj 339 112 unpack f f f f f f f;
#X obj 338 238 unpack f f f f f f f;
#X obj 339 359 unpack f f f f f f f;
#X obj 331 487 unpack f f f f f f f;
#X obj 332 614 unpack f f f f f f f;
#X obj 697 13 unpack f f f f f f f;
#X obj 689 132 unpack f f f f f f f;
#X obj 690 255 unpack f f f f f f f;
#X obj 691 378 unpack f f f f f f f;
#X obj 697 498 unpack f f f f f f f;
#X obj 687 639 unpack f f f f f f f;
#X obj 1015 11 unpack f f f f f f f;
#X obj 145 84 partial 1 1 1 1 1 1;
#X obj 474 255 partial 1 1 1 1 1 1;
#X obj 139 328 partial 1 1 1 1 1 1;
#X obj 818 272 partial 1 1 1 1 1 1;
#X obj 147 196 partial 1 1 1 1 1 1;
#X obj 819 150 partial 1 1 1 1 1 1;
#X obj 135 444 partial 1 1 1 1 1 1;
#X obj 136 583 partial 1 1 1 1 1 1;
#X obj 463 631 partial 1 1 1 1 1 1;
#X obj 454 504 partial 1 1 1 1 1 1;
#X obj 467 374 partial 1 1 1 1 1 1;
#X obj 467 129 partial 1 1 1 1 1 1;
#X obj 471 11 partial 1 1 1 1 1 1;
#X obj 829 30 partial 1 1 1 1 1 1;
#X obj 820 395 partial 1 1 1 1 1 1;
#X obj 824 520 partial 1 1 1 1 1 1;
#X obj 816 654 partial 1 1 1 1 1 1;
#X obj 1144 28 partial 1 1 1 1 1 1;
#X connect 5 0 124 0;
#X connect 6 0 125 0;
#X connect 7 0 126 0;
#X connect 8 0 127 0;
#X connect 9 0 128 0;
#X connect 10 0 123 0;
#X connect 11 0 122 0;
#X connect 12 0 121 0;
#X connect 13 0 120 0;
#X connect 14 0 119 0;
#X connect 15 0 118 0;
#X connect 16 0 112 0;
#X connect 17 0 113 0;
#X connect 18 0 114 0;
#X connect 19 0 115 0;
#X connect 20 0 116 0;
#X connect 21 0 117 0;
#X connect 22 0 111 0;
#X connect 23 0 125 1;
#X connect 24 0 126 1;
#X connect 25 0 127 1;
#X connect 26 0 128 1;
#X connect 27 0 123 1;
#X connect 28 0 122 1;
#X connect 29 0 121 1;
#X connect 30 0 120 1;
#X connect 31 0 119 1;
#X connect 32 0 118 1;
#X connect 33 0 117 1;
#X connect 34 0 116 1;
#X connect 35 0 115 1;
#X connect 36 0 114 1;
#X connect 37 0 113 1;
#X connect 38 0 112 1;
#X connect 39 0 111 1;
#X connect 111 0 183 0;
#X connect 112 0 177 0;
#X connect 113 0 178 0;
#X connect 114 0 179 0;
#X connect 115 0 180 0;
#X connect 116 0 181 0;
#X connect 117 0 182 0;
#X connect 118 0 176 0;
#X connect 119 0 175 0;
#X connect 120 0 174 0;
#X connect 121 0 173 0;
#X connect 122 0 172 0;
#X connect 123 0 171 0;
#X connect 124 0 166 0;
#X connect 125 0 167 0;
#X connect 126 0 168 0;
#X connect 127 0 169 0;
#X connect 128 0 170 0;
#X connect 129 0 124 1;
#X connect 166 0 109 0;
#X connect 166 0 184 0;
#X connect 166 1 2 0;
#X connect 166 1 184 1;
#X connect 166 2 4 0;
#X connect 166 2 184 2;
#X connect 166 3 3 0;
#X connect 166 3 184 3;
#X connect 166 4 108 0;
#X connect 166 4 184 4;
#X connect 166 5 184 5;
#X connect 166 6 184 6;
#X connect 167 0 110 0;
#X connect 167 0 188 0;
#X connect 167 1 40 0;
#X connect 167 1 188 1;
#X connect 167 2 42 0;
#X connect 167 2 188 2;
#X connect 167 3 41 0;
#X connect 167 3 188 3;
#X connect 167 4 107 0;
#X connect 167 4 188 4;
#X connect 167 5 188 5;
#X connect 167 6 188 6;
#X connect 168 0 43 0;
#X connect 168 0 186 0;
#X connect 168 1 44 0;
#X connect 168 1 186 1;
#X connect 168 2 46 0;
#X connect 168 2 186 2;
#X connect 168 3 45 0;
#X connect 168 3 186 3;
#X connect 168 4 186 4;
#X connect 168 5 186 5;
#X connect 168 6 186 6;
#X connect 169 0 47 0;
#X connect 169 0 190 0;
#X connect 169 1 48 0;
#X connect 169 1 190 1;
#X connect 169 2 50 0;
#X connect 169 2 190 2;
#X connect 169 3 49 0;
#X connect 169 3 190 3;
#X connect 169 4 190 4;
#X connect 169 5 190 5;
#X connect 169 6 190 6;
#X connect 170 0 51 0;
#X connect 170 0 191 0;
#X connect 170 1 52 0;
#X connect 170 1 191 1;
#X connect 170 2 54 0;
#X connect 170 2 191 2;
#X connect 170 3 53 0;
#X connect 170 3 191 3;
#X connect 170 4 191 4;
#X connect 170 5 191 5;
#X connect 170 6 191 6;
#X connect 171 0 55 0;
#X connect 171 0 196 0;
#X connect 171 1 56 0;
#X connect 171 1 196 1;
#X connect 171 2 58 0;
#X connect 171 2 196 2;
#X connect 171 3 57 0;
#X connect 171 3 196 3;
#X connect 171 4 196 4;
#X connect 171 5 196 5;
#X connect 171 6 196 6;
#X connect 172 0 59 0;
#X connect 172 0 195 0;
#X connect 172 1 60 0;
#X connect 172 1 195 1;
#X connect 172 2 62 0;
#X connect 172 2 195 2;
#X connect 172 3 61 0;
#X connect 172 3 195 3;
#X connect 172 4 195 4;
#X connect 172 5 195 5;
#X connect 172 6 195 6;
#X connect 173 0 63 0;
#X connect 173 0 185 0;
#X connect 173 1 64 0;
#X connect 173 1 185 1;
#X connect 173 2 66 0;
#X connect 173 2 185 2;
#X connect 173 3 65 0;
#X connect 173 3 185 3;
#X connect 173 4 185 4;
#X connect 173 5 185 5;
#X connect 173 6 185 6;
#X connect 174 0 67 0;
#X connect 174 0 194 0;
#X connect 174 1 68 0;
#X connect 174 1 194 1;
#X connect 174 2 70 0;
#X connect 174 2 194 2;
#X connect 174 3 69 0;
#X connect 174 3 194 3;
#X connect 174 4 194 4;
#X connect 174 5 194 5;
#X connect 174 6 194 6;
#X connect 175 0 71 0;
#X connect 175 0 193 0;
#X connect 175 1 72 0;
#X connect 175 1 193 1;
#X connect 175 2 74 0;
#X connect 175 2 193 2;
#X connect 175 3 73 0;
#X connect 175 3 193 3;
#X connect 175 4 193 4;
#X connect 175 5 193 5;
#X connect 175 6 193 6;
#X connect 176 0 75 0;
#X connect 176 0 192 0;
#X connect 176 1 76 0;
#X connect 176 1 192 1;
#X connect 176 2 78 0;
#X connect 176 2 192 2;
#X connect 176 3 77 0;
#X connect 176 3 192 3;
#X connect 176 4 192 4;
#X connect 176 5 192 5;
#X connect 176 6 192 6;
#X connect 177 0 79 0;
#X connect 177 0 197 0;
#X connect 177 1 80 0;
#X connect 177 1 197 1;
#X connect 177 2 82 0;
#X connect 177 2 197 2;
#X connect 177 3 81 0;
#X connect 177 3 197 3;
#X connect 177 4 197 4;
#X connect 177 5 197 5;
#X connect 177 6 197 6;
#X connect 178 0 83 0;
#X connect 178 0 189 0;
#X connect 178 1 84 0;
#X connect 178 1 189 1;
#X connect 178 2 86 0;
#X connect 178 2 189 2;
#X connect 178 3 85 0;
#X connect 178 3 189 3;
#X connect 178 4 189 4;
#X connect 178 5 189 5;
#X connect 178 6 189 6;
#X connect 179 0 87 0;
#X connect 179 0 187 0;
#X connect 179 1 88 0;
#X connect 179 1 187 1;
#X connect 179 2 90 0;
#X connect 179 2 187 2;
#X connect 179 3 89 0;
#X connect 179 3 187 3;
#X connect 179 4 187 4;
#X connect 179 5 187 5;
#X connect 179 6 187 6;
#X connect 180 0 91 0;
#X connect 180 0 198 0;
#X connect 180 1 92 0;
#X connect 180 1 198 1;
#X connect 180 2 94 0;
#X connect 180 2 198 2;
#X connect 180 3 93 0;
#X connect 180 3 198 3;
#X connect 180 4 198 4;
#X connect 180 5 198 5;
#X connect 180 6 198 6;
#X connect 181 0 95 0;
#X connect 181 0 199 0;
#X connect 181 1 96 0;
#X connect 181 1 199 1;
#X connect 181 2 98 0;
#X connect 181 2 199 2;
#X connect 181 3 97 0;
#X connect 181 3 199 3;
#X connect 181 4 199 4;
#X connect 181 5 199 5;
#X connect 181 6 199 6;
#X connect 182 0 99 0;
#X connect 182 0 200 0;
#X connect 182 1 100 0;
#X connect 182 1 200 1;
#X connect 182 2 102 0;
#X connect 182 2 200 2;
#X connect 182 3 101 0;
#X connect 182 3 200 3;
#X connect 182 4 200 4;
#X connect 182 5 200 5;
#X connect 182 6 200 6;
#X connect 183 0 103 0;
#X connect 183 0 201 0;
#X connect 183 1 104 0;
#X connect 183 1 201 1;
#X connect 183 2 106 0;
#X connect 183 2 201 2;
#X connect 183 3 105 0;
#X connect 183 3 201 3;
#X connect 183 4 201 4;
#X connect 183 5 201 5;
#X connect 183 6 201 6;
#X connect 184 0 130 0;
#X connect 184 1 131 0;
#X connect 185 0 144 0;
#X connect 185 1 145 0;
#X connect 186 0 134 0;
#X connect 186 1 135 0;
#X connect 187 0 156 0;
#X connect 187 1 157 0;
#X connect 188 0 132 0;
#X connect 188 1 133 0;
#X connect 189 0 154 0;
#X connect 189 1 155 0;
#X connect 190 0 136 0;
#X connect 190 1 137 0;
#X connect 191 0 138 0;
#X connect 191 1 139 0;
#X connect 192 0 150 0;
#X connect 192 1 151 0;
#X connect 193 0 148 0;
#X connect 193 1 149 0;
#X connect 194 0 146 0;
#X connect 194 1 147 0;
#X connect 195 0 142 0;
#X connect 195 1 143 0;
#X connect 196 0 140 0;
#X connect 196 1 141 0;
#X connect 197 0 152 0;
#X connect 197 1 153 0;
#X connect 198 0 158 0;
#X connect 198 1 159 0;
#X connect 199 0 160 0;
#X connect 199 1 161 0;
#X connect 200 0 162 0;
#X connect 200 1 163 0;
#X connect 201 0 164 0;
#X connect 201 1 165 0;
