#N canvas 60 23 1076 686 10;
#X obj -3 282 catch~ partial;
#X floatatom 560 63 5 0 0 0 - - -, f 5;
#X obj 560 92 s act-p1-v1;
#X obj 371 135 unpack;
#X obj 371 158 * 10;
#X obj 371 180 int;
#X obj 371 202 / 10;
#X floatatom 371 225 8 0 0 0 - - -, f 8;
#X obj 431 156 unpack;
#X obj 431 179 * 10;
#X obj 431 201 int;
#X obj 431 223 / 10;
#X floatatom 431 245 8 0 0 0 - - -, f 8;
#X obj 493 180 unpack;
#X obj 493 203 * 10;
#X obj 493 225 int;
#X obj 493 247 / 10;
#X floatatom 493 269 8 0 0 0 - - -, f 8;
#X obj 553 201 unpack;
#X obj 553 224 * 10;
#X obj 553 246 int;
#X obj 553 268 / 10;
#X floatatom 553 290 8 0 0 0 - - -, f 8;
#X obj 615 222 unpack;
#X obj 615 245 * 10;
#X obj 615 267 int;
#X obj 615 289 / 10;
#X floatatom 615 311 8 0 0 0 - - -, f 8;
#X obj 675 243 unpack;
#X obj 675 266 * 10;
#X obj 675 288 int;
#X obj 675 310 / 10;
#X floatatom 675 332 8 0 0 0 - - -, f 8;
#X obj 737 267 unpack;
#X obj 737 290 * 10;
#X obj 737 312 int;
#X obj 737 334 / 10;
#X floatatom 737 356 8 0 0 0 - - -, f 8;
#X obj 267 -195 mtof;
#X floatatom 267 -169 5 0 0 0 - - -, f 5;
#X obj 372 112 route 2 3 4 5 6 7 8;
#X obj 355 332 ==;
#X obj 371 274 t b f;
#X obj 370 305 f;
#X floatatom 355 355 5 0 0 0 - - -, f 5;
#X obj 302 375 gate;
#X floatatom 308 492 9 0 0 0 - - -, f 9;
#X obj 267 -220 fiddle~ 2048 1 8 8;
#X obj 302 428 onebang;
#X obj 106 200 bng 15 250 50 0 empty empty empty 17 7 0 10 -262144
-1 -1;
#X obj 308 470 f, f 4;
#X obj 302 397 t b f;
#X text 109 252 First: in order to obtain the partial related to the
single fundamental \, the output goes only after at least one repetition
of the frequency value. This avoids to output multiple transient frequencies
for a single event., f 38;
#X text 28 387 Second: the object outputs a continuous string of values
\, even of repeated values. This part synchronizes the output of partials
with the attacks for each fundamental. Therefore \, iIt also avoids
the transitory frequencies captured without any attacks \, in a glissando
for example., f 38;
#X obj 463 371 ==;
#X obj 479 313 t b f;
#X obj 478 344 f;
#X floatatom 463 394 5 0 0 0 - - -, f 5;
#X obj 410 414 gate;
#X floatatom 416 531 9 0 0 0 - - -, f 9;
#X obj 410 467 onebang;
#X obj 416 509 f, f 4;
#X obj 410 436 t b f;
#X obj 575 413 ==;
#X obj 591 355 t b f;
#X obj 590 386 f;
#X floatatom 575 436 5 0 0 0 - - -, f 5;
#X obj 522 456 gate;
#X floatatom 528 573 9 0 0 0 - - -, f 9;
#X obj 522 509 onebang;
#X obj 528 551 f, f 4;
#X obj 522 478 t b f;
#X obj 689 454 ==;
#X obj 705 396 t b f;
#X obj 704 427 f;
#X floatatom 689 477 5 0 0 0 - - -, f 5;
#X obj 636 497 gate;
#X floatatom 642 614 9 0 0 0 - - -, f 9;
#X obj 636 550 onebang;
#X obj 642 592 f, f 4;
#X obj 636 519 t b f;
#X obj 799 495 ==;
#X obj 815 437 t b f;
#X obj 814 468 f;
#X floatatom 799 518 5 0 0 0 - - -, f 5;
#X obj 746 538 gate;
#X floatatom 752 655 9 0 0 0 - - -, f 9;
#X obj 746 591 onebang;
#X obj 752 633 f, f 4;
#X obj 746 560 t b f;
#X obj 909 538 ==;
#X obj 925 480 t b f;
#X obj 924 511 f;
#X floatatom 909 561 5 0 0 0 - - -, f 5;
#X obj 856 581 gate;
#X floatatom 862 698 9 0 0 0 - - -, f 9;
#X obj 856 634 onebang;
#X obj 862 676 f, f 4;
#X obj 856 603 t b f;
#X obj 1019 579 ==;
#X obj 1035 521 t b f;
#X obj 1034 552 f;
#X floatatom 1019 602 5 0 0 0 - - -, f 5;
#X obj 966 622 gate;
#X floatatom 972 739 9 0 0 0 - - -, f 9;
#X obj 966 675 onebang;
#X obj 972 717 f, f 4;
#X obj 966 644 t b f;
#X obj 577 114 s act-p2-v1;
#X obj 638 90 s act-p3-v1;
#X obj 655 112 s act-p4-v1;
#X obj 717 88 s act-p5-v1;
#X obj 734 110 s act-p6-v1;
#X obj 795 86 s act-p7-v1;
#X obj 812 108 s act-p8-v1;
#X obj 560 11 loadbang;
#X msg 560 35 1;
#X obj 312 523 s part2;
#X obj 267 -143 s part1;
#X obj 419 557 s part3;
#X obj 528 599 s part4;
#X obj 642 636 s part5;
#X obj 754 678 s part6;
#X obj 862 721 s part7;
#X obj 971 761 s part8;
#X obj 106 229 s add-attack;
#X obj 954 149 pack f f f f f f;
#X obj 954 184 s part1-v1;
#X obj 1123 679 s amp1;
#X obj 1399 840 s amp8;
#X obj 1318 841 s amp7;
#X obj 1238 839 s amp6;
#X obj 1157 839 s amp5;
#X obj 1365 681 s amp4;
#X obj 1284 681 s amp3;
#X obj 1204 679 s amp2;
#X obj 972 45 r amp1;
#X obj 1009 93 r part1;
#X obj 1040 54 loadbang;
#X obj 954 21 r add-attack;
#X obj 1134 447 r add-attack;
#X obj -4 260 additive-voice 1;
#X msg 1028 117 0;
#X msg 1078 132 1;
#X obj 953 345 pack f f f f f f;
#X obj 1039 250 loadbang;
#X obj 953 217 r add-attack;
#X msg 1027 313 0;
#X msg 1077 328 1;
#X obj 971 241 r amp2;
#X obj 1008 289 r part2;
#X obj 953 380 s part2-v1;
#X obj 1144 147 pack f f f f f f;
#X obj 1230 52 loadbang;
#X obj 1144 19 r add-attack;
#X msg 1218 115 0;
#X msg 1268 130 1;
#X obj 1143 343 pack f f f f f f;
#X obj 1229 248 loadbang;
#X obj 1143 215 r add-attack;
#X msg 1217 311 0;
#X msg 1267 326 1;
#X obj 1364 147 pack f f f f f f;
#X obj 1450 52 loadbang;
#X obj 1364 19 r add-attack;
#X msg 1438 115 0;
#X msg 1488 130 1;
#X obj 1363 343 pack f f f f f f;
#X obj 1449 248 loadbang;
#X obj 1363 215 r add-attack;
#X msg 1437 311 0;
#X msg 1487 326 1;
#X obj 1584 143 pack f f f f f f;
#X obj 1670 48 loadbang;
#X obj 1584 15 r add-attack;
#X msg 1658 111 0;
#X msg 1708 126 1;
#X obj 1583 339 pack f f f f f f;
#X obj 1669 244 loadbang;
#X obj 1583 211 r add-attack;
#X msg 1657 307 0;
#X msg 1707 322 1;
#X obj 1143 378 s part4-v1;
#X obj 1363 378 s part6-v1;
#X obj 1583 374 s part8-v1;
#X obj 1144 182 s part3-v1;
#X obj 1364 182 s part5-v1;
#X obj 1584 178 s part7-v1;
#X obj 1602 39 r amp7;
#X obj 1639 87 r part7;
#X obj 1638 283 r part8;
#X obj 1601 235 r amp8;
#X obj 1418 287 r part6;
#X obj 1381 239 r amp6;
#X obj 1198 287 r part4;
#X obj 1161 239 r amp4;
#X obj 1162 43 r amp3;
#X obj 1199 91 r part3;
#X obj 1382 43 r amp5;
#X obj 1419 91 r part5;
#X obj 1134 557 random 200;
#X obj 1134 579 + 300;
#X obj 1134 535 bng 15 250 50 0 empty empty empty 17 7 0 10 -262144
-1 -1;
#X floatatom 1134 601 5 0 0 0 - - -, f 5;
#X obj 1209 578 +;
#X obj 1209 537 bng 15 250 50 0 empty empty empty 17 7 0 10 -262144
-1 -1;
#X obj 1276 577 +;
#X obj 1276 536 bng 15 250 50 0 empty empty empty 17 7 0 10 -262144
-1 -1;
#X obj 1342 577 +;
#X obj 1342 536 bng 15 250 50 0 empty empty empty 17 7 0 10 -262144
-1 -1;
#X obj 1136 746 +;
#X obj 1136 705 bng 15 250 50 0 empty empty empty 17 7 0 10 -262144
-1 -1;
#X obj 1204 745 +;
#X obj 1204 704 bng 15 250 50 0 empty empty empty 17 7 0 10 -262144
-1 -1;
#X obj 1271 745 +;
#X obj 1271 704 bng 15 250 50 0 empty empty empty 17 7 0 10 -262144
-1 -1;
#X obj 1343 745 +;
#X obj 1343 704 bng 15 250 50 0 empty empty empty 17 7 0 10 -262144
-1 -1;
#X obj 1343 724 random 45;
#X floatatom 1209 601 5 0 0 0 - - -, f 5;
#X floatatom 1276 601 5 0 0 0 - - -, f 5;
#X floatatom 1342 601 5 0 0 0 - - -, f 5;
#X floatatom 1203 773 5 0 0 0 - - -, f 5;
#X floatatom 1270 773 5 0 0 0 - - -, f 5;
#X floatatom 1344 771 5 0 0 0 - - -, f 5;
#X floatatom 1137 770 5 0 0 0 - - -, f 5;
#X obj 1435 712 - 500;
#X obj 1271 724 random 50;
#X obj 1204 724 random 75;
#X obj 1136 725 random 75;
#X obj 1342 556 random 75;
#X obj 1276 556 random 90;
#X obj 1209 557 random 90;
#X floatatom 1435 734 5 0 0 0 - - -, f 5;
#X obj 1134 472 bng 15 250 50 0 empty empty empty 17 7 0 10 -262144
-1 -1;
#X obj 1134 492 t b b;
#X msg 1159 514 0;
#X obj 1435 686 t f b;
#X obj 1499 703 random 7;
#X floatatom 1499 728 5 0 0 0 - - -, f 5;
#X obj 1499 751 + 1;
#X obj 1499 774 gate 7;
#X obj 1435 756 * -1;
#X obj 1132 633 / 100;
#X obj 1209 630 / 100;
#X obj 1279 630 / 100;
#X obj 1340 626 / 100;
#X obj 1135 808 / 100;
#X obj 1215 805 / 100;
#X obj 1282 805 / 100;
#X obj 1342 802 / 100;
#X obj 991 69 r dur1;
#X obj 1181 67 r dur3;
#X obj 1401 68 r dur5;
#X obj 1618 66 r dur7;
#X obj 988 266 r dur2;
#X obj 1178 264 r dur4;
#X obj 1393 263 r dur6;
#X obj 1617 259 r dur8;
#X obj 1580 619 s dur1;
#X obj 1647 617 s dur3;
#X obj 1709 619 s dur5;
#X obj 1778 613 s dur7;
#X obj 1825 643 s dur8;
#X obj 1756 649 s dur6;
#X obj 1694 647 s dur4;
#X obj 1627 649 s dur2;
#X obj 1553 538 r add-dur;
#X floatatom 1555 562 5 0 0 0 - - -, f 5;
#X text 1623 551 duration of the event in ms;
#X obj -3 317 outlet~;
#X obj 267 -250 inlet~;
#X obj 73 -252 r add-trigger;
#X obj 73 -225 moses 1;
#X obj 272 -92 gate;
#X floatatom 272 -117 5 0 0 0 - - -, f 5;
#X obj 113 -201 moses 2;
#X msg 151 -140 1;
#X msg 72 -144 0;
#X obj 280 -58 bng 15 250 50 0 empty empty empty 17 7 0 10 -262144
-1 -1;
#X floatatom 307 31 5 0 0 0 - - -, f 5;
#X obj 251 72 counter;
#X floatatom 251 94 5 0 0 0 - - -, f 5;
#X obj 148 8 tgl 15 0 empty empty empty 17 7 0 10 -262144 -1 -1 0 1
;
#X msg 224 -12 1;
#X obj 280 -38 t b b;
#X floatatom 222 31 5 0 0 0 - - -, f 5;
#X obj 252 113 moses;
#X obj 307 50 t f f;
#X obj 280 135 bng 15 250 50 0 empty empty empty 17 7 0 10 -262144
-1 -1;
#X msg 280 155 0;
#X obj 149 30 metro 30;
#X obj 149 60 t b b;
#X obj 176 107 + 50;
#X obj 176 86 random 150;
#X obj 152 -178 moses 3;
#X obj 150 -75 gate 2;
#X floatatom 150 -99 5 0 0 0 - - -, f 5;
#X msg 191 -152 2;
#X text -86 -261 Triggering may be: deactivated (mode 0) \; single
bangs (mode 1) \; single bangs by fiddle \, triggered by the fiddle
object (mode2) \; multiple bangs \; automated bangs based on fiddle
triggering (mode 3). Modes 2 and 3 are automatically off when modes
0 and 1 are chosen., f 24;
#X text 1232 449 Partial amplitudes: at each bang a new mixing for
partials is generated. always keeping stronger emphasis on the fundamental
frequency.;
#X text 322 -283 SIMPLE ADDITIVE SYNTHESIS with 3 triggering modes
and randomly amplitude partial mixing \, synthesis model based on Risset
bells and on fiddle pitch tracking.;
#X msg 222 -152 1;
#X obj 307 8 + 1;
#X obj 307 -15 random 8;
#X text 340 -63 Mode 3: automatically generates multiple bangs (1 to
8) \, where at each bang a new inter-onset interval is set (50 to 200
ms).;
#X connect 0 0 270 0;
#X connect 1 0 2 0;
#X connect 1 0 108 0;
#X connect 1 0 109 0;
#X connect 1 0 110 0;
#X connect 1 0 111 0;
#X connect 1 0 112 0;
#X connect 1 0 113 0;
#X connect 1 0 114 0;
#X connect 3 0 4 0;
#X connect 4 0 5 0;
#X connect 5 0 6 0;
#X connect 6 0 7 0;
#X connect 7 0 41 0;
#X connect 7 0 42 0;
#X connect 7 0 45 1;
#X connect 8 0 9 0;
#X connect 9 0 10 0;
#X connect 10 0 11 0;
#X connect 11 0 12 0;
#X connect 12 0 55 0;
#X connect 12 0 54 0;
#X connect 12 0 58 1;
#X connect 13 0 14 0;
#X connect 14 0 15 0;
#X connect 15 0 16 0;
#X connect 16 0 17 0;
#X connect 17 0 64 0;
#X connect 17 0 63 0;
#X connect 17 0 67 1;
#X connect 18 0 19 0;
#X connect 19 0 20 0;
#X connect 20 0 21 0;
#X connect 21 0 22 0;
#X connect 22 0 73 0;
#X connect 22 0 72 0;
#X connect 22 0 76 1;
#X connect 23 0 24 0;
#X connect 24 0 25 0;
#X connect 25 0 26 0;
#X connect 26 0 27 0;
#X connect 27 0 82 0;
#X connect 27 0 81 0;
#X connect 27 0 85 1;
#X connect 28 0 29 0;
#X connect 29 0 30 0;
#X connect 30 0 31 0;
#X connect 31 0 32 0;
#X connect 32 0 91 0;
#X connect 32 0 90 0;
#X connect 32 0 94 1;
#X connect 33 0 34 0;
#X connect 34 0 35 0;
#X connect 35 0 36 0;
#X connect 36 0 37 0;
#X connect 37 0 100 0;
#X connect 37 0 99 0;
#X connect 37 0 103 1;
#X connect 38 0 39 0;
#X connect 39 0 118 0;
#X connect 40 0 3 0;
#X connect 40 1 8 0;
#X connect 40 2 13 0;
#X connect 40 3 18 0;
#X connect 40 4 23 0;
#X connect 40 5 28 0;
#X connect 40 6 33 0;
#X connect 41 0 44 0;
#X connect 42 0 43 0;
#X connect 42 1 43 1;
#X connect 43 0 41 1;
#X connect 44 0 45 0;
#X connect 45 0 51 0;
#X connect 46 0 117 0;
#X connect 47 0 38 0;
#X connect 47 1 274 1;
#X connect 47 4 40 0;
#X connect 48 0 50 0;
#X connect 49 0 48 1;
#X connect 49 0 60 1;
#X connect 49 0 69 1;
#X connect 49 0 78 1;
#X connect 49 0 87 1;
#X connect 49 0 96 1;
#X connect 49 0 105 1;
#X connect 49 0 125 0;
#X connect 50 0 46 0;
#X connect 51 0 48 0;
#X connect 51 1 50 1;
#X connect 54 0 57 0;
#X connect 55 0 56 0;
#X connect 55 1 56 1;
#X connect 56 0 54 1;
#X connect 57 0 58 0;
#X connect 58 0 62 0;
#X connect 59 0 119 0;
#X connect 60 0 61 0;
#X connect 61 0 59 0;
#X connect 62 0 60 0;
#X connect 62 1 61 1;
#X connect 63 0 66 0;
#X connect 64 0 65 0;
#X connect 64 1 65 1;
#X connect 65 0 63 1;
#X connect 66 0 67 0;
#X connect 67 0 71 0;
#X connect 68 0 120 0;
#X connect 69 0 70 0;
#X connect 70 0 68 0;
#X connect 71 0 69 0;
#X connect 71 1 70 1;
#X connect 72 0 75 0;
#X connect 73 0 74 0;
#X connect 73 1 74 1;
#X connect 74 0 72 1;
#X connect 75 0 76 0;
#X connect 76 0 80 0;
#X connect 77 0 121 0;
#X connect 78 0 79 0;
#X connect 79 0 77 0;
#X connect 80 0 78 0;
#X connect 80 1 79 1;
#X connect 81 0 84 0;
#X connect 82 0 83 0;
#X connect 82 1 83 1;
#X connect 83 0 81 1;
#X connect 84 0 85 0;
#X connect 85 0 89 0;
#X connect 86 0 122 0;
#X connect 87 0 88 0;
#X connect 88 0 86 0;
#X connect 89 0 87 0;
#X connect 89 1 88 1;
#X connect 90 0 93 0;
#X connect 91 0 92 0;
#X connect 91 1 92 1;
#X connect 92 0 90 1;
#X connect 93 0 94 0;
#X connect 94 0 98 0;
#X connect 95 0 123 0;
#X connect 96 0 97 0;
#X connect 97 0 95 0;
#X connect 98 0 96 0;
#X connect 98 1 97 1;
#X connect 99 0 102 0;
#X connect 100 0 101 0;
#X connect 100 1 101 1;
#X connect 101 0 99 1;
#X connect 102 0 103 0;
#X connect 103 0 107 0;
#X connect 104 0 124 0;
#X connect 105 0 106 0;
#X connect 106 0 104 0;
#X connect 107 0 105 0;
#X connect 107 1 106 1;
#X connect 115 0 116 0;
#X connect 116 0 1 0;
#X connect 126 0 127 0;
#X connect 136 0 126 1;
#X connect 137 0 126 3;
#X connect 138 0 142 0;
#X connect 138 0 143 0;
#X connect 139 0 126 0;
#X connect 140 0 234 0;
#X connect 142 0 126 4;
#X connect 143 0 126 5;
#X connect 144 0 151 0;
#X connect 145 0 147 0;
#X connect 145 0 148 0;
#X connect 146 0 144 0;
#X connect 147 0 144 4;
#X connect 148 0 144 5;
#X connect 149 0 144 1;
#X connect 150 0 144 3;
#X connect 152 0 185 0;
#X connect 153 0 155 0;
#X connect 153 0 156 0;
#X connect 154 0 152 0;
#X connect 155 0 152 4;
#X connect 156 0 152 5;
#X connect 157 0 182 0;
#X connect 158 0 160 0;
#X connect 158 0 161 0;
#X connect 159 0 157 0;
#X connect 160 0 157 4;
#X connect 161 0 157 5;
#X connect 162 0 186 0;
#X connect 163 0 165 0;
#X connect 163 0 166 0;
#X connect 164 0 162 0;
#X connect 165 0 162 4;
#X connect 166 0 162 5;
#X connect 167 0 183 0;
#X connect 168 0 170 0;
#X connect 168 0 171 0;
#X connect 169 0 167 0;
#X connect 170 0 167 4;
#X connect 171 0 167 5;
#X connect 172 0 187 0;
#X connect 173 0 175 0;
#X connect 173 0 176 0;
#X connect 174 0 172 0;
#X connect 175 0 172 4;
#X connect 176 0 172 5;
#X connect 177 0 184 0;
#X connect 178 0 180 0;
#X connect 178 0 181 0;
#X connect 179 0 177 0;
#X connect 180 0 177 4;
#X connect 181 0 177 5;
#X connect 188 0 172 1;
#X connect 189 0 172 3;
#X connect 190 0 177 3;
#X connect 191 0 177 1;
#X connect 192 0 167 3;
#X connect 193 0 167 1;
#X connect 194 0 157 3;
#X connect 195 0 157 1;
#X connect 196 0 152 1;
#X connect 197 0 152 3;
#X connect 198 0 162 1;
#X connect 199 0 162 3;
#X connect 200 0 201 0;
#X connect 201 0 203 0;
#X connect 202 0 200 0;
#X connect 203 0 237 0;
#X connect 203 0 243 0;
#X connect 204 0 219 0;
#X connect 205 0 232 0;
#X connect 206 0 220 0;
#X connect 207 0 231 0;
#X connect 208 0 221 0;
#X connect 209 0 230 0;
#X connect 210 0 225 0;
#X connect 211 0 229 0;
#X connect 212 0 222 0;
#X connect 213 0 228 0;
#X connect 214 0 223 0;
#X connect 215 0 227 0;
#X connect 216 0 224 0;
#X connect 217 0 218 0;
#X connect 218 0 216 0;
#X connect 219 0 244 0;
#X connect 220 0 245 0;
#X connect 221 0 246 0;
#X connect 222 0 248 0;
#X connect 223 0 249 0;
#X connect 224 0 250 0;
#X connect 225 0 247 0;
#X connect 226 0 233 0;
#X connect 227 0 214 0;
#X connect 228 0 212 0;
#X connect 229 0 210 0;
#X connect 230 0 208 0;
#X connect 231 0 206 0;
#X connect 232 0 204 0;
#X connect 233 0 242 0;
#X connect 234 0 235 0;
#X connect 235 0 202 0;
#X connect 235 0 205 0;
#X connect 235 0 217 0;
#X connect 235 0 215 0;
#X connect 235 0 213 0;
#X connect 235 0 211 0;
#X connect 235 0 209 0;
#X connect 235 0 207 0;
#X connect 235 1 236 0;
#X connect 236 0 204 1;
#X connect 236 0 216 1;
#X connect 236 0 214 1;
#X connect 236 0 212 1;
#X connect 236 0 210 1;
#X connect 236 0 208 1;
#X connect 236 0 206 1;
#X connect 237 0 226 0;
#X connect 237 1 238 0;
#X connect 238 0 239 0;
#X connect 239 0 240 0;
#X connect 240 0 241 0;
#X connect 241 0 204 1;
#X connect 241 1 206 1;
#X connect 241 2 208 1;
#X connect 241 3 210 1;
#X connect 241 4 212 1;
#X connect 241 5 214 1;
#X connect 241 6 216 1;
#X connect 242 0 241 1;
#X connect 243 0 128 0;
#X connect 244 0 135 0;
#X connect 245 0 134 0;
#X connect 246 0 133 0;
#X connect 247 0 132 0;
#X connect 248 0 131 0;
#X connect 249 0 130 0;
#X connect 250 0 129 0;
#X connect 251 0 126 2;
#X connect 252 0 152 2;
#X connect 253 0 162 2;
#X connect 254 0 172 2;
#X connect 255 0 144 2;
#X connect 256 0 157 2;
#X connect 257 0 167 2;
#X connect 258 0 177 2;
#X connect 267 0 268 0;
#X connect 268 0 259 0;
#X connect 268 0 266 0;
#X connect 268 0 265 0;
#X connect 268 0 264 0;
#X connect 268 0 263 0;
#X connect 268 0 262 0;
#X connect 268 0 261 0;
#X connect 268 0 260 0;
#X connect 271 0 47 0;
#X connect 272 0 273 0;
#X connect 273 0 278 0;
#X connect 273 1 276 0;
#X connect 274 0 296 1;
#X connect 275 0 274 0;
#X connect 276 0 49 0;
#X connect 276 0 278 0;
#X connect 276 1 295 0;
#X connect 277 0 275 0;
#X connect 277 0 297 0;
#X connect 278 0 275 0;
#X connect 279 0 285 0;
#X connect 280 0 288 0;
#X connect 281 0 282 0;
#X connect 282 0 287 0;
#X connect 283 0 291 0;
#X connect 284 0 283 0;
#X connect 285 0 284 0;
#X connect 285 1 304 0;
#X connect 286 0 291 1;
#X connect 287 1 289 0;
#X connect 288 0 281 4;
#X connect 288 1 287 1;
#X connect 289 0 290 0;
#X connect 290 0 283 0;
#X connect 291 0 281 0;
#X connect 291 0 292 0;
#X connect 292 0 49 0;
#X connect 292 1 294 0;
#X connect 293 0 286 0;
#X connect 294 0 293 0;
#X connect 295 0 277 0;
#X connect 295 1 298 0;
#X connect 295 1 302 0;
#X connect 296 0 49 0;
#X connect 296 1 279 0;
#X connect 297 0 296 0;
#X connect 298 0 297 0;
#X connect 302 0 275 0;
#X connect 303 0 280 0;
#X connect 304 0 303 0;
