#N canvas 158 26 266 341 10;
#X obj 13 112 reson~ 1 \$1 40;
#X obj 12 136 reson~ 1 \$1 40;
#X obj 12 177 avg~;
#X obj 12 204 * 100;
#X msg 12 238 \$1 20;
#X obj 12 267 line~;
#X obj 12 300 *~;
#X obj 149 234 reson~ 1 \$1 40;
#X obj 148 258 reson~ 1 \$1 40;
#X obj 59 160 r tick;
#X obj 120 95 sig~;
#X obj 120 71 r q;
#X obj 13 85 r~ modulator;
#X obj 149 190 r~ carrier;
#X obj 12 333 s~ voice_\$2;
#X obj 67 221 s voice_\$2;
#X text 11 44 Vocoder band;
#X connect 0 0 1 0;
#X connect 1 0 2 0;
#X connect 2 0 3 0;
#X connect 3 0 4 0;
#X connect 3 0 15 0;
#X connect 4 0 5 0;
#X connect 5 0 6 0;
#X connect 6 0 14 0;
#X connect 7 0 8 0;
#X connect 8 0 6 1;
#X connect 9 0 2 0;
#X connect 10 0 7 3;
#X connect 10 0 8 3;
#X connect 10 0 0 3;
#X connect 10 0 1 3;
#X connect 11 0 10 0;
#X connect 12 0 0 0;
#X connect 13 0 7 0;
