#N canvas 80 87 482 534 10;
#X declare -lib iemmatrix;
#X declare -lib iemlib;
#X declare -lib iemgui;
#X declare -lib iem_ambi;
#X declare -lib moonlib;
#X obj 15 15 inlet~;
#X text 62 16 mono_in;
#X obj 201 16 inlet;
#X obj 145 302 round_zero 1e-06;
#X obj 145 278 ambi_encode 1;
#X msg 11 260 ambi_weight 1 1 1;
#X floatatom 197 193 5 -180 180 0 - - -, f 5;
#X floatatom 145 192 5 -90 90 0 - - -, f 5;
#X obj 145 249 pack 0 0;
#X obj 163 227 t b f;
#X obj 11 235 loadbang;
#X obj 145 330 mtx 4 1;
#X text 184 85 fade_time;
#X obj 319 410 fadtodb;
#X obj 44 72 dbtorms;
#X obj 319 430 - 100;
#X obj 319 249 vsl 15 121 0 120 0 1 empty empty empty 0 -8 0 8 -260818
-1 -1 0 1;
#X floatatom 319 461 5 0 0 0 - - -, f 5;
#X floatatom 325 381 5 0 0 0 - - -, f 5;
#X obj 319 207 loadbang;
#X msg 319 226 84;
#X text 237 16 azi _ graus;
#X obj 320 145 inlet;
#X obj 319 501 outlet;
#X text 366 502 amp_dB;
#X obj 320 169 * 84;
#X text 358 145 amp - dB - 0 a 1;
#X obj 145 398 outlet~;
#X obj 170 428 outlet~;
#X obj 195 470 outlet~;
#X text 144 419 w;
#X text 171 446 x;
#X text 195 488 y;
#X text 135 166 elevation;
#X msg 254 110 0;
#X obj 255 86 loadbang;
#X obj 320 86 mtx_mul~;
#X obj 320 -19 declare -lib iemmatrix;
#X obj 320 1 declare -lib iemlib;
#X obj 320 20 declare -lib iemgui;
#X obj 320 40 declare -lib iem_ambi;
#X obj 321 61 declare -lib moonlib;
#X obj 16 103 mull~ 1 50;
#X obj 145 365 mtx_*~ 4 1 50;
#X connect 0 0 42 0;
#X connect 2 0 6 0;
#X connect 3 0 11 0;
#X connect 4 0 3 0;
#X connect 5 0 4 0;
#X connect 6 0 9 0;
#X connect 7 0 8 0;
#X connect 8 0 4 0;
#X connect 9 0 8 0;
#X connect 9 1 8 1;
#X connect 10 0 5 0;
#X connect 11 0 43 0;
#X connect 13 0 14 0;
#X connect 13 0 15 0;
#X connect 14 0 42 1;
#X connect 14 0 43 1;
#X connect 15 0 17 0;
#X connect 16 0 13 0;
#X connect 16 0 18 0;
#X connect 17 0 23 0;
#X connect 19 0 20 0;
#X connect 20 0 16 0;
#X connect 22 0 25 0;
#X connect 25 0 16 0;
#X connect 34 0 6 0;
#X connect 34 0 7 0;
#X connect 35 0 34 0;
#X connect 42 0 43 1;
#X connect 43 0 27 0;
#X connect 43 1 28 0;
#X connect 43 2 29 0;
