#N canvas 260 40 672 703 10;
#X declare -lib iemmatrix;
#X declare -lib iemlib;
#X declare -lib iemgui;
#X declare -lib iem_ambi;
#X obj 297 408 round_zero 1e-06;
#N canvas 266 89 462 291 __________________________ 0;
#X obj 25 66 rvu~;
#X obj 25 86 + 100;
#X obj 25 106 dbtorms;
#X obj 25 127 outlet;
#X obj 95 66 rvu~;
#X obj 95 86 + 100;
#X obj 95 106 dbtorms;
#X obj 95 127 outlet;
#X obj 155 66 rvu~;
#X obj 155 86 + 100;
#X obj 155 106 dbtorms;
#X obj 155 127 outlet;
#X obj 215 66 rvu~;
#X obj 215 86 + 100;
#X obj 215 106 dbtorms;
#X obj 215 127 outlet;
#X obj 275 66 rvu~;
#X obj 275 86 + 100;
#X obj 275 106 dbtorms;
#X obj 275 127 outlet;
#X obj 335 66 rvu~;
#X obj 335 86 + 100;
#X obj 335 106 dbtorms;
#X obj 335 127 outlet;
#X obj 25 45 inlet~;
#X obj 95 45 inlet~;
#X obj 155 45 inlet~;
#X obj 215 45 inlet~;
#X obj 275 45 inlet~;
#X obj 335 45 inlet~;
#X obj 26 159 throw~ out_ambi1;
#X obj 89 176 throw~ out_ambi2;
#X obj 157 199 throw~ out_ambi3;
#X obj 224 220 throw~ out_ambi4;
#X obj 290 240 throw~ out_ambi5;
#X obj 356 261 throw~ out_ambi6;
#X connect 0 0 1 0;
#X connect 1 0 2 0;
#X connect 2 0 3 0;
#X connect 4 0 5 0;
#X connect 5 0 6 0;
#X connect 6 0 7 0;
#X connect 8 0 9 0;
#X connect 9 0 10 0;
#X connect 10 0 11 0;
#X connect 12 0 13 0;
#X connect 13 0 14 0;
#X connect 14 0 15 0;
#X connect 16 0 17 0;
#X connect 17 0 18 0;
#X connect 18 0 19 0;
#X connect 20 0 21 0;
#X connect 21 0 22 0;
#X connect 22 0 23 0;
#X connect 24 0 0 0;
#X connect 24 0 30 0;
#X connect 25 0 4 0;
#X connect 25 0 31 0;
#X connect 26 0 8 0;
#X connect 26 0 32 0;
#X connect 27 0 12 0;
#X connect 27 0 33 0;
#X connect 28 0 16 0;
#X connect 28 0 34 0;
#X connect 29 0 20 0;
#X connect 29 0 35 0;
#X restore 244 494 pd __________________________;
#X obj 297 437 mtx_*~ 6 3 0;
#X obj 4 212 mtx_mul~;
#X obj 4 130 declare -lib iemmatrix;
#X obj 4 150 declare -lib iemlib;
#X obj 4 169 declare -lib iemgui;
#X obj 4 189 declare -lib iem_ambi;
#X text -1 78 2D-Ambisonics decoding stage.;
#X obj 333 310 bng 15 250 50 0 empty empty empty 17 7 0 10 -262144
-1 -1;
#X msg 246 269 begin_pseudo_inverse;
#X msg 227 291 end_pseudo_inverse;
#X obj 227 197 t b b b;
#X msg 266 244 ambi_weight 1 1 1;
#X obj 227 136 t b l;
#X obj 227 88 loadbang;
#X text 227 66 [ 30 \, 330 \, 270 \, 210 \, 150 \, 90 ];
#X text 296 139 Speakers names and respective angles;
#X obj 227 175 bng 15 250 50 0 empty empty empty 17 7 0 10 -262144
-1 -1;
#X obj 297 348 ambi_decode3 1 2 6 0;
#X text 428 369 Order \,, f 7;
#X text 429 389 Dimension \,;
#X text 428 408 nº of real speakers \,;
#X text 427 431 nº of phantom speakers.;
#X text 428 347 Arguments for decoding:;
#X text 227 31 Speakers angles (inverted order of speakers given that
Ambisonics rotation is by default counterclockwise);
#N canvas 495 23 461 180 inlet-coding 0;
#X obj 13 12 r~ ws1;
#X obj 27 35 r~ xs1;
#X obj 42 59 r~ ys1;
#X obj 62 12 r~ ws2;
#X obj 76 35 r~ xs2;
#X obj 91 59 r~ ys2;
#X obj 107 13 r~ ws3;
#X obj 121 36 r~ xs3;
#X obj 136 60 r~ ys3;
#X obj 163 13 r~ ws4;
#X obj 177 36 r~ xs4;
#X obj 192 60 r~ ys4;
#X obj 217 13 r~ ws5;
#X obj 231 36 r~ xs5;
#X obj 246 60 r~ ys5;
#X obj 269 13 r~ ws6;
#X obj 283 36 r~ xs6;
#X obj 298 60 r~ ys6;
#X obj 348 59 r~ ys7;
#X obj 333 35 r~ xs7;
#X obj 319 12 r~ ws7;
#X obj 367 12 r~ ws8;
#X obj 381 35 r~ xs8;
#X obj 396 59 r~ ys8;
#X obj 122 119 outlet~;
#X obj 196 142 outlet~;
#X obj 264 166 outlet~;
#X text 282 144 y;
#X text 214 120 x;
#X text 140 98 w;
#X connect 0 0 24 0;
#X connect 1 0 25 0;
#X connect 2 0 26 0;
#X connect 3 0 24 0;
#X connect 4 0 25 0;
#X connect 5 0 26 0;
#X connect 6 0 24 0;
#X connect 7 0 25 0;
#X connect 8 0 26 0;
#X connect 9 0 24 0;
#X connect 10 0 25 0;
#X connect 11 0 26 0;
#X connect 12 0 24 0;
#X connect 13 0 25 0;
#X connect 14 0 26 0;
#X connect 15 0 24 0;
#X connect 16 0 25 0;
#X connect 17 0 26 0;
#X connect 18 0 26 0;
#X connect 19 0 25 0;
#X connect 20 0 24 0;
#X connect 21 0 24 0;
#X connect 22 0 25 0;
#X connect 23 0 26 0;
#X restore 314 378 pd inlet-coding;
#X obj 245 518 outlet;
#X obj 280 545 outlet;
#X obj 313 571 outlet;
#X obj 348 598 outlet;
#X obj 380 626 outlet;
#X obj 415 653 outlet;
#X msg 227 113 30 330 270 210 150 90;
#X msg 296 189 real_ls \$1 \$2;
#X msg 296 161 1 \$1 \, 2 \$2 \, 3 \$3 \, 4 \$4 \, 5 \$5 \, 6 \$6;
#X connect 0 0 2 0;
#X connect 1 0 27 0;
#X connect 1 1 28 0;
#X connect 1 2 29 0;
#X connect 1 3 30 0;
#X connect 1 4 31 0;
#X connect 1 5 32 0;
#X connect 2 0 1 0;
#X connect 2 1 1 1;
#X connect 2 2 1 2;
#X connect 2 3 1 3;
#X connect 2 4 1 4;
#X connect 2 5 1 5;
#X connect 9 0 19 0;
#X connect 10 0 19 0;
#X connect 11 0 19 0;
#X connect 12 0 11 0;
#X connect 12 1 10 0;
#X connect 12 2 13 0;
#X connect 13 0 19 0;
#X connect 14 0 18 0;
#X connect 14 1 35 0;
#X connect 15 0 33 0;
#X connect 18 0 12 0;
#X connect 19 0 0 0;
#X connect 26 0 2 1;
#X connect 26 1 2 2;
#X connect 26 2 2 3;
#X connect 33 0 14 0;
#X connect 34 0 19 0;
#X connect 35 0 34 0;
#X coords 0 0 1 1 170 170 0;
