#N canvas 120 70 491 394 10;
#X obj 192 117 line~;
#X msg 266 94 0 75;
#X msg 255 72 1 75;
#X obj 145 114 *~;
#X floatatom 186 206 5 0 0 0 - - -, f 5;
#X msg 265 250 0 75;
#X msg 264 271 1 75;
#X obj 186 269 *~;
#X obj 335 246 route 0 1;
#X msg 335 218 1, f 2;
#X obj 335 193 loadbang;
#X obj 145 75 inlet~;
#X obj 186 315 outlet~;
#X obj 186 294 *~ 1;
#X obj 187 226 delread~ tempo-real-\$1;
#X obj 212 252 line~;
#X obj 186 175 r dur-del-\$1;
#X obj 145 144 delwrite~ tempo-real-\$1 10000;
#X connect 0 0 3 1;
#X connect 1 0 0 0;
#X connect 2 0 0 0;
#X connect 3 0 17 0;
#X connect 4 0 14 0;
#X connect 5 0 15 0;
#X connect 6 0 15 0;
#X connect 7 0 13 0;
#X connect 8 0 5 0;
#X connect 8 1 6 0;
#X connect 8 1 2 0;
#X connect 9 0 8 0;
#X connect 10 0 9 0;
#X connect 11 0 3 0;
#X connect 13 0 12 0;
#X connect 14 0 7 0;
#X connect 15 0 7 1;
#X connect 16 0 4 0;
#X coords 0 0 1 1 175 145 0;
