#N canvas 381 86 366 247 12;
#X obj 152 180 *~ 0.8;
#X floatatom 210 151 5 0 0 0 - - -, f 5;
#X floatatom 152 8 5 0 0 0 - - -, f 5;
#X obj 152 33 osc~;
#X obj 152 60 +~ 1;
#X obj 152 90 *~ 0.5;
#X obj 152 124 *~;
#X floatatom 248 78 5 0 0 0 - - -, f 5;
#X obj 152 152 vd~ d1;
#X obj 17 52 *~ 1;
#X obj 17 82 delwrite~ d1 10;
#X obj 17 21 inlet~;
#X obj 151 209 outlet~;
#X obj 152 -24 r fm-freq-port;
#X obj 248 44 r fm-freq-mod;
#X connect 0 0 12 0;
#X connect 1 0 0 1;
#X connect 2 0 3 0;
#X connect 3 0 4 0;
#X connect 4 0 5 0;
#X connect 5 0 6 0;
#X connect 6 0 8 0;
#X connect 7 0 6 1;
#X connect 8 0 0 0;
#X connect 9 0 10 0;
#X connect 11 0 9 0;
#X connect 13 0 2 0;
#X connect 14 0 7 0;
