#N canvas 47 23 1233 579 10;
#X obj -277 409 s maxLength;
#X msg -277 388 4410;
#X obj -48 264 s tMean;
#X obj -45 288 s tRange;
#X obj -54 239 s lRange;
#X obj -40 373 s spMean;
#X obj -37 400 s spRange;
#X obj -59 160 s stMean;
#X obj -52 182 s stRange;
#X obj -278 366 loadbang;
#X obj -50 214 s lMean;
#X obj -40 442 s panning;
#X obj -46 310 s volMean;
#X obj -39 338 s volRange;
#X obj -224 438 bng 15 250 50 0 empty empty empty 17 7 0 10 -262144
-1 -1;
#X msg -275 461 0.5;
#X msg -275 483 0.1;
#X msg -275 503 1;
#X msg -275 525 0;
#X msg -275 439 1000;
#X obj -222 463 s stMeanH;
#X obj -222 483 s tMeanH;
#X obj -222 523 s spMeanH;
#X obj -222 543 s volMeanH;
#X obj -222 563 s panningH;
#X obj -143 463 s stRangeH;
#X obj -143 483 s tRangeH;
#X obj -143 523 s spRangeH;
#X obj -143 543 s volRangeH;
#X obj -222 503 s lMeanH;
#X obj -143 503 s lRangeH;
#X msg -112 417 2000;
#X obj -112 438 s maxDel;
#X obj -186 377 delwrite~ tape1 5000;
#X obj -365 450 s octaveLock;
#X obj -365 430 tgl 15 0 empty empty empty 17 7 0 10 -262144 -1 -1
0 1;
#X obj -41 477 s grainsNum;
#N canvas 11 23 1258 664 online8grains 0;
#N canvas 0 22 1020 608 selector8toggles 0;
#X msg 200 147 1;
#X msg 161 147 0;
#X msg 240 192 1;
#X msg 201 192 0;
#X obj 161 340 tgl 15 0 empty empty empty 17 7 0 10 -262144 -1 -1 1
1;
#X obj 184 340 tgl 15 0 empty empty empty 17 7 0 10 -262144 -1 -1 1
1;
#X obj 206 340 tgl 15 0 empty empty empty 17 7 0 10 -262144 -1 -1 1
1;
#X obj 229 340 tgl 15 0 empty empty empty 17 7 0 10 -262144 -1 -1 0
1;
#X msg 280 238 1;
#X msg 241 238 0;
#X msg 321 286 1;
#X msg 282 286 0;
#X obj 161 125 moses 1;
#X obj 201 170 moses 2;
#X obj 241 216 moses 3;
#X obj 282 264 moses 4;
#X msg 290 149 1;
#X msg 251 149 0;
#X msg 330 194 1;
#X msg 291 194 0;
#X msg 370 240 1;
#X msg 331 240 0;
#X msg 411 288 1;
#X msg 372 288 0;
#X obj 251 127 moses 5;
#X obj 291 172 moses 6;
#X obj 331 218 moses 7;
#X obj 372 266 moses 8;
#X obj 260 340 tgl 15 0 empty empty empty 17 7 0 10 -262144 -1 -1 0
1;
#X obj 283 340 tgl 15 0 empty empty empty 17 7 0 10 -262144 -1 -1 0
1;
#X obj 305 340 tgl 15 0 empty empty empty 17 7 0 10 -262144 -1 -1 0
1;
#X obj 328 340 tgl 15 0 empty empty empty 17 7 0 10 -262144 -1 -1 0
1;
#X obj 295 95 inlet;
#X obj 184 385 outlet;
#X obj 161 362 outlet;
#X obj 229 383 outlet;
#X obj 206 360 outlet;
#X obj 283 384 outlet;
#X obj 260 361 outlet;
#X obj 328 382 outlet;
#X obj 305 359 outlet;
#X connect 0 0 4 0;
#X connect 1 0 4 0;
#X connect 2 0 5 0;
#X connect 3 0 5 0;
#X connect 4 0 34 0;
#X connect 5 0 33 0;
#X connect 6 0 36 0;
#X connect 7 0 35 0;
#X connect 8 0 6 0;
#X connect 9 0 6 0;
#X connect 10 0 7 0;
#X connect 11 0 7 0;
#X connect 12 0 1 0;
#X connect 12 1 0 0;
#X connect 13 0 3 0;
#X connect 13 1 2 0;
#X connect 14 0 9 0;
#X connect 14 1 8 0;
#X connect 15 0 11 0;
#X connect 15 1 10 0;
#X connect 16 0 28 0;
#X connect 17 0 28 0;
#X connect 18 0 29 0;
#X connect 19 0 29 0;
#X connect 20 0 30 0;
#X connect 21 0 30 0;
#X connect 22 0 31 0;
#X connect 23 0 31 0;
#X connect 24 0 17 0;
#X connect 24 1 16 0;
#X connect 25 0 19 0;
#X connect 25 1 18 0;
#X connect 26 0 21 0;
#X connect 26 1 20 0;
#X connect 27 0 23 0;
#X connect 27 1 22 0;
#X connect 28 0 38 0;
#X connect 29 0 37 0;
#X connect 30 0 40 0;
#X connect 31 0 39 0;
#X connect 32 0 12 0;
#X connect 32 0 13 0;
#X connect 32 0 14 0;
#X connect 32 0 15 0;
#X connect 32 0 24 0;
#X connect 32 0 25 0;
#X connect 32 0 26 0;
#X connect 32 0 27 0;
#X restore 956 48 pd selector8toggles;
#X obj 956 25 inlet;
#X obj 99 52 r tMean;
#X obj 106 72 r tRange;
#X obj 121 115 r lRange;
#X obj 128 135 r spMean;
#X obj 136 154 r spRange;
#X obj 145 173 r stMean;
#X obj 114 94 r lMean;
#X obj 150 192 r stRange;
#X obj 158 210 r volMean;
#X obj 165 229 r volRange;
#X obj 173 248 r panning;
#X obj 182 266 r octaveLock;
#X obj 102 28 tgl 15 0 empty empty empty 17 7 0 10 -262144 -1 -1 1
1;
#X obj 275 51 r tMean;
#X obj 282 71 r tRange;
#X obj 297 114 r lRange;
#X obj 304 134 r spMean;
#X obj 312 153 r spRange;
#X obj 321 172 r stMean;
#X obj 290 93 r lMean;
#X obj 326 191 r stRange;
#X obj 334 209 r volMean;
#X obj 341 228 r volRange;
#X obj 349 247 r panning;
#X obj 358 265 r octaveLock;
#X obj 278 27 tgl 15 0 empty empty empty 17 7 0 10 -262144 -1 -1 1
1;
#X obj 439 54 r tMean;
#X obj 446 74 r tRange;
#X obj 461 117 r lRange;
#X obj 468 137 r spMean;
#X obj 476 156 r spRange;
#X obj 485 175 r stMean;
#X obj 454 96 r lMean;
#X obj 490 194 r stRange;
#X obj 498 212 r volMean;
#X obj 505 231 r volRange;
#X obj 513 250 r panning;
#X obj 522 268 r octaveLock;
#X obj 442 30 tgl 15 0 empty empty empty 17 7 0 10 -262144 -1 -1 1
1;
#X obj 615 53 r tMean;
#X obj 622 73 r tRange;
#X obj 637 116 r lRange;
#X obj 644 136 r spMean;
#X obj 652 155 r spRange;
#X obj 661 174 r stMean;
#X obj 630 95 r lMean;
#X obj 666 193 r stRange;
#X obj 674 211 r volMean;
#X obj 681 230 r volRange;
#X obj 689 249 r panning;
#X obj 698 267 r octaveLock;
#X obj 618 29 tgl 15 0 empty empty empty 17 7 0 10 -262144 -1 -1 0
1;
#X obj 443 341 r tMean;
#X obj 450 361 r tRange;
#X obj 465 404 r lRange;
#X obj 472 424 r spMean;
#X obj 480 443 r spRange;
#X obj 489 462 r stMean;
#X obj 458 383 r lMean;
#X obj 494 481 r stRange;
#X obj 502 499 r volMean;
#X obj 509 518 r volRange;
#X obj 517 537 r panning;
#X obj 526 555 r octaveLock;
#X obj 446 317 tgl 15 0 empty empty empty 17 7 0 10 -262144 -1 -1 0
1;
#X obj 619 340 r tMean;
#X obj 626 360 r tRange;
#X obj 641 403 r lRange;
#X obj 648 423 r spMean;
#X obj 656 442 r spRange;
#X obj 665 461 r stMean;
#X obj 634 382 r lMean;
#X obj 670 480 r stRange;
#X obj 678 498 r volMean;
#X obj 685 517 r volRange;
#X obj 693 536 r panning;
#X obj 702 554 r octaveLock;
#X obj 622 316 tgl 15 0 empty empty empty 17 7 0 10 -262144 -1 -1 0
1;
#X obj 783 343 r tMean;
#X obj 790 363 r tRange;
#X obj 805 406 r lRange;
#X obj 812 426 r spMean;
#X obj 820 445 r spRange;
#X obj 829 464 r stMean;
#X obj 798 385 r lMean;
#X obj 834 483 r stRange;
#X obj 842 501 r volMean;
#X obj 849 520 r volRange;
#X obj 857 539 r panning;
#X obj 866 557 r octaveLock;
#X obj 786 319 tgl 15 0 empty empty empty 17 7 0 10 -262144 -1 -1 0
1;
#X obj 959 342 r tMean;
#X obj 966 362 r tRange;
#X obj 981 405 r lRange;
#X obj 988 425 r spMean;
#X obj 996 444 r spRange;
#X obj 1005 463 r stMean;
#X obj 974 384 r lMean;
#X obj 1010 482 r stRange;
#X obj 1018 500 r volMean;
#X obj 1025 519 r volRange;
#X obj 1033 538 r panning;
#X obj 1042 556 r octaveLock;
#X obj 962 318 tgl 15 0 empty empty empty 17 7 0 10 -262144 -1 -1 0
1;
#X obj 421 645 outlet~;
#X obj 352 646 outlet~;
#X obj 102 287 grain_a, f 25;
#X obj 279 285 grain_a, f 25;
#X obj 442 289 grain_a, f 25;
#X obj 618 288 grain_a, f 25;
#X obj 447 574 grain_a, f 25;
#X obj 622 575 grain_a, f 25;
#X obj 786 578 grain_a, f 25;
#X obj 962 577 grain_a, f 25;
#X connect 0 0 14 0;
#X connect 0 1 27 0;
#X connect 0 2 40 0;
#X connect 0 3 53 0;
#X connect 0 4 66 0;
#X connect 0 5 79 0;
#X connect 0 6 92 0;
#X connect 0 7 105 0;
#X connect 1 0 0 0;
#X connect 2 0 108 1;
#X connect 3 0 108 2;
#X connect 4 0 108 4;
#X connect 5 0 108 5;
#X connect 6 0 108 6;
#X connect 7 0 108 7;
#X connect 8 0 108 3;
#X connect 9 0 108 8;
#X connect 10 0 108 9;
#X connect 11 0 108 10;
#X connect 12 0 108 11;
#X connect 13 0 108 12;
#X connect 14 0 108 0;
#X connect 15 0 109 1;
#X connect 16 0 109 2;
#X connect 17 0 109 4;
#X connect 18 0 109 5;
#X connect 19 0 109 6;
#X connect 20 0 109 7;
#X connect 21 0 109 3;
#X connect 22 0 109 8;
#X connect 23 0 109 9;
#X connect 24 0 109 10;
#X connect 25 0 109 11;
#X connect 26 0 109 12;
#X connect 27 0 109 0;
#X connect 28 0 110 1;
#X connect 29 0 110 2;
#X connect 30 0 110 4;
#X connect 31 0 110 5;
#X connect 32 0 110 6;
#X connect 33 0 110 7;
#X connect 34 0 110 3;
#X connect 35 0 110 8;
#X connect 36 0 110 9;
#X connect 37 0 110 10;
#X connect 38 0 110 11;
#X connect 39 0 110 12;
#X connect 40 0 110 0;
#X connect 41 0 111 1;
#X connect 42 0 111 2;
#X connect 43 0 111 4;
#X connect 44 0 111 5;
#X connect 45 0 111 6;
#X connect 46 0 111 7;
#X connect 47 0 111 3;
#X connect 48 0 111 8;
#X connect 49 0 111 9;
#X connect 50 0 111 10;
#X connect 51 0 111 11;
#X connect 52 0 111 12;
#X connect 53 0 111 0;
#X connect 54 0 112 1;
#X connect 55 0 112 2;
#X connect 56 0 112 4;
#X connect 57 0 112 5;
#X connect 58 0 112 6;
#X connect 59 0 112 7;
#X connect 60 0 112 3;
#X connect 61 0 112 8;
#X connect 62 0 112 9;
#X connect 63 0 112 10;
#X connect 64 0 112 11;
#X connect 65 0 112 12;
#X connect 66 0 112 0;
#X connect 67 0 113 1;
#X connect 68 0 113 2;
#X connect 69 0 113 4;
#X connect 70 0 113 5;
#X connect 71 0 113 6;
#X connect 72 0 113 7;
#X connect 73 0 113 3;
#X connect 74 0 113 8;
#X connect 75 0 113 9;
#X connect 76 0 113 10;
#X connect 77 0 113 11;
#X connect 78 0 113 12;
#X connect 79 0 113 0;
#X connect 80 0 114 1;
#X connect 81 0 114 2;
#X connect 82 0 114 4;
#X connect 83 0 114 5;
#X connect 84 0 114 6;
#X connect 85 0 114 7;
#X connect 86 0 114 3;
#X connect 87 0 114 8;
#X connect 88 0 114 9;
#X connect 89 0 114 10;
#X connect 90 0 114 11;
#X connect 91 0 114 12;
#X connect 92 0 114 0;
#X connect 93 0 115 1;
#X connect 94 0 115 2;
#X connect 95 0 115 4;
#X connect 96 0 115 5;
#X connect 97 0 115 6;
#X connect 98 0 115 7;
#X connect 99 0 115 3;
#X connect 100 0 115 8;
#X connect 101 0 115 9;
#X connect 102 0 115 10;
#X connect 103 0 115 11;
#X connect 104 0 115 12;
#X connect 105 0 115 0;
#X connect 108 0 107 0;
#X connect 108 1 106 0;
#X connect 109 0 107 0;
#X connect 109 1 106 0;
#X connect 110 0 107 0;
#X connect 110 1 106 0;
#X connect 111 0 107 0;
#X connect 111 1 106 0;
#X connect 112 0 107 0;
#X connect 112 1 106 0;
#X connect 113 0 107 0;
#X connect 113 1 106 0;
#X connect 114 0 107 0;
#X connect 114 1 106 0;
#X connect 115 0 107 0;
#X connect 115 1 106 0;
#X restore -475 24 pd online8grains;
#X obj -475 0 r grainsNum;
#N canvas 11 23 1258 664 online8grains 0;
#N canvas 0 22 1020 608 selector8toggles 0;
#X msg 200 147 1;
#X msg 161 147 0;
#X msg 240 192 1;
#X msg 201 192 0;
#X obj 161 340 tgl 15 0 empty empty empty 17 7 0 10 -262144 -1 -1 0
1;
#X obj 184 340 tgl 15 0 empty empty empty 17 7 0 10 -262144 -1 -1 0
1;
#X obj 206 340 tgl 15 0 empty empty empty 17 7 0 10 -262144 -1 -1 0
1;
#X obj 229 340 tgl 15 0 empty empty empty 17 7 0 10 -262144 -1 -1 0
1;
#X msg 280 238 1;
#X msg 241 238 0;
#X msg 321 286 1;
#X msg 282 286 0;
#X obj 161 125 moses 1;
#X obj 201 170 moses 2;
#X obj 241 216 moses 3;
#X obj 282 264 moses 4;
#X msg 290 149 1;
#X msg 251 149 0;
#X msg 330 194 1;
#X msg 291 194 0;
#X msg 370 240 1;
#X msg 331 240 0;
#X msg 411 288 1;
#X msg 372 288 0;
#X obj 251 127 moses 5;
#X obj 291 172 moses 6;
#X obj 331 218 moses 7;
#X obj 372 266 moses 8;
#X obj 260 340 tgl 15 0 empty empty empty 17 7 0 10 -262144 -1 -1 0
1;
#X obj 283 340 tgl 15 0 empty empty empty 17 7 0 10 -262144 -1 -1 0
1;
#X obj 305 340 tgl 15 0 empty empty empty 17 7 0 10 -262144 -1 -1 0
1;
#X obj 328 340 tgl 15 0 empty empty empty 17 7 0 10 -262144 -1 -1 0
1;
#X obj 295 95 inlet;
#X obj 184 385 outlet;
#X obj 161 362 outlet;
#X obj 229 383 outlet;
#X obj 206 360 outlet;
#X obj 283 384 outlet;
#X obj 260 361 outlet;
#X obj 328 382 outlet;
#X obj 305 359 outlet;
#X connect 0 0 4 0;
#X connect 1 0 4 0;
#X connect 2 0 5 0;
#X connect 3 0 5 0;
#X connect 4 0 34 0;
#X connect 5 0 33 0;
#X connect 6 0 36 0;
#X connect 7 0 35 0;
#X connect 8 0 6 0;
#X connect 9 0 6 0;
#X connect 10 0 7 0;
#X connect 11 0 7 0;
#X connect 12 0 1 0;
#X connect 12 1 0 0;
#X connect 13 0 3 0;
#X connect 13 1 2 0;
#X connect 14 0 9 0;
#X connect 14 1 8 0;
#X connect 15 0 11 0;
#X connect 15 1 10 0;
#X connect 16 0 28 0;
#X connect 17 0 28 0;
#X connect 18 0 29 0;
#X connect 19 0 29 0;
#X connect 20 0 30 0;
#X connect 21 0 30 0;
#X connect 22 0 31 0;
#X connect 23 0 31 0;
#X connect 24 0 17 0;
#X connect 24 1 16 0;
#X connect 25 0 19 0;
#X connect 25 1 18 0;
#X connect 26 0 21 0;
#X connect 26 1 20 0;
#X connect 27 0 23 0;
#X connect 27 1 22 0;
#X connect 28 0 38 0;
#X connect 29 0 37 0;
#X connect 30 0 40 0;
#X connect 31 0 39 0;
#X connect 32 0 12 0;
#X connect 32 0 13 0;
#X connect 32 0 14 0;
#X connect 32 0 15 0;
#X connect 32 0 24 0;
#X connect 32 0 25 0;
#X connect 32 0 26 0;
#X connect 32 0 27 0;
#X restore 956 48 pd selector8toggles;
#X obj 956 25 inlet;
#X obj 99 52 r tMean;
#X obj 106 72 r tRange;
#X obj 121 115 r lRange;
#X obj 128 135 r spMean;
#X obj 136 154 r spRange;
#X obj 145 173 r stMean;
#X obj 114 94 r lMean;
#X obj 150 192 r stRange;
#X obj 158 210 r volMean;
#X obj 165 229 r volRange;
#X obj 173 248 r panning;
#X obj 182 266 r octaveLock;
#X obj 102 28 tgl 15 0 empty empty empty 17 7 0 10 -262144 -1 -1 0
1;
#X obj 275 51 r tMean;
#X obj 282 71 r tRange;
#X obj 297 114 r lRange;
#X obj 304 134 r spMean;
#X obj 312 153 r spRange;
#X obj 321 172 r stMean;
#X obj 290 93 r lMean;
#X obj 326 191 r stRange;
#X obj 334 209 r volMean;
#X obj 341 228 r volRange;
#X obj 349 247 r panning;
#X obj 358 265 r octaveLock;
#X obj 278 27 tgl 15 0 empty empty empty 17 7 0 10 -262144 -1 -1 0
1;
#X obj 439 54 r tMean;
#X obj 446 74 r tRange;
#X obj 461 117 r lRange;
#X obj 468 137 r spMean;
#X obj 476 156 r spRange;
#X obj 485 175 r stMean;
#X obj 454 96 r lMean;
#X obj 490 194 r stRange;
#X obj 498 212 r volMean;
#X obj 505 231 r volRange;
#X obj 513 250 r panning;
#X obj 522 268 r octaveLock;
#X obj 442 30 tgl 15 0 empty empty empty 17 7 0 10 -262144 -1 -1 0
1;
#X obj 615 53 r tMean;
#X obj 622 73 r tRange;
#X obj 637 116 r lRange;
#X obj 644 136 r spMean;
#X obj 652 155 r spRange;
#X obj 661 174 r stMean;
#X obj 630 95 r lMean;
#X obj 666 193 r stRange;
#X obj 674 211 r volMean;
#X obj 681 230 r volRange;
#X obj 689 249 r panning;
#X obj 698 267 r octaveLock;
#X obj 618 29 tgl 15 0 empty empty empty 17 7 0 10 -262144 -1 -1 0
1;
#X obj 443 341 r tMean;
#X obj 450 361 r tRange;
#X obj 465 404 r lRange;
#X obj 472 424 r spMean;
#X obj 480 443 r spRange;
#X obj 489 462 r stMean;
#X obj 458 383 r lMean;
#X obj 494 481 r stRange;
#X obj 502 499 r volMean;
#X obj 509 518 r volRange;
#X obj 517 537 r panning;
#X obj 526 555 r octaveLock;
#X obj 446 317 tgl 15 0 empty empty empty 17 7 0 10 -262144 -1 -1 0
1;
#X obj 619 340 r tMean;
#X obj 626 360 r tRange;
#X obj 641 403 r lRange;
#X obj 648 423 r spMean;
#X obj 656 442 r spRange;
#X obj 665 461 r stMean;
#X obj 634 382 r lMean;
#X obj 670 480 r stRange;
#X obj 678 498 r volMean;
#X obj 685 517 r volRange;
#X obj 693 536 r panning;
#X obj 702 554 r octaveLock;
#X obj 622 316 tgl 15 0 empty empty empty 17 7 0 10 -262144 -1 -1 0
1;
#X obj 783 343 r tMean;
#X obj 790 363 r tRange;
#X obj 805 406 r lRange;
#X obj 812 426 r spMean;
#X obj 820 445 r spRange;
#X obj 829 464 r stMean;
#X obj 798 385 r lMean;
#X obj 834 483 r stRange;
#X obj 842 501 r volMean;
#X obj 849 520 r volRange;
#X obj 857 539 r panning;
#X obj 866 557 r octaveLock;
#X obj 786 319 tgl 15 0 empty empty empty 17 7 0 10 -262144 -1 -1 0
1;
#X obj 959 342 r tMean;
#X obj 966 362 r tRange;
#X obj 981 405 r lRange;
#X obj 988 425 r spMean;
#X obj 996 444 r spRange;
#X obj 1005 463 r stMean;
#X obj 974 384 r lMean;
#X obj 1010 482 r stRange;
#X obj 1018 500 r volMean;
#X obj 1025 519 r volRange;
#X obj 1033 538 r panning;
#X obj 1042 556 r octaveLock;
#X obj 962 318 tgl 15 0 empty empty empty 17 7 0 10 -262144 -1 -1 0
1;
#X obj 421 645 outlet~;
#X obj 352 646 outlet~;
#X obj 102 288 grain_a, f 25;
#X obj 278 285 grain_a, f 25;
#X obj 442 289 grain_a, f 25;
#X obj 618 286 grain_a, f 25;
#X obj 446 576 grain_a, f 25;
#X obj 623 576 grain_a, f 25;
#X obj 786 578 grain_a, f 25;
#X obj 962 577 grain_a, f 25;
#X connect 0 0 14 0;
#X connect 0 1 27 0;
#X connect 0 2 40 0;
#X connect 0 3 53 0;
#X connect 0 4 66 0;
#X connect 0 5 79 0;
#X connect 0 6 92 0;
#X connect 0 7 105 0;
#X connect 1 0 0 0;
#X connect 2 0 108 1;
#X connect 3 0 108 2;
#X connect 4 0 108 4;
#X connect 5 0 108 5;
#X connect 6 0 108 6;
#X connect 7 0 108 7;
#X connect 8 0 108 3;
#X connect 9 0 108 8;
#X connect 10 0 108 9;
#X connect 11 0 108 10;
#X connect 12 0 108 11;
#X connect 13 0 108 12;
#X connect 14 0 108 0;
#X connect 15 0 109 1;
#X connect 16 0 109 2;
#X connect 17 0 109 4;
#X connect 18 0 109 5;
#X connect 19 0 109 6;
#X connect 20 0 109 7;
#X connect 21 0 109 3;
#X connect 22 0 109 8;
#X connect 23 0 109 9;
#X connect 24 0 109 10;
#X connect 25 0 109 11;
#X connect 26 0 109 12;
#X connect 27 0 109 0;
#X connect 28 0 110 1;
#X connect 29 0 110 2;
#X connect 30 0 110 4;
#X connect 31 0 110 5;
#X connect 32 0 110 6;
#X connect 33 0 110 7;
#X connect 34 0 110 3;
#X connect 35 0 110 8;
#X connect 36 0 110 9;
#X connect 37 0 110 10;
#X connect 38 0 110 11;
#X connect 39 0 110 12;
#X connect 40 0 110 0;
#X connect 41 0 111 1;
#X connect 42 0 111 2;
#X connect 43 0 111 4;
#X connect 44 0 111 5;
#X connect 45 0 111 6;
#X connect 46 0 111 7;
#X connect 47 0 111 3;
#X connect 48 0 111 8;
#X connect 49 0 111 9;
#X connect 50 0 111 10;
#X connect 51 0 111 11;
#X connect 52 0 111 12;
#X connect 53 0 111 0;
#X connect 54 0 112 1;
#X connect 55 0 112 2;
#X connect 56 0 112 4;
#X connect 57 0 112 5;
#X connect 58 0 112 6;
#X connect 59 0 112 7;
#X connect 60 0 112 3;
#X connect 61 0 112 8;
#X connect 62 0 112 9;
#X connect 63 0 112 10;
#X connect 64 0 112 11;
#X connect 65 0 112 12;
#X connect 66 0 112 0;
#X connect 67 0 113 1;
#X connect 68 0 113 2;
#X connect 69 0 113 4;
#X connect 70 0 113 5;
#X connect 71 0 113 6;
#X connect 72 0 113 7;
#X connect 73 0 113 3;
#X connect 74 0 113 8;
#X connect 75 0 113 9;
#X connect 76 0 113 10;
#X connect 77 0 113 11;
#X connect 78 0 113 12;
#X connect 79 0 113 0;
#X connect 80 0 114 1;
#X connect 81 0 114 2;
#X connect 82 0 114 4;
#X connect 83 0 114 5;
#X connect 84 0 114 6;
#X connect 85 0 114 7;
#X connect 86 0 114 3;
#X connect 87 0 114 8;
#X connect 88 0 114 9;
#X connect 89 0 114 10;
#X connect 90 0 114 11;
#X connect 91 0 114 12;
#X connect 92 0 114 0;
#X connect 93 0 115 1;
#X connect 94 0 115 2;
#X connect 95 0 115 4;
#X connect 96 0 115 5;
#X connect 97 0 115 6;
#X connect 98 0 115 7;
#X connect 99 0 115 3;
#X connect 100 0 115 8;
#X connect 101 0 115 9;
#X connect 102 0 115 10;
#X connect 103 0 115 11;
#X connect 104 0 115 12;
#X connect 105 0 115 0;
#X connect 108 0 107 0;
#X connect 108 1 106 0;
#X connect 109 0 107 0;
#X connect 109 1 106 0;
#X connect 110 0 107 0;
#X connect 110 1 106 0;
#X connect 111 0 107 0;
#X connect 111 1 106 0;
#X connect 112 0 107 0;
#X connect 112 1 106 0;
#X connect 113 0 107 0;
#X connect 113 1 106 0;
#X connect 114 0 107 0;
#X connect 114 1 106 0;
#X connect 115 0 107 0;
#X connect 115 1 106 0;
#X restore -366 22 pd online8grains;
#X obj -366 -23 r grainsNum;
#N canvas 0 23 1258 676 online8grains 0;
#N canvas 0 22 1020 608 selector8toggles 0;
#X msg 200 147 1;
#X msg 161 147 0;
#X msg 240 192 1;
#X msg 201 192 0;
#X obj 161 340 tgl 15 0 empty empty empty 17 7 0 10 -262144 -1 -1 0
1;
#X obj 184 340 tgl 15 0 empty empty empty 17 7 0 10 -262144 -1 -1 0
1;
#X obj 206 340 tgl 15 0 empty empty empty 17 7 0 10 -262144 -1 -1 0
1;
#X obj 229 340 tgl 15 0 empty empty empty 17 7 0 10 -262144 -1 -1 0
1;
#X msg 280 238 1;
#X msg 241 238 0;
#X msg 321 286 1;
#X msg 282 286 0;
#X obj 161 125 moses 1;
#X obj 201 170 moses 2;
#X obj 241 216 moses 3;
#X obj 282 264 moses 4;
#X msg 290 149 1;
#X msg 251 149 0;
#X msg 330 194 1;
#X msg 291 194 0;
#X msg 370 240 1;
#X msg 331 240 0;
#X msg 411 288 1;
#X msg 372 288 0;
#X obj 251 127 moses 5;
#X obj 291 172 moses 6;
#X obj 331 218 moses 7;
#X obj 372 266 moses 8;
#X obj 260 340 tgl 15 0 empty empty empty 17 7 0 10 -262144 -1 -1 0
1;
#X obj 283 340 tgl 15 0 empty empty empty 17 7 0 10 -262144 -1 -1 0
1;
#X obj 305 340 tgl 15 0 empty empty empty 17 7 0 10 -262144 -1 -1 0
1;
#X obj 328 340 tgl 15 0 empty empty empty 17 7 0 10 -262144 -1 -1 0
1;
#X obj 295 95 inlet;
#X obj 184 385 outlet;
#X obj 161 362 outlet;
#X obj 229 383 outlet;
#X obj 206 360 outlet;
#X obj 283 384 outlet;
#X obj 260 361 outlet;
#X obj 328 382 outlet;
#X obj 305 359 outlet;
#X connect 0 0 4 0;
#X connect 1 0 4 0;
#X connect 2 0 5 0;
#X connect 3 0 5 0;
#X connect 4 0 34 0;
#X connect 5 0 33 0;
#X connect 6 0 36 0;
#X connect 7 0 35 0;
#X connect 8 0 6 0;
#X connect 9 0 6 0;
#X connect 10 0 7 0;
#X connect 11 0 7 0;
#X connect 12 0 1 0;
#X connect 12 1 0 0;
#X connect 13 0 3 0;
#X connect 13 1 2 0;
#X connect 14 0 9 0;
#X connect 14 1 8 0;
#X connect 15 0 11 0;
#X connect 15 1 10 0;
#X connect 16 0 28 0;
#X connect 17 0 28 0;
#X connect 18 0 29 0;
#X connect 19 0 29 0;
#X connect 20 0 30 0;
#X connect 21 0 30 0;
#X connect 22 0 31 0;
#X connect 23 0 31 0;
#X connect 24 0 17 0;
#X connect 24 1 16 0;
#X connect 25 0 19 0;
#X connect 25 1 18 0;
#X connect 26 0 21 0;
#X connect 26 1 20 0;
#X connect 27 0 23 0;
#X connect 27 1 22 0;
#X connect 28 0 38 0;
#X connect 29 0 37 0;
#X connect 30 0 40 0;
#X connect 31 0 39 0;
#X connect 32 0 12 0;
#X connect 32 0 13 0;
#X connect 32 0 14 0;
#X connect 32 0 15 0;
#X connect 32 0 24 0;
#X connect 32 0 25 0;
#X connect 32 0 26 0;
#X connect 32 0 27 0;
#X restore 956 48 pd selector8toggles;
#X obj 956 25 inlet;
#X obj 99 52 r tMean;
#X obj 106 72 r tRange;
#X obj 121 115 r lRange;
#X obj 128 135 r spMean;
#X obj 136 154 r spRange;
#X obj 145 173 r stMean;
#X obj 114 94 r lMean;
#X obj 150 192 r stRange;
#X obj 158 210 r volMean;
#X obj 165 229 r volRange;
#X obj 173 248 r panning;
#X obj 182 266 r octaveLock;
#X obj 102 28 tgl 15 0 empty empty empty 17 7 0 10 -262144 -1 -1 0
1;
#X obj 275 51 r tMean;
#X obj 282 71 r tRange;
#X obj 297 114 r lRange;
#X obj 304 134 r spMean;
#X obj 312 153 r spRange;
#X obj 321 172 r stMean;
#X obj 290 93 r lMean;
#X obj 326 191 r stRange;
#X obj 334 209 r volMean;
#X obj 341 228 r volRange;
#X obj 349 247 r panning;
#X obj 358 265 r octaveLock;
#X obj 278 27 tgl 15 0 empty empty empty 17 7 0 10 -262144 -1 -1 0
1;
#X obj 439 54 r tMean;
#X obj 446 74 r tRange;
#X obj 461 117 r lRange;
#X obj 468 137 r spMean;
#X obj 476 156 r spRange;
#X obj 485 175 r stMean;
#X obj 454 96 r lMean;
#X obj 490 194 r stRange;
#X obj 498 212 r volMean;
#X obj 505 231 r volRange;
#X obj 513 250 r panning;
#X obj 522 268 r octaveLock;
#X obj 442 30 tgl 15 0 empty empty empty 17 7 0 10 -262144 -1 -1 0
1;
#X obj 615 53 r tMean;
#X obj 622 73 r tRange;
#X obj 637 116 r lRange;
#X obj 644 136 r spMean;
#X obj 652 155 r spRange;
#X obj 661 174 r stMean;
#X obj 630 95 r lMean;
#X obj 666 193 r stRange;
#X obj 674 211 r volMean;
#X obj 681 230 r volRange;
#X obj 689 249 r panning;
#X obj 698 267 r octaveLock;
#X obj 618 29 tgl 15 0 empty empty empty 17 7 0 10 -262144 -1 -1 0
1;
#X obj 443 341 r tMean;
#X obj 450 361 r tRange;
#X obj 465 404 r lRange;
#X obj 472 424 r spMean;
#X obj 480 443 r spRange;
#X obj 489 462 r stMean;
#X obj 458 383 r lMean;
#X obj 494 481 r stRange;
#X obj 502 499 r volMean;
#X obj 509 518 r volRange;
#X obj 517 537 r panning;
#X obj 526 555 r octaveLock;
#X obj 446 317 tgl 15 0 empty empty empty 17 7 0 10 -262144 -1 -1 0
1;
#X obj 619 340 r tMean;
#X obj 626 360 r tRange;
#X obj 641 403 r lRange;
#X obj 648 423 r spMean;
#X obj 656 442 r spRange;
#X obj 665 461 r stMean;
#X obj 634 382 r lMean;
#X obj 670 480 r stRange;
#X obj 678 498 r volMean;
#X obj 685 517 r volRange;
#X obj 693 536 r panning;
#X obj 702 554 r octaveLock;
#X obj 622 316 tgl 15 0 empty empty empty 17 7 0 10 -262144 -1 -1 0
1;
#X obj 783 343 r tMean;
#X obj 790 363 r tRange;
#X obj 805 406 r lRange;
#X obj 812 426 r spMean;
#X obj 820 445 r spRange;
#X obj 829 464 r stMean;
#X obj 798 385 r lMean;
#X obj 834 483 r stRange;
#X obj 842 501 r volMean;
#X obj 849 520 r volRange;
#X obj 857 539 r panning;
#X obj 866 557 r octaveLock;
#X obj 786 319 tgl 15 0 empty empty empty 17 7 0 10 -262144 -1 -1 0
1;
#X obj 959 342 r tMean;
#X obj 966 362 r tRange;
#X obj 981 405 r lRange;
#X obj 988 425 r spMean;
#X obj 996 444 r spRange;
#X obj 1005 463 r stMean;
#X obj 974 384 r lMean;
#X obj 1010 482 r stRange;
#X obj 1018 500 r volMean;
#X obj 1025 519 r volRange;
#X obj 1033 538 r panning;
#X obj 1042 556 r octaveLock;
#X obj 962 318 tgl 15 0 empty empty empty 17 7 0 10 -262144 -1 -1 0
1;
#X obj 421 645 outlet~;
#X obj 352 646 outlet~;
#X obj 102 287 grain_a, f 25;
#X obj 278 286 grain_a, f 25;
#X obj 442 288 grain_a, f 25;
#X obj 618 288 grain_a, f 25;
#X obj 446 576 grain_a, f 25;
#X obj 622 575 grain_a, f 25;
#X obj 786 578 grain_a, f 25;
#X obj 962 576 grain_a, f 25;
#X connect 0 0 14 0;
#X connect 0 1 27 0;
#X connect 0 2 40 0;
#X connect 0 3 53 0;
#X connect 0 4 66 0;
#X connect 0 5 79 0;
#X connect 0 6 92 0;
#X connect 0 7 105 0;
#X connect 1 0 0 0;
#X connect 2 0 108 1;
#X connect 3 0 108 2;
#X connect 4 0 108 4;
#X connect 5 0 108 5;
#X connect 6 0 108 6;
#X connect 7 0 108 7;
#X connect 8 0 108 3;
#X connect 9 0 108 8;
#X connect 10 0 108 9;
#X connect 11 0 108 10;
#X connect 12 0 108 11;
#X connect 13 0 108 12;
#X connect 14 0 108 0;
#X connect 15 0 109 1;
#X connect 16 0 109 2;
#X connect 17 0 109 4;
#X connect 18 0 109 5;
#X connect 19 0 109 6;
#X connect 20 0 109 7;
#X connect 21 0 109 3;
#X connect 22 0 109 8;
#X connect 23 0 109 9;
#X connect 24 0 109 10;
#X connect 25 0 109 11;
#X connect 26 0 109 12;
#X connect 27 0 109 0;
#X connect 28 0 110 1;
#X connect 29 0 110 2;
#X connect 30 0 110 4;
#X connect 31 0 110 5;
#X connect 32 0 110 6;
#X connect 33 0 110 7;
#X connect 34 0 110 3;
#X connect 35 0 110 8;
#X connect 36 0 110 9;
#X connect 37 0 110 10;
#X connect 38 0 110 11;
#X connect 39 0 110 12;
#X connect 40 0 110 0;
#X connect 41 0 111 1;
#X connect 42 0 111 2;
#X connect 43 0 111 4;
#X connect 44 0 111 5;
#X connect 45 0 111 6;
#X connect 46 0 111 7;
#X connect 47 0 111 3;
#X connect 48 0 111 8;
#X connect 49 0 111 9;
#X connect 50 0 111 10;
#X connect 51 0 111 11;
#X connect 52 0 111 12;
#X connect 53 0 111 0;
#X connect 54 0 112 1;
#X connect 55 0 112 2;
#X connect 56 0 112 4;
#X connect 57 0 112 5;
#X connect 58 0 112 6;
#X connect 59 0 112 7;
#X connect 60 0 112 3;
#X connect 61 0 112 8;
#X connect 62 0 112 9;
#X connect 63 0 112 10;
#X connect 64 0 112 11;
#X connect 65 0 112 12;
#X connect 66 0 112 0;
#X connect 67 0 113 1;
#X connect 68 0 113 2;
#X connect 69 0 113 4;
#X connect 70 0 113 5;
#X connect 71 0 113 6;
#X connect 72 0 113 7;
#X connect 73 0 113 3;
#X connect 74 0 113 8;
#X connect 75 0 113 9;
#X connect 76 0 113 10;
#X connect 77 0 113 11;
#X connect 78 0 113 12;
#X connect 79 0 113 0;
#X connect 80 0 114 1;
#X connect 81 0 114 2;
#X connect 82 0 114 4;
#X connect 83 0 114 5;
#X connect 84 0 114 6;
#X connect 85 0 114 7;
#X connect 86 0 114 3;
#X connect 87 0 114 8;
#X connect 88 0 114 9;
#X connect 89 0 114 10;
#X connect 90 0 114 11;
#X connect 91 0 114 12;
#X connect 92 0 114 0;
#X connect 93 0 115 1;
#X connect 94 0 115 2;
#X connect 95 0 115 4;
#X connect 96 0 115 5;
#X connect 97 0 115 6;
#X connect 98 0 115 7;
#X connect 99 0 115 3;
#X connect 100 0 115 8;
#X connect 101 0 115 9;
#X connect 102 0 115 10;
#X connect 103 0 115 11;
#X connect 104 0 115 12;
#X connect 105 0 115 0;
#X connect 108 0 107 0;
#X connect 108 1 106 0;
#X connect 109 0 107 0;
#X connect 109 1 106 0;
#X connect 110 0 107 0;
#X connect 110 1 106 0;
#X connect 111 0 107 0;
#X connect 111 1 106 0;
#X connect 112 0 107 0;
#X connect 112 1 106 0;
#X connect 113 0 107 0;
#X connect 113 1 106 0;
#X connect 114 0 107 0;
#X connect 114 1 106 0;
#X connect 115 0 107 0;
#X connect 115 1 106 0;
#X restore -252 21 pd online8grains;
#X obj -252 -24 r grainsNum;
#N canvas 0 23 1258 676 online8grains 0;
#N canvas 0 22 1020 608 selector8toggles 0;
#X msg 200 147 1;
#X msg 161 147 0;
#X msg 240 192 1;
#X msg 201 192 0;
#X obj 161 340 tgl 15 0 empty empty empty 17 7 0 10 -262144 -1 -1 0
1;
#X obj 184 340 tgl 15 0 empty empty empty 17 7 0 10 -262144 -1 -1 0
1;
#X obj 206 340 tgl 15 0 empty empty empty 17 7 0 10 -262144 -1 -1 0
1;
#X obj 229 340 tgl 15 0 empty empty empty 17 7 0 10 -262144 -1 -1 0
1;
#X msg 280 238 1;
#X msg 241 238 0;
#X msg 321 286 1;
#X msg 282 286 0;
#X obj 161 125 moses 1;
#X obj 201 170 moses 2;
#X obj 241 216 moses 3;
#X obj 282 264 moses 4;
#X msg 290 149 1;
#X msg 251 149 0;
#X msg 330 194 1;
#X msg 291 194 0;
#X msg 370 240 1;
#X msg 331 240 0;
#X msg 411 288 1;
#X msg 372 288 0;
#X obj 251 127 moses 5;
#X obj 291 172 moses 6;
#X obj 331 218 moses 7;
#X obj 372 266 moses 8;
#X obj 260 340 tgl 15 0 empty empty empty 17 7 0 10 -262144 -1 -1 0
1;
#X obj 283 340 tgl 15 0 empty empty empty 17 7 0 10 -262144 -1 -1 0
1;
#X obj 305 340 tgl 15 0 empty empty empty 17 7 0 10 -262144 -1 -1 0
1;
#X obj 328 340 tgl 15 0 empty empty empty 17 7 0 10 -262144 -1 -1 0
1;
#X obj 295 95 inlet;
#X obj 184 385 outlet;
#X obj 161 362 outlet;
#X obj 229 383 outlet;
#X obj 206 360 outlet;
#X obj 283 384 outlet;
#X obj 260 361 outlet;
#X obj 328 382 outlet;
#X obj 305 359 outlet;
#X connect 0 0 4 0;
#X connect 1 0 4 0;
#X connect 2 0 5 0;
#X connect 3 0 5 0;
#X connect 4 0 34 0;
#X connect 5 0 33 0;
#X connect 6 0 36 0;
#X connect 7 0 35 0;
#X connect 8 0 6 0;
#X connect 9 0 6 0;
#X connect 10 0 7 0;
#X connect 11 0 7 0;
#X connect 12 0 1 0;
#X connect 12 1 0 0;
#X connect 13 0 3 0;
#X connect 13 1 2 0;
#X connect 14 0 9 0;
#X connect 14 1 8 0;
#X connect 15 0 11 0;
#X connect 15 1 10 0;
#X connect 16 0 28 0;
#X connect 17 0 28 0;
#X connect 18 0 29 0;
#X connect 19 0 29 0;
#X connect 20 0 30 0;
#X connect 21 0 30 0;
#X connect 22 0 31 0;
#X connect 23 0 31 0;
#X connect 24 0 17 0;
#X connect 24 1 16 0;
#X connect 25 0 19 0;
#X connect 25 1 18 0;
#X connect 26 0 21 0;
#X connect 26 1 20 0;
#X connect 27 0 23 0;
#X connect 27 1 22 0;
#X connect 28 0 38 0;
#X connect 29 0 37 0;
#X connect 30 0 40 0;
#X connect 31 0 39 0;
#X connect 32 0 12 0;
#X connect 32 0 13 0;
#X connect 32 0 14 0;
#X connect 32 0 15 0;
#X connect 32 0 24 0;
#X connect 32 0 25 0;
#X connect 32 0 26 0;
#X connect 32 0 27 0;
#X restore 956 48 pd selector8toggles;
#X obj 956 25 inlet;
#X obj 99 52 r tMean;
#X obj 106 72 r tRange;
#X obj 121 115 r lRange;
#X obj 128 135 r spMean;
#X obj 136 154 r spRange;
#X obj 145 173 r stMean;
#X obj 114 94 r lMean;
#X obj 150 192 r stRange;
#X obj 158 210 r volMean;
#X obj 165 229 r volRange;
#X obj 173 248 r panning;
#X obj 182 266 r octaveLock;
#X obj 102 28 tgl 15 0 empty empty empty 17 7 0 10 -262144 -1 -1 0
1;
#X obj 275 51 r tMean;
#X obj 282 71 r tRange;
#X obj 297 114 r lRange;
#X obj 304 134 r spMean;
#X obj 312 153 r spRange;
#X obj 321 172 r stMean;
#X obj 290 93 r lMean;
#X obj 326 191 r stRange;
#X obj 334 209 r volMean;
#X obj 341 228 r volRange;
#X obj 349 247 r panning;
#X obj 358 265 r octaveLock;
#X obj 278 27 tgl 15 0 empty empty empty 17 7 0 10 -262144 -1 -1 0
1;
#X obj 439 54 r tMean;
#X obj 446 74 r tRange;
#X obj 461 117 r lRange;
#X obj 468 137 r spMean;
#X obj 476 156 r spRange;
#X obj 485 175 r stMean;
#X obj 454 96 r lMean;
#X obj 490 194 r stRange;
#X obj 498 212 r volMean;
#X obj 505 231 r volRange;
#X obj 513 250 r panning;
#X obj 522 268 r octaveLock;
#X obj 442 30 tgl 15 0 empty empty empty 17 7 0 10 -262144 -1 -1 0
1;
#X obj 615 53 r tMean;
#X obj 622 73 r tRange;
#X obj 637 116 r lRange;
#X obj 644 136 r spMean;
#X obj 652 155 r spRange;
#X obj 661 174 r stMean;
#X obj 630 95 r lMean;
#X obj 666 193 r stRange;
#X obj 674 211 r volMean;
#X obj 681 230 r volRange;
#X obj 689 249 r panning;
#X obj 698 267 r octaveLock;
#X obj 618 29 tgl 15 0 empty empty empty 17 7 0 10 -262144 -1 -1 0
1;
#X obj 443 341 r tMean;
#X obj 450 361 r tRange;
#X obj 465 404 r lRange;
#X obj 472 424 r spMean;
#X obj 480 443 r spRange;
#X obj 489 462 r stMean;
#X obj 458 383 r lMean;
#X obj 494 481 r stRange;
#X obj 502 499 r volMean;
#X obj 509 518 r volRange;
#X obj 517 537 r panning;
#X obj 526 555 r octaveLock;
#X obj 446 317 tgl 15 0 empty empty empty 17 7 0 10 -262144 -1 -1 0
1;
#X obj 619 340 r tMean;
#X obj 626 360 r tRange;
#X obj 641 403 r lRange;
#X obj 648 423 r spMean;
#X obj 656 442 r spRange;
#X obj 665 461 r stMean;
#X obj 634 382 r lMean;
#X obj 670 480 r stRange;
#X obj 678 498 r volMean;
#X obj 685 517 r volRange;
#X obj 693 536 r panning;
#X obj 702 554 r octaveLock;
#X obj 622 316 tgl 15 0 empty empty empty 17 7 0 10 -262144 -1 -1 0
1;
#X obj 783 343 r tMean;
#X obj 790 363 r tRange;
#X obj 805 406 r lRange;
#X obj 812 426 r spMean;
#X obj 820 445 r spRange;
#X obj 829 464 r stMean;
#X obj 798 385 r lMean;
#X obj 834 483 r stRange;
#X obj 842 501 r volMean;
#X obj 849 520 r volRange;
#X obj 857 539 r panning;
#X obj 866 557 r octaveLock;
#X obj 786 319 tgl 15 0 empty empty empty 17 7 0 10 -262144 -1 -1 0
1;
#X obj 959 342 r tMean;
#X obj 966 362 r tRange;
#X obj 981 405 r lRange;
#X obj 988 425 r spMean;
#X obj 996 444 r spRange;
#X obj 1005 463 r stMean;
#X obj 974 384 r lMean;
#X obj 1010 482 r stRange;
#X obj 1018 500 r volMean;
#X obj 1025 519 r volRange;
#X obj 1033 538 r panning;
#X obj 1042 556 r octaveLock;
#X obj 962 318 tgl 15 0 empty empty empty 17 7 0 10 -262144 -1 -1 0
1;
#X obj 421 645 outlet~;
#X obj 352 646 outlet~;
#X obj 102 286 grain_a, f 25;
#X obj 278 289 grain_a, f 25;
#X obj 442 288 grain_a, f 25;
#X obj 619 288 grain_a, f 25;
#X obj 447 575 grain_a, f 25;
#X obj 622 574 grain_a, f 25;
#X obj 962 576 grain_a, f 25;
#X obj 786 577 grain_a, f 25;
#X connect 0 0 14 0;
#X connect 0 1 27 0;
#X connect 0 2 40 0;
#X connect 0 3 53 0;
#X connect 0 4 66 0;
#X connect 0 5 79 0;
#X connect 0 6 92 0;
#X connect 0 7 105 0;
#X connect 1 0 0 0;
#X connect 2 0 108 1;
#X connect 3 0 108 2;
#X connect 4 0 108 4;
#X connect 5 0 108 5;
#X connect 6 0 108 6;
#X connect 7 0 108 7;
#X connect 8 0 108 3;
#X connect 9 0 108 8;
#X connect 10 0 108 9;
#X connect 11 0 108 10;
#X connect 12 0 108 11;
#X connect 13 0 108 12;
#X connect 14 0 108 0;
#X connect 15 0 109 1;
#X connect 16 0 109 2;
#X connect 17 0 109 4;
#X connect 18 0 109 5;
#X connect 19 0 109 6;
#X connect 20 0 109 7;
#X connect 21 0 109 3;
#X connect 22 0 109 8;
#X connect 23 0 109 9;
#X connect 24 0 109 10;
#X connect 25 0 109 11;
#X connect 26 0 109 12;
#X connect 27 0 109 0;
#X connect 28 0 110 1;
#X connect 29 0 110 2;
#X connect 30 0 110 4;
#X connect 31 0 110 5;
#X connect 32 0 110 6;
#X connect 33 0 110 7;
#X connect 34 0 110 3;
#X connect 35 0 110 8;
#X connect 36 0 110 9;
#X connect 37 0 110 10;
#X connect 38 0 110 11;
#X connect 39 0 110 12;
#X connect 40 0 110 0;
#X connect 41 0 111 1;
#X connect 42 0 111 2;
#X connect 43 0 111 4;
#X connect 44 0 111 5;
#X connect 45 0 111 6;
#X connect 46 0 111 7;
#X connect 47 0 111 3;
#X connect 48 0 111 8;
#X connect 49 0 111 9;
#X connect 50 0 111 10;
#X connect 51 0 111 11;
#X connect 52 0 111 12;
#X connect 53 0 111 0;
#X connect 54 0 112 1;
#X connect 55 0 112 2;
#X connect 56 0 112 4;
#X connect 57 0 112 5;
#X connect 58 0 112 6;
#X connect 59 0 112 7;
#X connect 60 0 112 3;
#X connect 61 0 112 8;
#X connect 62 0 112 9;
#X connect 63 0 112 10;
#X connect 64 0 112 11;
#X connect 65 0 112 12;
#X connect 66 0 112 0;
#X connect 67 0 113 1;
#X connect 68 0 113 2;
#X connect 69 0 113 4;
#X connect 70 0 113 5;
#X connect 71 0 113 6;
#X connect 72 0 113 7;
#X connect 73 0 113 3;
#X connect 74 0 113 8;
#X connect 75 0 113 9;
#X connect 76 0 113 10;
#X connect 77 0 113 11;
#X connect 78 0 113 12;
#X connect 79 0 113 0;
#X connect 80 0 115 1;
#X connect 81 0 115 2;
#X connect 82 0 115 4;
#X connect 83 0 115 5;
#X connect 84 0 115 6;
#X connect 85 0 115 7;
#X connect 86 0 115 3;
#X connect 87 0 115 8;
#X connect 88 0 115 9;
#X connect 89 0 115 10;
#X connect 90 0 115 11;
#X connect 91 0 115 12;
#X connect 92 0 115 0;
#X connect 93 0 114 1;
#X connect 94 0 114 2;
#X connect 95 0 114 4;
#X connect 96 0 114 5;
#X connect 97 0 114 6;
#X connect 98 0 114 7;
#X connect 99 0 114 3;
#X connect 100 0 114 8;
#X connect 101 0 114 9;
#X connect 102 0 114 10;
#X connect 103 0 114 11;
#X connect 104 0 114 12;
#X connect 105 0 114 0;
#X connect 108 0 107 0;
#X connect 108 1 106 0;
#X connect 109 0 107 0;
#X connect 109 1 106 0;
#X connect 110 0 107 0;
#X connect 110 1 106 0;
#X connect 111 0 107 0;
#X connect 111 1 106 0;
#X connect 112 0 107 0;
#X connect 112 1 106 0;
#X connect 113 0 107 0;
#X connect 113 1 106 0;
#X connect 114 0 107 0;
#X connect 114 1 106 0;
#X connect 115 0 107 0;
#X connect 115 1 106 0;
#X restore -444 103 pd online8grains;
#X obj -444 58 r grainsNum;
#N canvas 11 23 1258 664 online8grains 0;
#N canvas 0 22 1020 608 selector8toggles 0;
#X msg 200 147 1;
#X msg 161 147 0;
#X msg 240 192 1;
#X msg 201 192 0;
#X obj 161 340 tgl 15 0 empty empty empty 17 7 0 10 -262144 -1 -1 0
1;
#X obj 184 340 tgl 15 0 empty empty empty 17 7 0 10 -262144 -1 -1 0
1;
#X obj 206 340 tgl 15 0 empty empty empty 17 7 0 10 -262144 -1 -1 0
1;
#X obj 229 340 tgl 15 0 empty empty empty 17 7 0 10 -262144 -1 -1 0
1;
#X msg 280 238 1;
#X msg 241 238 0;
#X msg 321 286 1;
#X msg 282 286 0;
#X obj 161 125 moses 1;
#X obj 201 170 moses 2;
#X obj 241 216 moses 3;
#X obj 282 264 moses 4;
#X msg 290 149 1;
#X msg 251 149 0;
#X msg 330 194 1;
#X msg 291 194 0;
#X msg 370 240 1;
#X msg 331 240 0;
#X msg 411 288 1;
#X msg 372 288 0;
#X obj 251 127 moses 5;
#X obj 291 172 moses 6;
#X obj 331 218 moses 7;
#X obj 372 266 moses 8;
#X obj 260 340 tgl 15 0 empty empty empty 17 7 0 10 -262144 -1 -1 0
1;
#X obj 283 340 tgl 15 0 empty empty empty 17 7 0 10 -262144 -1 -1 0
1;
#X obj 305 340 tgl 15 0 empty empty empty 17 7 0 10 -262144 -1 -1 0
1;
#X obj 328 340 tgl 15 0 empty empty empty 17 7 0 10 -262144 -1 -1 0
1;
#X obj 295 95 inlet;
#X obj 184 385 outlet;
#X obj 161 362 outlet;
#X obj 229 383 outlet;
#X obj 206 360 outlet;
#X obj 283 384 outlet;
#X obj 260 361 outlet;
#X obj 328 382 outlet;
#X obj 305 359 outlet;
#X connect 0 0 4 0;
#X connect 1 0 4 0;
#X connect 2 0 5 0;
#X connect 3 0 5 0;
#X connect 4 0 34 0;
#X connect 5 0 33 0;
#X connect 6 0 36 0;
#X connect 7 0 35 0;
#X connect 8 0 6 0;
#X connect 9 0 6 0;
#X connect 10 0 7 0;
#X connect 11 0 7 0;
#X connect 12 0 1 0;
#X connect 12 1 0 0;
#X connect 13 0 3 0;
#X connect 13 1 2 0;
#X connect 14 0 9 0;
#X connect 14 1 8 0;
#X connect 15 0 11 0;
#X connect 15 1 10 0;
#X connect 16 0 28 0;
#X connect 17 0 28 0;
#X connect 18 0 29 0;
#X connect 19 0 29 0;
#X connect 20 0 30 0;
#X connect 21 0 30 0;
#X connect 22 0 31 0;
#X connect 23 0 31 0;
#X connect 24 0 17 0;
#X connect 24 1 16 0;
#X connect 25 0 19 0;
#X connect 25 1 18 0;
#X connect 26 0 21 0;
#X connect 26 1 20 0;
#X connect 27 0 23 0;
#X connect 27 1 22 0;
#X connect 28 0 38 0;
#X connect 29 0 37 0;
#X connect 30 0 40 0;
#X connect 31 0 39 0;
#X connect 32 0 12 0;
#X connect 32 0 13 0;
#X connect 32 0 14 0;
#X connect 32 0 15 0;
#X connect 32 0 24 0;
#X connect 32 0 25 0;
#X connect 32 0 26 0;
#X connect 32 0 27 0;
#X restore 956 48 pd selector8toggles;
#X obj 956 25 inlet;
#X obj 99 52 r tMean;
#X obj 106 72 r tRange;
#X obj 121 115 r lRange;
#X obj 128 135 r spMean;
#X obj 136 154 r spRange;
#X obj 145 173 r stMean;
#X obj 114 94 r lMean;
#X obj 150 192 r stRange;
#X obj 158 210 r volMean;
#X obj 165 229 r volRange;
#X obj 173 248 r panning;
#X obj 182 266 r octaveLock;
#X obj 102 28 tgl 15 0 empty empty empty 17 7 0 10 -262144 -1 -1 0
1;
#X obj 275 51 r tMean;
#X obj 282 71 r tRange;
#X obj 297 114 r lRange;
#X obj 304 134 r spMean;
#X obj 312 153 r spRange;
#X obj 321 172 r stMean;
#X obj 290 93 r lMean;
#X obj 326 191 r stRange;
#X obj 334 209 r volMean;
#X obj 341 228 r volRange;
#X obj 349 247 r panning;
#X obj 358 265 r octaveLock;
#X obj 278 27 tgl 15 0 empty empty empty 17 7 0 10 -262144 -1 -1 0
1;
#X obj 439 54 r tMean;
#X obj 446 74 r tRange;
#X obj 461 117 r lRange;
#X obj 468 137 r spMean;
#X obj 476 156 r spRange;
#X obj 485 175 r stMean;
#X obj 454 96 r lMean;
#X obj 490 194 r stRange;
#X obj 498 212 r volMean;
#X obj 505 231 r volRange;
#X obj 513 250 r panning;
#X obj 522 268 r octaveLock;
#X obj 442 30 tgl 15 0 empty empty empty 17 7 0 10 -262144 -1 -1 0
1;
#X obj 615 53 r tMean;
#X obj 622 73 r tRange;
#X obj 637 116 r lRange;
#X obj 644 136 r spMean;
#X obj 652 155 r spRange;
#X obj 661 174 r stMean;
#X obj 630 95 r lMean;
#X obj 666 193 r stRange;
#X obj 674 211 r volMean;
#X obj 681 230 r volRange;
#X obj 689 249 r panning;
#X obj 698 267 r octaveLock;
#X obj 618 29 tgl 15 0 empty empty empty 17 7 0 10 -262144 -1 -1 0
1;
#X obj 443 341 r tMean;
#X obj 450 361 r tRange;
#X obj 465 404 r lRange;
#X obj 472 424 r spMean;
#X obj 480 443 r spRange;
#X obj 489 462 r stMean;
#X obj 458 383 r lMean;
#X obj 494 481 r stRange;
#X obj 502 499 r volMean;
#X obj 509 518 r volRange;
#X obj 517 537 r panning;
#X obj 526 555 r octaveLock;
#X obj 446 317 tgl 15 0 empty empty empty 17 7 0 10 -262144 -1 -1 0
1;
#X obj 619 340 r tMean;
#X obj 626 360 r tRange;
#X obj 641 403 r lRange;
#X obj 648 423 r spMean;
#X obj 656 442 r spRange;
#X obj 665 461 r stMean;
#X obj 634 382 r lMean;
#X obj 670 480 r stRange;
#X obj 678 498 r volMean;
#X obj 685 517 r volRange;
#X obj 693 536 r panning;
#X obj 702 554 r octaveLock;
#X obj 622 316 tgl 15 0 empty empty empty 17 7 0 10 -262144 -1 -1 0
1;
#X obj 783 343 r tMean;
#X obj 790 363 r tRange;
#X obj 805 406 r lRange;
#X obj 812 426 r spMean;
#X obj 820 445 r spRange;
#X obj 829 464 r stMean;
#X obj 798 385 r lMean;
#X obj 834 483 r stRange;
#X obj 842 501 r volMean;
#X obj 849 520 r volRange;
#X obj 857 539 r panning;
#X obj 866 557 r octaveLock;
#X obj 786 319 tgl 15 0 empty empty empty 17 7 0 10 -262144 -1 -1 0
1;
#X obj 959 342 r tMean;
#X obj 966 362 r tRange;
#X obj 981 405 r lRange;
#X obj 988 425 r spMean;
#X obj 996 444 r spRange;
#X obj 1005 463 r stMean;
#X obj 974 384 r lMean;
#X obj 1010 482 r stRange;
#X obj 1018 500 r volMean;
#X obj 1025 519 r volRange;
#X obj 1033 538 r panning;
#X obj 1042 556 r octaveLock;
#X obj 962 318 tgl 15 0 empty empty empty 17 7 0 10 -262144 -1 -1 0
1;
#X obj 421 645 outlet~;
#X obj 352 646 outlet~;
#X obj 102 287 grain_a, f 25;
#X obj 278 286 grain_a, f 25;
#X obj 442 289 grain_a, f 25;
#X obj 618 288 grain_a, f 25;
#X obj 447 576 grain_a, f 25;
#X obj 624 574 grain_a, f 25;
#X obj 786 578 grain_a, f 25;
#X obj 962 577 grain_a, f 25;
#X connect 0 0 14 0;
#X connect 0 1 27 0;
#X connect 0 2 40 0;
#X connect 0 3 53 0;
#X connect 0 4 66 0;
#X connect 0 5 79 0;
#X connect 0 6 92 0;
#X connect 0 7 105 0;
#X connect 1 0 0 0;
#X connect 2 0 108 1;
#X connect 3 0 108 2;
#X connect 4 0 108 4;
#X connect 5 0 108 5;
#X connect 6 0 108 6;
#X connect 7 0 108 7;
#X connect 8 0 108 3;
#X connect 9 0 108 8;
#X connect 10 0 108 9;
#X connect 11 0 108 10;
#X connect 12 0 108 11;
#X connect 13 0 108 12;
#X connect 14 0 108 0;
#X connect 15 0 109 1;
#X connect 16 0 109 2;
#X connect 17 0 109 4;
#X connect 18 0 109 5;
#X connect 19 0 109 6;
#X connect 20 0 109 7;
#X connect 21 0 109 3;
#X connect 22 0 109 8;
#X connect 23 0 109 9;
#X connect 24 0 109 10;
#X connect 25 0 109 11;
#X connect 26 0 109 12;
#X connect 27 0 109 0;
#X connect 28 0 110 1;
#X connect 29 0 110 2;
#X connect 30 0 110 4;
#X connect 31 0 110 5;
#X connect 32 0 110 6;
#X connect 33 0 110 7;
#X connect 34 0 110 3;
#X connect 35 0 110 8;
#X connect 36 0 110 9;
#X connect 37 0 110 10;
#X connect 38 0 110 11;
#X connect 39 0 110 12;
#X connect 40 0 110 0;
#X connect 41 0 111 1;
#X connect 42 0 111 2;
#X connect 43 0 111 4;
#X connect 44 0 111 5;
#X connect 45 0 111 6;
#X connect 46 0 111 7;
#X connect 47 0 111 3;
#X connect 48 0 111 8;
#X connect 49 0 111 9;
#X connect 50 0 111 10;
#X connect 51 0 111 11;
#X connect 52 0 111 12;
#X connect 53 0 111 0;
#X connect 54 0 112 1;
#X connect 55 0 112 2;
#X connect 56 0 112 4;
#X connect 57 0 112 5;
#X connect 58 0 112 6;
#X connect 59 0 112 7;
#X connect 60 0 112 3;
#X connect 61 0 112 8;
#X connect 62 0 112 9;
#X connect 63 0 112 10;
#X connect 64 0 112 11;
#X connect 65 0 112 12;
#X connect 66 0 112 0;
#X connect 67 0 113 1;
#X connect 68 0 113 2;
#X connect 69 0 113 4;
#X connect 70 0 113 5;
#X connect 71 0 113 6;
#X connect 72 0 113 7;
#X connect 73 0 113 3;
#X connect 74 0 113 8;
#X connect 75 0 113 9;
#X connect 76 0 113 10;
#X connect 77 0 113 11;
#X connect 78 0 113 12;
#X connect 79 0 113 0;
#X connect 80 0 114 1;
#X connect 81 0 114 2;
#X connect 82 0 114 4;
#X connect 83 0 114 5;
#X connect 84 0 114 6;
#X connect 85 0 114 7;
#X connect 86 0 114 3;
#X connect 87 0 114 8;
#X connect 88 0 114 9;
#X connect 89 0 114 10;
#X connect 90 0 114 11;
#X connect 91 0 114 12;
#X connect 92 0 114 0;
#X connect 93 0 115 1;
#X connect 94 0 115 2;
#X connect 95 0 115 4;
#X connect 96 0 115 5;
#X connect 97 0 115 6;
#X connect 98 0 115 7;
#X connect 99 0 115 3;
#X connect 100 0 115 8;
#X connect 101 0 115 9;
#X connect 102 0 115 10;
#X connect 103 0 115 11;
#X connect 104 0 115 12;
#X connect 105 0 115 0;
#X connect 108 0 107 0;
#X connect 108 1 106 0;
#X connect 109 0 107 0;
#X connect 109 1 106 0;
#X connect 110 0 107 0;
#X connect 110 1 106 0;
#X connect 111 0 107 0;
#X connect 111 1 106 0;
#X connect 112 0 107 0;
#X connect 112 1 106 0;
#X connect 113 0 107 0;
#X connect 113 1 106 0;
#X connect 114 0 107 0;
#X connect 114 1 106 0;
#X connect 115 0 107 0;
#X connect 115 1 106 0;
#X restore -330 102 pd online8grains;
#X obj -330 57 r grainsNum;
#X obj -283 156 r grainsNum;
#X obj -165 158 r grainsNum;
#X obj -186 223 /~ 1;
#X obj -304 220 /~ 1;
#X obj -283 199 max 1;
#X obj -165 201 max 1;
#X obj -283 178 / 8;
#X obj -165 180 / 8;
#X obj -186 353 inlet~;
#X obj -260 296 outlet~;
#X obj -184 292 outlet~;
#X obj -364 -2 - 8;
#X obj -252 -2 - 16;
#X obj -444 80 - 24;
#X obj -330 79 - 32;
#X obj 108 448 hsl 100 12 0 32 0 0 empty empty empty -2 -8 0 10 -33289
-262144 -1 928 1;
#X obj 108 413 hsl 100 12 0 1 0 0 empty panningH empty -2 -8 0 10 -33289
-262144 -1 9900 1;
#X obj 108 378 hsl 100 12 0 1 0 0 empty spRangeH empty -2 -8 0 10 -33289
-262144 -1 9900 1;
#X obj 108 362 hsl 100 12 0 1 0 0 empty spMeanH empty -2 -8 0 10 -33289
-262144 -1 9900 1;
#X obj 106 311 hsl 100 12 0 1 0 0 empty volMeanH empty -2 -8 0 10 -33289
-262144 -1 99 1;
#X obj 108 328 hsl 100 12 0 1 0 0 empty volRangeH empty -2 -8 0 10
-33289 -262144 -1 99 1;
#X obj 108 262 hsl 100 12 0 1 0 0 empty tMeanH empty -2 -8 0 10 -33289
-262144 -1 99 1;
#X obj 108 278 hsl 100 12 0 1 0 0 empty tRangeH empty -2 -8 0 10 -33289
-262144 -1 9900 1;
#X obj 108 210 hsl 100 12 0 1 0 0 empty lMeanH empty -2 -8 0 10 -33289
-262144 -1 9900 1;
#X obj 108 226 hsl 100 12 0 1 0 0 empty lRangeH empty -2 -8 0 10 -33289
-262144 -1 99 1;
#X obj 107 157 hsl 100 12 0 1 0 0 empty stMeanH empty -2 -8 0 10 -33289
-262144 -1 99 1;
#X obj 107 174 hsl 100 12 0 1 0 0 empty stRangeH empty -2 -8 0 10 -33289
-262144 -1 9900 1;
#X text 106 136 Start min./range;
#X text 107 190 Length min./range;
#X text 107 242 Time min./range;
#X text 107 294 Vol. min./range;
#X text 107 344 Speed min./range;
#X text 108 394 Panning;
#X text 108 429 Grains num. (0-32);
#X obj 108 465 nbx 5 14 -1e+37 1e+37 0 0 empty empty empty 0 -8 0 10
-33289 -262144 -1 3 256 0;
#X obj 35 474 int;
#X text 148 108 GRANULATOR;
#X obj 134 512 hradio 15 0 0 8 empty empty empty 0 -8 0 10 -33289 -262144
-1 6;
#X text 148 481 PRESETS;
#X obj 134 538 nbx 5 14 -1e+37 1e+37 0 0 empty empty empty 0 -8 0 10
-33289 -262144 -1 6 256 0;
#X obj 29 266 + 5;
#X obj 29 242 * 1995;
#X obj 27 290 * 2000;
#X obj 236 371 * 20;
#X obj 236 400 * 20;
#X obj 30 524 - 1;
#N canvas 11 23 994 435 routing-parameters 0;
#X obj 118 51 text get presets-granulation-a;
#X floatatom 117 29 5 0 0 0 - - -, f 5;
#X obj 118 75 unpack f f f f f f f f f f f f;
#X obj 116 6 inlet;
#N canvas 0 22 450 300 gate 0;
#X obj 54 -6 gate 2;
#X obj 110 87 random;
#X obj 110 59 metro 1000;
#X obj 110 38 tgl 15 0 empty empty empty 17 7 0 10 -262144 -1 -1 0
1;
#X floatatom 110 109 5 0 0 0 - - -, f 5;
#X obj 110 129 +;
#X obj 157 112 / 2;
#X obj 87 16 t f f f;
#X obj 54 224 outlet;
#X obj 108 179 line;
#X floatatom 108 201 5 0 0 0 - - -, f 5;
#X msg 109 152 \$1 500;
#X obj 47 -29 inlet;
#X obj 94 -29 inlet;
#X connect 0 0 8 0;
#X connect 0 1 7 0;
#X connect 1 0 4 0;
#X connect 2 0 1 0;
#X connect 3 0 2 0;
#X connect 4 0 5 0;
#X connect 5 0 11 0;
#X connect 6 0 5 1;
#X connect 7 0 8 0;
#X connect 7 1 1 1;
#X connect 7 2 6 0;
#X connect 9 0 10 0;
#X connect 10 0 8 0;
#X connect 11 0 9 0;
#X connect 12 0 0 0;
#X connect 13 0 0 1;
#X restore 79 120 pd gate;
#X obj 79 143 outlet;
#N canvas 0 22 450 300 gate 0;
#X obj 54 -6 gate 2;
#X obj 110 87 random;
#X obj 110 59 metro 1000;
#X obj 110 38 tgl 15 0 empty empty empty 17 7 0 10 -262144 -1 -1 0
1;
#X floatatom 110 109 5 0 0 0 - - -, f 5;
#X obj 110 129 +;
#X obj 157 112 / 2;
#X obj 87 16 t f f f;
#X obj 54 224 outlet;
#X obj 108 179 line;
#X floatatom 108 201 5 0 0 0 - - -, f 5;
#X msg 109 152 \$1 500;
#X obj 47 -29 inlet;
#X obj 94 -29 inlet;
#X connect 0 0 8 0;
#X connect 0 1 7 0;
#X connect 1 0 4 0;
#X connect 2 0 1 0;
#X connect 3 0 2 0;
#X connect 4 0 5 0;
#X connect 5 0 11 0;
#X connect 6 0 5 1;
#X connect 7 0 8 0;
#X connect 7 1 1 1;
#X connect 7 2 6 0;
#X connect 9 0 10 0;
#X connect 10 0 8 0;
#X connect 11 0 9 0;
#X connect 12 0 0 0;
#X connect 13 0 0 1;
#X restore 132 120 pd gate;
#X obj 132 143 outlet;
#N canvas 0 22 450 300 gate 0;
#X obj 54 -6 gate 2;
#X obj 110 87 random;
#X obj 110 59 metro 1000;
#X obj 110 38 tgl 15 0 empty empty empty 17 7 0 10 -262144 -1 -1 0
1;
#X floatatom 110 109 5 0 0 0 - - -, f 5;
#X obj 110 129 +;
#X obj 157 112 / 2;
#X obj 87 16 t f f f;
#X obj 54 224 outlet;
#X obj 108 179 line;
#X floatatom 108 201 5 0 0 0 - - -, f 5;
#X msg 109 152 \$1 500;
#X obj 47 -29 inlet;
#X obj 94 -29 inlet;
#X connect 0 0 8 0;
#X connect 0 1 7 0;
#X connect 1 0 4 0;
#X connect 2 0 1 0;
#X connect 3 0 2 0;
#X connect 4 0 5 0;
#X connect 5 0 11 0;
#X connect 6 0 5 1;
#X connect 7 0 8 0;
#X connect 7 1 1 1;
#X connect 7 2 6 0;
#X connect 9 0 10 0;
#X connect 10 0 8 0;
#X connect 11 0 9 0;
#X connect 12 0 0 0;
#X connect 13 0 0 1;
#X restore 187 120 pd gate;
#X obj 187 143 outlet;
#N canvas 0 22 450 300 gate 0;
#X obj 54 -6 gate 2;
#X obj 110 87 random;
#X obj 110 59 metro 1000;
#X obj 110 38 tgl 15 0 empty empty empty 17 7 0 10 -262144 -1 -1 0
1;
#X floatatom 110 109 5 0 0 0 - - -, f 5;
#X obj 110 129 +;
#X obj 157 112 / 2;
#X obj 87 16 t f f f;
#X obj 54 224 outlet;
#X obj 108 179 line;
#X floatatom 108 201 5 0 0 0 - - -, f 5;
#X msg 109 152 \$1 500;
#X obj 47 -29 inlet;
#X obj 94 -29 inlet;
#X connect 0 0 8 0;
#X connect 0 1 7 0;
#X connect 1 0 4 0;
#X connect 2 0 1 0;
#X connect 3 0 2 0;
#X connect 4 0 5 0;
#X connect 5 0 11 0;
#X connect 6 0 5 1;
#X connect 7 0 8 0;
#X connect 7 1 1 1;
#X connect 7 2 6 0;
#X connect 9 0 10 0;
#X connect 10 0 8 0;
#X connect 11 0 9 0;
#X connect 12 0 0 0;
#X connect 13 0 0 1;
#X restore 240 120 pd gate;
#X obj 240 143 outlet;
#N canvas 0 22 450 300 gate 0;
#X obj 54 -6 gate 2;
#X obj 110 87 random;
#X obj 110 59 metro 1000;
#X obj 110 38 tgl 15 0 empty empty empty 17 7 0 10 -262144 -1 -1 0
1;
#X floatatom 110 109 5 0 0 0 - - -, f 5;
#X obj 110 129 +;
#X obj 157 112 / 2;
#X obj 87 16 t f f f;
#X obj 54 224 outlet;
#X obj 108 179 line;
#X floatatom 108 201 5 0 0 0 - - -, f 5;
#X msg 109 152 \$1 500;
#X obj 47 -29 inlet;
#X obj 94 -29 inlet;
#X connect 0 0 8 0;
#X connect 0 1 7 0;
#X connect 1 0 4 0;
#X connect 2 0 1 0;
#X connect 3 0 2 0;
#X connect 4 0 5 0;
#X connect 5 0 11 0;
#X connect 6 0 5 1;
#X connect 7 0 8 0;
#X connect 7 1 1 1;
#X connect 7 2 6 0;
#X connect 9 0 10 0;
#X connect 10 0 8 0;
#X connect 11 0 9 0;
#X connect 12 0 0 0;
#X connect 13 0 0 1;
#X restore 293 120 pd gate;
#X obj 293 143 outlet;
#N canvas 0 22 450 300 gate 0;
#X obj 54 -6 gate 2;
#X obj 110 87 random;
#X obj 110 59 metro 1000;
#X obj 110 38 tgl 15 0 empty empty empty 17 7 0 10 -262144 -1 -1 0
1;
#X floatatom 110 109 5 0 0 0 - - -, f 5;
#X obj 110 129 +;
#X obj 157 112 / 2;
#X obj 87 16 t f f f;
#X obj 54 224 outlet;
#X obj 108 179 line;
#X floatatom 108 201 5 0 0 0 - - -, f 5;
#X msg 109 152 \$1 500;
#X obj 47 -29 inlet;
#X obj 94 -29 inlet;
#X connect 0 0 8 0;
#X connect 0 1 7 0;
#X connect 1 0 4 0;
#X connect 2 0 1 0;
#X connect 3 0 2 0;
#X connect 4 0 5 0;
#X connect 5 0 11 0;
#X connect 6 0 5 1;
#X connect 7 0 8 0;
#X connect 7 1 1 1;
#X connect 7 2 6 0;
#X connect 9 0 10 0;
#X connect 10 0 8 0;
#X connect 11 0 9 0;
#X connect 12 0 0 0;
#X connect 13 0 0 1;
#X restore 346 120 pd gate;
#X obj 346 143 outlet;
#N canvas 0 22 450 300 gate 0;
#X obj 54 -6 gate 2;
#X obj 110 87 random;
#X obj 110 59 metro 1000;
#X obj 110 38 tgl 15 0 empty empty empty 17 7 0 10 -262144 -1 -1 0
1;
#X floatatom 110 109 5 0 0 0 - - -, f 5;
#X obj 110 129 +;
#X obj 157 112 / 2;
#X obj 87 16 t f f f;
#X obj 54 224 outlet;
#X obj 108 179 line;
#X floatatom 108 201 5 0 0 0 - - -, f 5;
#X msg 109 152 \$1 500;
#X obj 47 -29 inlet;
#X obj 94 -29 inlet;
#X connect 0 0 8 0;
#X connect 0 1 7 0;
#X connect 1 0 4 0;
#X connect 2 0 1 0;
#X connect 3 0 2 0;
#X connect 4 0 5 0;
#X connect 5 0 11 0;
#X connect 6 0 5 1;
#X connect 7 0 8 0;
#X connect 7 1 1 1;
#X connect 7 2 6 0;
#X connect 9 0 10 0;
#X connect 10 0 8 0;
#X connect 11 0 9 0;
#X connect 12 0 0 0;
#X connect 13 0 0 1;
#X restore 401 120 pd gate;
#X obj 401 143 outlet;
#N canvas 0 22 450 300 gate 0;
#X obj 54 -6 gate 2;
#X obj 110 87 random;
#X obj 110 59 metro 1000;
#X obj 110 38 tgl 15 0 empty empty empty 17 7 0 10 -262144 -1 -1 0
1;
#X floatatom 110 109 5 0 0 0 - - -, f 5;
#X obj 110 129 +;
#X obj 157 112 / 2;
#X obj 87 16 t f f f;
#X obj 54 224 outlet;
#X obj 108 179 line;
#X floatatom 108 201 5 0 0 0 - - -, f 5;
#X msg 109 152 \$1 500;
#X obj 47 -29 inlet;
#X obj 94 -29 inlet;
#X connect 0 0 8 0;
#X connect 0 1 7 0;
#X connect 1 0 4 0;
#X connect 2 0 1 0;
#X connect 3 0 2 0;
#X connect 4 0 5 0;
#X connect 5 0 11 0;
#X connect 6 0 5 1;
#X connect 7 0 8 0;
#X connect 7 1 1 1;
#X connect 7 2 6 0;
#X connect 9 0 10 0;
#X connect 10 0 8 0;
#X connect 11 0 9 0;
#X connect 12 0 0 0;
#X connect 13 0 0 1;
#X restore 454 120 pd gate;
#X obj 454 143 outlet;
#N canvas 0 22 450 300 gate 0;
#X obj 54 -6 gate 2;
#X obj 110 87 random;
#X obj 110 59 metro 1000;
#X obj 110 38 tgl 15 0 empty empty empty 17 7 0 10 -262144 -1 -1 0
1;
#X floatatom 110 109 5 0 0 0 - - -, f 5;
#X obj 110 129 +;
#X obj 157 112 / 2;
#X obj 87 16 t f f f;
#X obj 54 224 outlet;
#X obj 108 179 line;
#X floatatom 108 201 5 0 0 0 - - -, f 5;
#X msg 109 152 \$1 500;
#X obj 47 -29 inlet;
#X obj 94 -29 inlet;
#X connect 0 0 8 0;
#X connect 0 1 7 0;
#X connect 1 0 4 0;
#X connect 2 0 1 0;
#X connect 3 0 2 0;
#X connect 4 0 5 0;
#X connect 5 0 11 0;
#X connect 6 0 5 1;
#X connect 7 0 8 0;
#X connect 7 1 1 1;
#X connect 7 2 6 0;
#X connect 9 0 10 0;
#X connect 10 0 8 0;
#X connect 11 0 9 0;
#X connect 12 0 0 0;
#X connect 13 0 0 1;
#X restore 513 120 pd gate;
#X obj 513 143 outlet;
#N canvas 0 22 450 300 gate 0;
#X obj 54 -6 gate 2;
#X obj 110 87 random;
#X obj 110 59 metro 1000;
#X obj 110 38 tgl 15 0 empty empty empty 17 7 0 10 -262144 -1 -1 0
1;
#X floatatom 110 109 5 0 0 0 - - -, f 5;
#X obj 110 129 +;
#X obj 157 112 / 2;
#X obj 87 16 t f f f;
#X obj 54 224 outlet;
#X obj 108 179 line;
#X floatatom 108 201 5 0 0 0 - - -, f 5;
#X msg 109 152 \$1 500;
#X obj 47 -29 inlet;
#X obj 94 -29 inlet;
#X connect 0 0 8 0;
#X connect 0 1 7 0;
#X connect 1 0 4 0;
#X connect 2 0 1 0;
#X connect 3 0 2 0;
#X connect 4 0 5 0;
#X connect 5 0 11 0;
#X connect 6 0 5 1;
#X connect 7 0 8 0;
#X connect 7 1 1 1;
#X connect 7 2 6 0;
#X connect 9 0 10 0;
#X connect 10 0 8 0;
#X connect 11 0 9 0;
#X connect 12 0 0 0;
#X connect 13 0 0 1;
#X restore 566 120 pd gate;
#X obj 566 143 outlet;
#N canvas 0 22 450 300 gate 0;
#X obj 54 -6 gate 2;
#X obj 110 87 random;
#X obj 110 59 metro 1000;
#X obj 110 38 tgl 15 0 empty empty empty 17 7 0 10 -262144 -1 -1 0
1;
#X floatatom 110 109 5 0 0 0 - - -, f 5;
#X obj 110 129 +;
#X obj 157 112 / 2;
#X obj 87 16 t f f f;
#X obj 54 224 outlet;
#X obj 108 179 line;
#X floatatom 108 201 5 0 0 0 - - -, f 5;
#X msg 109 152 \$1 500;
#X obj 47 -29 inlet;
#X obj 94 -29 inlet;
#X connect 0 0 8 0;
#X connect 0 1 7 0;
#X connect 1 0 4 0;
#X connect 2 0 1 0;
#X connect 3 0 2 0;
#X connect 4 0 5 0;
#X connect 5 0 11 0;
#X connect 6 0 5 1;
#X connect 7 0 8 0;
#X connect 7 1 1 1;
#X connect 7 2 6 0;
#X connect 9 0 10 0;
#X connect 10 0 8 0;
#X connect 11 0 9 0;
#X connect 12 0 0 0;
#X connect 13 0 0 1;
#X restore 621 120 pd gate;
#X obj 621 143 outlet;
#X obj 43 55 loadbang;
#X msg 43 77 1;
#X obj -11 35 r rand-parameters;
#X obj 157 26 text define -k presets-granulation-a;
#A set 0.05 0.1 0.05 0.1 0.05 0.1 0.05 0.1 0.05 0.1 1 \; 0.1 1 0.1
1 0.1 1 0.1 0.2 0.1 0 0.5 \; 0.5 1 0.5 1 0.5 1 0.5 0.2 0.01 0 1 \;
1 0.02 1 0.02 1 0.02 1 0.02 0.05 0.02 0 \; 0.01 1 0.01 1 0.01 1 0.01
1 0.005 0.015 0.5 \; 1 0.01 0.01 0.01 0.01 0.01 0.01 1 1 1 0.75 \;
0.01 1 1 0.01 0.01 1 0.01 0.01 1 1 1 \; 1 1 0.01 0.01 0.025 0.05 1
1 0.01 0.01 1 \;;
#X text 527 9 Preset 8 variar time / speed.;
#X connect 0 0 2 0;
#X connect 1 0 0 0;
#X connect 2 0 4 1;
#X connect 2 1 6 1;
#X connect 2 2 8 1;
#X connect 2 3 10 1;
#X connect 2 4 12 1;
#X connect 2 5 14 1;
#X connect 2 6 16 1;
#X connect 2 7 18 1;
#X connect 2 8 20 1;
#X connect 2 9 22 1;
#X connect 2 10 24 1;
#X connect 3 0 1 0;
#X connect 4 0 5 0;
#X connect 6 0 7 0;
#X connect 8 0 9 0;
#X connect 10 0 11 0;
#X connect 12 0 13 0;
#X connect 14 0 15 0;
#X connect 16 0 17 0;
#X connect 18 0 19 0;
#X connect 20 0 21 0;
#X connect 22 0 23 0;
#X connect 24 0 25 0;
#X connect 26 0 27 0;
#X connect 27 0 4 0;
#X connect 27 0 24 0;
#X connect 27 0 22 0;
#X connect 27 0 20 0;
#X connect 27 0 18 0;
#X connect 27 0 16 0;
#X connect 27 0 14 0;
#X connect 27 0 12 0;
#X connect 27 0 10 0;
#X connect 27 0 8 0;
#X connect 27 0 6 0;
#X connect 28 0 4 0;
#X connect 28 0 24 0;
#X connect 28 0 22 0;
#X connect 28 0 20 0;
#X connect 28 0 18 0;
#X connect 28 0 16 0;
#X connect 28 0 14 0;
#X connect 28 0 12 0;
#X connect 28 0 10 0;
#X connect 28 0 8 0;
#X connect 28 0 6 0;
#X restore 106 74 pd routing-parameters;
#X floatatom 239 160 5 0 0 0 - - -, f 5;
#X floatatom 240 184 5 0 0 0 - - -, f 5;
#X floatatom 277 201 5 0 0 0 - - -, f 5;
#X floatatom 278 225 5 0 0 0 - - -, f 5;
#X floatatom 306 251 5 0 0 0 - - -, f 5;
#X floatatom 307 275 5 0 0 0 - - -, f 5;
#X floatatom 344 292 5 0 0 0 - - -, f 5;
#X floatatom 345 316 5 0 0 0 - - -, f 5;
#X floatatom 335 388 5 0 0 0 - - -, f 5;
#X floatatom 336 412 5 0 0 0 - - -, f 5;
#X floatatom 281 420 5 0 0 0 - - -, f 5;
#X floatatom 282 444 5 0 0 0 - - -, f 5;
#X obj 364 451 r set-grain-num;
#X obj 6 502 r gran-a-pst;
#X connect 1 0 0 0;
#X connect 9 0 1 0;
#X connect 9 0 14 0;
#X connect 9 0 31 0;
#X connect 14 0 19 0;
#X connect 14 0 15 0;
#X connect 14 0 16 0;
#X connect 14 0 17 0;
#X connect 14 0 18 0;
#X connect 15 0 24 0;
#X connect 15 0 29 0;
#X connect 15 0 30 0;
#X connect 16 0 20 0;
#X connect 16 0 25 0;
#X connect 17 0 22 0;
#X connect 17 0 23 0;
#X connect 18 0 27 0;
#X connect 18 0 28 0;
#X connect 19 0 21 0;
#X connect 19 0 26 0;
#X connect 31 0 32 0;
#X connect 35 0 34 0;
#X connect 37 0 50 0;
#X connect 37 1 49 0;
#X connect 38 0 37 0;
#X connect 39 0 50 0;
#X connect 39 1 49 0;
#X connect 40 0 58 0;
#X connect 41 0 50 0;
#X connect 41 1 49 0;
#X connect 42 0 59 0;
#X connect 43 0 50 0;
#X connect 43 1 49 0;
#X connect 44 0 60 0;
#X connect 45 0 50 0;
#X connect 45 1 49 0;
#X connect 46 0 61 0;
#X connect 47 0 53 0;
#X connect 48 0 54 0;
#X connect 49 0 57 0;
#X connect 50 0 56 0;
#X connect 51 0 50 1;
#X connect 52 0 49 1;
#X connect 53 0 51 0;
#X connect 54 0 52 0;
#X connect 55 0 33 0;
#X connect 58 0 39 0;
#X connect 59 0 41 0;
#X connect 60 0 43 0;
#X connect 61 0 45 0;
#X connect 62 0 82 0;
#X connect 63 0 104 0;
#X connect 63 0 11 0;
#X connect 64 0 91 0;
#X connect 64 0 103 0;
#X connect 65 0 90 0;
#X connect 65 0 102 0;
#X connect 66 0 100 0;
#X connect 66 0 12 0;
#X connect 67 0 101 0;
#X connect 67 0 13 0;
#X connect 68 0 88 0;
#X connect 68 0 98 0;
#X connect 69 0 89 0;
#X connect 69 0 99 0;
#X connect 70 0 96 0;
#X connect 70 0 10 0;
#X connect 71 0 97 0;
#X connect 71 0 4 0;
#X connect 72 0 94 0;
#X connect 72 0 7 0;
#X connect 73 0 95 0;
#X connect 73 0 8 0;
#X connect 81 0 105 0;
#X connect 81 0 36 0;
#X connect 82 0 81 0;
#X connect 84 0 86 0;
#X connect 86 0 93 0;
#X connect 87 0 2 0;
#X connect 88 0 87 0;
#X connect 89 0 3 0;
#X connect 90 0 5 0;
#X connect 91 0 6 0;
#X connect 92 0 84 0;
#X connect 93 0 72 0;
#X connect 93 1 73 0;
#X connect 93 2 70 0;
#X connect 93 3 71 0;
#X connect 93 4 68 0;
#X connect 93 5 69 0;
#X connect 93 6 66 0;
#X connect 93 7 67 0;
#X connect 93 8 65 0;
#X connect 93 9 64 0;
#X connect 93 10 63 0;
#X connect 106 0 62 0;
#X connect 107 0 92 0;
#X coords 0 0 1 1 150 450 0;
