#N canvas 56 23 605 466 10;
#X obj 241 -155 outlet~;
#X floatatom 476 -487 5 0 0 0 - - -, f 5;
#X obj 70 -497 zexy/demux~ . . . . . . . . . .;
#X obj 70 -573 inlet~;
#X floatatom 121 -530 5 0 0 0 - - -, f 5;
#X obj 109 -240 /~ 8.5;
#X obj 71 -239 /~ 10;
#X obj 156 -239 /~ 7.3;
#X obj 202 -236 /~ 6.35;
#X obj 253 -234 /~ 5.6;
#X obj 297 -233 /~ 5.05;
#X obj 346 -231 /~ 4.55;
#X obj 397 -230 /~ 4.15;
#X obj 446 -231 /~ 3.8;
#X obj 492 -232 /~ 3.55;
#X obj 70 -468 hip~;
#X obj 108 -469 hip~;
#X obj 108 -447 hip~;
#X obj 143 -470 hip~;
#X obj 144 -450 hip~;
#X obj 143 -426 hip~;
#X obj 184 -470 hip~;
#X obj 184 -447 hip~;
#X obj 184 -424 hip~;
#X obj 184 -403 hip~;
#X obj 223 -468 hip~;
#X obj 223 -446 hip~;
#X obj 223 -423 hip~;
#X obj 223 -401 hip~;
#X obj 223 -378 hip~;
#X obj 258 -469 hip~;
#X obj 258 -448 hip~;
#X obj 258 -424 hip~;
#X obj 258 -402 hip~;
#X obj 258 -380 hip~;
#X obj 258 -360 hip~;
#X obj 299 -468 hip~;
#X obj 299 -446 hip~;
#X obj 299 -424 hip~;
#X obj 299 -401 hip~;
#X obj 300 -378 hip~;
#X obj 299 -358 hip~;
#X obj 299 -335 hip~;
#X obj 340 -470 hip~;
#X obj 340 -448 hip~;
#X obj 340 -425 hip~;
#X obj 340 -403 hip~;
#X obj 340 -380 hip~;
#X obj 340 -360 hip~;
#X obj 340 -337 hip~;
#X obj 340 -315 hip~;
#X obj 375 -471 hip~;
#X obj 375 -449 hip~;
#X obj 375 -426 hip~;
#X obj 375 -404 hip~;
#X obj 375 -381 hip~;
#X obj 375 -361 hip~;
#X obj 375 -338 hip~;
#X obj 376 -316 hip~;
#X obj 375 -293 hip~;
#X obj 416 -470 hip~;
#X obj 416 -448 hip~;
#X obj 416 -425 hip~;
#X obj 416 -403 hip~;
#X obj 416 -380 hip~;
#X obj 416 -360 hip~;
#X obj 416 -337 hip~;
#X obj 416 -315 hip~;
#X obj 416 -292 hip~;
#X obj 417 -270 hip~;
#X obj 476 -513 r hip-freq;
#X obj 121 -620 r hip-q;
#X obj 121 -590 - 1;
#X obj 241 -180 *~ 1;
#X connect 1 0 15 1;
#X connect 1 0 16 1;
#X connect 1 0 17 1;
#X connect 1 0 18 1;
#X connect 1 0 19 1;
#X connect 1 0 20 1;
#X connect 1 0 21 1;
#X connect 1 0 22 1;
#X connect 1 0 23 1;
#X connect 1 0 24 1;
#X connect 1 0 25 1;
#X connect 1 0 26 1;
#X connect 1 0 27 1;
#X connect 1 0 28 1;
#X connect 1 0 29 1;
#X connect 1 0 30 1;
#X connect 1 0 31 1;
#X connect 1 0 32 1;
#X connect 1 0 33 1;
#X connect 1 0 34 1;
#X connect 1 0 35 1;
#X connect 1 0 36 1;
#X connect 1 0 37 1;
#X connect 1 0 38 1;
#X connect 1 0 39 1;
#X connect 1 0 40 1;
#X connect 1 0 41 1;
#X connect 1 0 42 1;
#X connect 1 0 43 1;
#X connect 1 0 44 1;
#X connect 1 0 45 1;
#X connect 1 0 46 1;
#X connect 1 0 47 1;
#X connect 1 0 48 1;
#X connect 1 0 49 1;
#X connect 1 0 50 1;
#X connect 1 0 51 1;
#X connect 1 0 52 1;
#X connect 1 0 53 1;
#X connect 1 0 54 1;
#X connect 1 0 55 1;
#X connect 1 0 56 1;
#X connect 1 0 57 1;
#X connect 1 0 58 1;
#X connect 1 0 59 1;
#X connect 1 0 60 1;
#X connect 1 0 61 1;
#X connect 1 0 62 1;
#X connect 1 0 63 1;
#X connect 1 0 64 1;
#X connect 1 0 65 1;
#X connect 1 0 66 1;
#X connect 1 0 67 1;
#X connect 1 0 68 1;
#X connect 1 0 69 1;
#X connect 2 0 15 0;
#X connect 2 1 16 0;
#X connect 2 2 18 0;
#X connect 2 3 21 0;
#X connect 2 4 25 0;
#X connect 2 5 30 0;
#X connect 2 6 36 0;
#X connect 2 7 43 0;
#X connect 2 8 51 0;
#X connect 2 9 60 0;
#X connect 3 0 2 0;
#X connect 4 0 2 0;
#X connect 5 0 73 0;
#X connect 6 0 73 0;
#X connect 7 0 73 0;
#X connect 8 0 73 0;
#X connect 9 0 73 0;
#X connect 10 0 73 0;
#X connect 11 0 73 0;
#X connect 12 0 73 0;
#X connect 13 0 73 0;
#X connect 14 0 73 0;
#X connect 15 0 6 0;
#X connect 16 0 17 0;
#X connect 17 0 5 0;
#X connect 18 0 19 0;
#X connect 19 0 20 0;
#X connect 20 0 7 0;
#X connect 21 0 22 0;
#X connect 22 0 23 0;
#X connect 23 0 24 0;
#X connect 24 0 8 0;
#X connect 25 0 26 0;
#X connect 26 0 27 0;
#X connect 27 0 28 0;
#X connect 28 0 29 0;
#X connect 29 0 9 0;
#X connect 30 0 31 0;
#X connect 31 0 32 0;
#X connect 32 0 33 0;
#X connect 33 0 34 0;
#X connect 34 0 35 0;
#X connect 35 0 10 0;
#X connect 36 0 37 0;
#X connect 37 0 38 0;
#X connect 38 0 39 0;
#X connect 39 0 40 0;
#X connect 40 0 41 0;
#X connect 41 0 42 0;
#X connect 42 0 11 0;
#X connect 43 0 44 0;
#X connect 44 0 45 0;
#X connect 45 0 46 0;
#X connect 46 0 47 0;
#X connect 47 0 48 0;
#X connect 48 0 49 0;
#X connect 49 0 50 0;
#X connect 50 0 12 0;
#X connect 51 0 52 0;
#X connect 52 0 53 0;
#X connect 53 0 54 0;
#X connect 54 0 55 0;
#X connect 55 0 56 0;
#X connect 56 0 57 0;
#X connect 57 0 58 0;
#X connect 58 0 59 0;
#X connect 59 0 13 0;
#X connect 60 0 61 0;
#X connect 61 0 62 0;
#X connect 62 0 63 0;
#X connect 63 0 64 0;
#X connect 64 0 65 0;
#X connect 65 0 66 0;
#X connect 66 0 67 0;
#X connect 67 0 68 0;
#X connect 68 0 69 0;
#X connect 69 0 14 0;
#X connect 70 0 1 0;
#X connect 71 0 72 0;
#X connect 72 0 4 0;
#X connect 73 0 0 0;
