#N canvas 167 124 605 512 10;
#X obj 241 -155 outlet~;
#X floatatom 476 -487 5 0 0 0 - - -, f 5;
#X obj 391 -168 r lop-vol;
#X obj 121 -615 r lop-q;
#X obj 476 -513 r lop-freq;
#X obj 70 -497 zexy/demux~ . . . . . . . . . .;
#X obj 416 -470 lop~;
#X obj 416 -448 lop~;
#X obj 416 -425 lop~;
#X obj 416 -403 lop~;
#X obj 416 -380 lop~;
#X obj 416 -360 lop~;
#X obj 416 -337 lop~;
#X obj 416 -315 lop~;
#X obj 416 -292 lop~;
#X obj 416 -270 lop~;
#X obj 375 -471 lop~;
#X obj 375 -449 lop~;
#X obj 375 -426 lop~;
#X obj 375 -404 lop~;
#X obj 375 -381 lop~;
#X obj 375 -361 lop~;
#X obj 375 -338 lop~;
#X obj 375 -316 lop~;
#X obj 375 -293 lop~;
#X obj 340 -470 lop~;
#X obj 340 -448 lop~;
#X obj 340 -425 lop~;
#X obj 340 -403 lop~;
#X obj 340 -380 lop~;
#X obj 340 -360 lop~;
#X obj 340 -337 lop~;
#X obj 340 -315 lop~;
#X obj 299 -468 lop~;
#X obj 299 -446 lop~;
#X obj 299 -423 lop~;
#X obj 299 -401 lop~;
#X obj 299 -378 lop~;
#X obj 299 -358 lop~;
#X obj 299 -335 lop~;
#X obj 258 -469 lop~;
#X obj 258 -447 lop~;
#X obj 258 -424 lop~;
#X obj 258 -402 lop~;
#X obj 258 -379 lop~;
#X obj 258 -359 lop~;
#X obj 223 -468 lop~;
#X obj 223 -446 lop~;
#X obj 223 -423 lop~;
#X obj 223 -401 lop~;
#X obj 223 -378 lop~;
#X obj 184 -469 lop~;
#X obj 184 -447 lop~;
#X obj 184 -424 lop~;
#X obj 184 -402 lop~;
#X obj 143 -470 lop~;
#X obj 144 -450 lop~;
#X obj 143 -425 lop~;
#X obj 108 -469 lop~;
#X obj 108 -447 lop~;
#X obj 70 -468 lop~;
#X obj 70 -573 inlet~;
#X floatatom 121 -522 5 0 0 0 - - -, f 5;
#X obj 72 -239 /~ 1;
#X obj 109 -240 /~ 1;
#X obj 156 -239 /~ 1;
#X obj 202 -236 /~ 1;
#X obj 253 -234 /~ 1;
#X obj 297 -233 /~ 1;
#X obj 346 -231 /~ 1;
#X obj 397 -230 /~ 1;
#X obj 446 -231 /~ 1;
#X obj 492 -232 /~ 1;
#X obj 121 -556 - 1;
#X floatatom 411 -149 5 0 0 0 - - -, f 5;
#X obj 241 -181 *~ 1;
#X connect 1 0 40 1;
#X connect 1 0 60 1;
#X connect 1 0 59 1;
#X connect 1 0 58 1;
#X connect 1 0 57 1;
#X connect 1 0 56 1;
#X connect 1 0 55 1;
#X connect 1 0 54 1;
#X connect 1 0 53 1;
#X connect 1 0 52 1;
#X connect 1 0 51 1;
#X connect 1 0 50 1;
#X connect 1 0 49 1;
#X connect 1 0 48 1;
#X connect 1 0 47 1;
#X connect 1 0 46 1;
#X connect 1 0 45 1;
#X connect 1 0 44 1;
#X connect 1 0 43 1;
#X connect 1 0 42 1;
#X connect 1 0 41 1;
#X connect 1 0 39 1;
#X connect 1 0 38 1;
#X connect 1 0 37 1;
#X connect 1 0 36 1;
#X connect 1 0 35 1;
#X connect 1 0 34 1;
#X connect 1 0 33 1;
#X connect 1 0 32 1;
#X connect 1 0 31 1;
#X connect 1 0 30 1;
#X connect 1 0 29 1;
#X connect 1 0 28 1;
#X connect 1 0 27 1;
#X connect 1 0 26 1;
#X connect 1 0 25 1;
#X connect 1 0 24 1;
#X connect 1 0 23 1;
#X connect 1 0 22 1;
#X connect 1 0 21 1;
#X connect 1 0 20 1;
#X connect 1 0 19 1;
#X connect 1 0 18 1;
#X connect 1 0 17 1;
#X connect 1 0 16 1;
#X connect 1 0 15 1;
#X connect 1 0 14 1;
#X connect 1 0 13 1;
#X connect 1 0 12 1;
#X connect 1 0 11 1;
#X connect 1 0 10 1;
#X connect 1 0 9 1;
#X connect 1 0 8 1;
#X connect 1 0 7 1;
#X connect 1 0 6 1;
#X connect 3 0 73 0;
#X connect 4 0 1 0;
#X connect 5 0 60 0;
#X connect 5 1 58 0;
#X connect 5 2 55 0;
#X connect 5 3 51 0;
#X connect 5 4 46 0;
#X connect 5 5 40 0;
#X connect 5 6 33 0;
#X connect 5 7 25 0;
#X connect 5 8 16 0;
#X connect 5 9 6 0;
#X connect 6 0 7 0;
#X connect 7 0 8 0;
#X connect 8 0 9 0;
#X connect 9 0 10 0;
#X connect 10 0 11 0;
#X connect 11 0 12 0;
#X connect 12 0 13 0;
#X connect 13 0 14 0;
#X connect 14 0 15 0;
#X connect 15 0 72 0;
#X connect 16 0 17 0;
#X connect 17 0 18 0;
#X connect 18 0 19 0;
#X connect 19 0 20 0;
#X connect 20 0 21 0;
#X connect 21 0 22 0;
#X connect 22 0 23 0;
#X connect 23 0 24 0;
#X connect 24 0 71 0;
#X connect 25 0 26 0;
#X connect 26 0 27 0;
#X connect 27 0 28 0;
#X connect 28 0 29 0;
#X connect 29 0 30 0;
#X connect 30 0 31 0;
#X connect 31 0 32 0;
#X connect 32 0 70 0;
#X connect 33 0 34 0;
#X connect 34 0 35 0;
#X connect 35 0 36 0;
#X connect 36 0 37 0;
#X connect 37 0 38 0;
#X connect 38 0 39 0;
#X connect 39 0 69 0;
#X connect 40 0 41 0;
#X connect 41 0 42 0;
#X connect 42 0 43 0;
#X connect 43 0 44 0;
#X connect 44 0 45 0;
#X connect 45 0 68 0;
#X connect 46 0 47 0;
#X connect 47 0 48 0;
#X connect 48 0 49 0;
#X connect 49 0 50 0;
#X connect 50 0 67 0;
#X connect 51 0 52 0;
#X connect 52 0 53 0;
#X connect 53 0 54 0;
#X connect 54 0 66 0;
#X connect 55 0 56 0;
#X connect 56 0 57 0;
#X connect 57 0 65 0;
#X connect 58 0 59 0;
#X connect 59 0 64 0;
#X connect 60 0 63 0;
#X connect 61 0 5 0;
#X connect 62 0 5 0;
#X connect 63 0 75 0;
#X connect 64 0 75 0;
#X connect 65 0 75 0;
#X connect 66 0 75 0;
#X connect 67 0 75 0;
#X connect 68 0 75 0;
#X connect 69 0 75 0;
#X connect 70 0 75 0;
#X connect 71 0 75 0;
#X connect 72 0 75 0;
#X connect 73 0 62 0;
#X connect 75 0 0 0;
