#N canvas 125 23 358 388 10;
#X declare -lib iemmatrix;
#X declare -lib iemlib;
#X declare -lib iemgui;
#X declare -lib iem_ambi;
#X declare -lib moonlib;
#X declare -lib iemmatrix;
#X declare -lib iemlib;
#X declare -lib iemgui;
#X declare -lib iem_ambi;
#X declare -lib moonlib;
#X declare -lib iemmatrix;
#X declare -lib iemlib;
#X declare -lib iemgui;
#X declare -lib iem_ambi;
#X declare -lib moonlib;
#X declare -lib iemmatrix;
#X declare -lib iemlib;
#X declare -lib iemgui;
#X declare -lib iem_ambi;
#X declare -lib moonlib;
#X declare -lib iemmatrix;
#X declare -lib iemlib;
#X declare -lib iemgui;
#X declare -lib iem_ambi;
#X declare -lib moonlib;
#X declare -lib iemmatrix;
#X declare -lib iemlib;
#X declare -lib iemgui;
#X declare -lib iem_ambi;
#X declare -lib moonlib;
#X declare -lib iemmatrix;
#X declare -lib iemlib;
#X declare -lib iemgui;
#X declare -lib iem_ambi;
#X declare -lib moonlib;
#X declare -lib iemmatrix;
#X declare -lib iemlib;
#X declare -lib iemgui;
#X declare -lib iem_ambi;
#X declare -lib moonlib;
#X declare -lib iemmatrix;
#X declare -lib iemlib;
#X declare -lib iemgui;
#X declare -lib iem_ambi;
#X declare -lib moonlib;
#X declare -lib iemmatrix;
#X declare -lib iemlib;
#X declare -lib iemgui;
#X declare -lib iem_ambi;
#X obj 5 -76 declare -lib iemmatrix;
#X obj 5 -56 declare -lib iemlib;
#X obj 5 -37 declare -lib iemgui;
#X obj 5 -17 declare -lib iem_ambi;
#X obj 6 3 declare -lib moonlib;
#N canvas 60 24 1287 204 coding_ambi_mult_sources 0;
#X obj 56 138 coding 1;
#X obj 78 84 r azi1;
#X obj 101 112 r ampsource1;
#X obj 56 161 s~ ws1;
#X obj 71 185 s~ xs1;
#X obj 86 209 s~ ys1;
#X obj 234 87 r azi2;
#X obj 257 115 r ampsource2;
#X obj 212 164 s~ ws2;
#X obj 212 141 coding 2;
#X obj 227 188 s~ xs2;
#X obj 242 212 s~ ys2;
#X obj 396 211 s~ ys3;
#X obj 381 187 s~ xs3;
#X obj 366 163 s~ ws3;
#X obj 366 140 coding 3;
#X obj 411 114 r ampsource3;
#X obj 388 86 r azi3;
#X obj 544 89 r azi4;
#X obj 567 117 r ampsource4;
#X obj 522 143 coding 4;
#X obj 522 166 s~ ws4;
#X obj 537 190 s~ xs4;
#X obj 552 214 s~ ys4;
#X obj 706 213 s~ ys5;
#X obj 691 189 s~ xs5;
#X obj 676 165 s~ ws5;
#X obj 676 142 coding 5;
#X obj 721 116 r ampsource5;
#X obj 698 88 r azi5;
#X obj 854 91 r azi6;
#X obj 877 119 r ampsource6;
#X obj 832 145 coding 6;
#X obj 832 168 s~ ws6;
#X obj 847 192 s~ xs6;
#X obj 862 216 s~ ys6;
#X obj 1008 90 r azi7;
#X obj 1031 118 r ampsource7;
#X obj 986 144 coding 7;
#X obj 986 167 s~ ws7;
#X obj 1001 191 s~ xs7;
#X obj 1016 215 s~ ys7;
#X obj 1164 93 r azi8;
#X obj 1187 121 r ampsource8;
#X obj 1142 147 coding 8;
#X obj 1142 170 s~ ws8;
#X obj 1157 194 s~ xs8;
#X obj 1172 218 s~ ys8;
#X text 23 7 2D-Ambisonics codification for 8 independent sound sources.
;
#X obj 56 53 catch~ source1;
#X obj 212 56 catch~ source2;
#X obj 367 56 catch~ source3;
#X obj 522 59 catch~ source4;
#X obj 677 58 catch~ source5;
#X obj 831 61 catch~ source6;
#X obj 985 60 catch~ source7;
#X obj 1142 63 catch~ source8;
#X connect 0 0 3 0;
#X connect 0 1 4 0;
#X connect 0 2 5 0;
#X connect 1 0 0 1;
#X connect 2 0 0 2;
#X connect 6 0 9 1;
#X connect 7 0 9 2;
#X connect 9 0 8 0;
#X connect 9 1 10 0;
#X connect 9 2 11 0;
#X connect 15 0 14 0;
#X connect 15 1 13 0;
#X connect 15 2 12 0;
#X connect 16 0 15 2;
#X connect 17 0 15 1;
#X connect 18 0 20 1;
#X connect 19 0 20 2;
#X connect 20 0 21 0;
#X connect 20 1 22 0;
#X connect 20 2 23 0;
#X connect 27 0 26 0;
#X connect 27 1 25 0;
#X connect 27 2 24 0;
#X connect 28 0 27 2;
#X connect 29 0 27 1;
#X connect 30 0 32 1;
#X connect 31 0 32 2;
#X connect 32 0 33 0;
#X connect 32 1 34 0;
#X connect 32 2 35 0;
#X connect 36 0 38 1;
#X connect 37 0 38 2;
#X connect 38 0 39 0;
#X connect 38 1 40 0;
#X connect 38 2 41 0;
#X connect 42 0 44 1;
#X connect 43 0 44 2;
#X connect 44 0 45 0;
#X connect 44 1 46 0;
#X connect 44 2 47 0;
#X connect 49 0 0 0;
#X connect 50 0 9 0;
#X connect 51 0 15 0;
#X connect 52 0 20 0;
#X connect 53 0 27 0;
#X connect 54 0 32 0;
#X connect 55 0 38 0;
#X connect 56 0 44 0;
#X restore 149 -75 pd coding_ambi_mult_sources;
#X obj 149 -54 decoding;
#X obj 109 189 vsl 15 51 0 0.2 0 0 empty empty empty 0 -8 0 8 -66577
-262144 -1 0 1;
#X obj 145 226 vsl 15 51 0 0.2 0 0 empty empty empty 0 -8 0 8 -66577
-262144 -1 0 1;
#X obj 145 143 vsl 15 51 0 0.2 0 0 empty empty empty 0 -8 0 8 -66577
-262144 -1 0 1;
#X obj 193 226 vsl 15 51 0 0.2 0 0 empty empty empty 0 -8 0 8 -66577
-262144 -1 0 1;
#X obj 194 143 vsl 15 51 0 0.2 0 0 empty empty empty 0 -8 0 8 -66577
-262144 -1 0 1;
#X obj 229 186 vsl 15 51 0 0.2 0 0 empty empty empty 0 -8 0 8 -66577
-262144 -1 0 1;
#X obj 6 27 mtx_mul~;
#X text 3 -101 2D-Hexaphonic-Ambisonics: 8 independent sound sources.
;
#X text 142 124 (1);
#X text 191 124 (2);
#X text 227 169 (3);
#X text 190 208 (4);
#X text 143 208 (5);
#X text 105 170 (6);
#X text 104 103 AMBISONICS - monitoring;
#X connect 6 0 9 0;
#X connect 6 1 11 0;
#X connect 6 2 12 0;
#X connect 6 3 10 0;
#X connect 6 4 8 0;
#X connect 6 5 7 0;
#X coords 0 -1 1 1 150 185 2 100 100;
