#N canvas 107 57 1055 472 10;
#X obj 9 226 sqrt;
#X text -44 73 trigger;
#X obj 701 368 *~;
#X obj 345 297 line~;
#X obj 345 324 *~;
#X obj 345 351 *~;
#X msg 345 260 0 \$1;
#X obj 9 253 sqrt;
#X obj 9 150 float \$1;
#X obj 345 133 t b b;
#X obj 701 118 bng 15 250 50 0 empty empty empty 0 -6 0 8 -262144 -1
-1;
#X msg 9 280 \$1 5;
#X obj 345 160 del 5;
#X obj 9 199 * 0.1;
#X obj 701 306 + \$4;
#X text 65 150 get amplitude from argument 1;
#X text 62 198 normalize to 0.1;
#X text 54 225 take fourth root (square root twice);
#X text 82 242 because we'll raise line~ output to;
#X text 81 259 fourth power;
#X text 53 284 attack time 5 msec;
#X text 398 159 decay after 5 msec;
#X text 13 132 attack;
#X obj 344 186 float \$2;
#X obj 701 227 float \$3;
#X obj 701 341 osc~;
#X text 389 260 decay msg to line~;
#X text 384 325 raise to fourth power for;
#X text 385 343 natural-sounding decay shape;
#X text 704 423 add to global;
#X text 703 442 summing bus;
#X text 153 14 arguments:;
#X text 127 39 1 amplitude \; 2 relative duration \; 3 relative frequency
\; 4 detune;
#X obj 746 190 inlet;
#X obj 775 289 inlet;
#X obj 389 119 inlet;
#X obj 54 107 inlet;
#X obj 701 395 throw~ partial;
#X obj -44 101 inlet;
#X obj 701 279 * 1;
#X floatatom 760 323 8 0 0 0 - - -, f 8;
#X floatatom 515 251 5 0 0 0 - - -, f 5;
#X text 615 279 x input freq.;
#X text 772 273 + desafinação;
#X text 743 168 rel-freq;
#X text 374 232 final-duration;
#X text 388 104 rel-dur;
#X obj 760 347 outlet;
#X obj 514 271 outlet;
#X floatatom 730 278 5 0 0 0 - - -, f 5;
#X obj 716 254 f;
#X obj 360 209 f;
#X obj 859 171 inlet;
#X obj 934 216 inlet;
#X obj 859 193 t b f;
#X obj 934 238 t b f;
#X floatatom 300 203 5 0 0 0 - - -, f 5;
#X floatatom 480 226 5 0 0 0 - - -, f 5;
#X floatatom 98 132 5 0 0 0 - - -, f 5;
#X obj 345 233 * 1;
#X floatatom 856 307 5 0 0 0 - - -, f 5;
#X connect 0 0 7 0;
#X connect 2 0 37 0;
#X connect 3 0 4 0;
#X connect 3 0 4 1;
#X connect 4 0 5 0;
#X connect 4 0 5 1;
#X connect 5 0 2 1;
#X connect 6 0 3 0;
#X connect 7 0 11 0;
#X connect 8 0 13 0;
#X connect 9 0 12 0;
#X connect 9 1 8 0;
#X connect 10 0 9 0;
#X connect 10 0 24 0;
#X connect 11 0 3 0;
#X connect 12 0 23 0;
#X connect 13 0 0 0;
#X connect 14 0 25 0;
#X connect 14 0 40 0;
#X connect 23 0 56 0;
#X connect 23 0 59 0;
#X connect 24 0 39 0;
#X connect 25 0 2 0;
#X connect 33 0 24 1;
#X connect 34 0 14 1;
#X connect 34 0 60 0;
#X connect 35 0 23 1;
#X connect 36 0 8 1;
#X connect 36 0 58 0;
#X connect 38 0 10 0;
#X connect 39 0 14 0;
#X connect 40 0 47 0;
#X connect 41 0 48 0;
#X connect 50 0 39 1;
#X connect 50 0 49 0;
#X connect 51 0 57 0;
#X connect 51 0 59 1;
#X connect 52 0 54 0;
#X connect 53 0 55 0;
#X connect 54 0 51 0;
#X connect 54 1 51 1;
#X connect 55 0 50 0;
#X connect 55 1 50 1;
#X connect 59 0 6 0;
#X connect 59 0 41 0;
