#N canvas 183 23 450 300 10;
#X obj 31 110 rfft~;
#X obj 31 244 /~ 64;
#X obj 31 219 rifft~;
#X obj 31 137 cyclone/cartopol~;
#X obj 31 190 cyclone/poltocar~;
#X obj 31 274 outlet~;
#X obj 31 60 inlet~;
#X obj 31 84 /~ 2;
#X obj 31 163 *~ 1;
#X obj 130 162 *~;
#X floatatom 190 187 5 0 0 0 - - -, f 5;
#X obj 190 164 hsl 128 15 0.001 1000 1 0 empty empty empty -2 -8 0
10 -262144 -1 -1 6350 1;
#X obj 190 110 loadbang;
#X msg 190 136 1;
#X text 30 30 Basic Phase factor multiplication;
#X obj 189 84 r phase-fat-mult;
#X text 220 135 Range: 0.001 to 1000;
#X connect 0 0 3 0;
#X connect 0 1 3 1;
#X connect 1 0 5 0;
#X connect 2 0 1 0;
#X connect 3 0 8 0;
#X connect 3 1 9 0;
#X connect 4 0 2 0;
#X connect 4 1 2 1;
#X connect 6 0 7 0;
#X connect 7 0 0 0;
#X connect 8 0 4 0;
#X connect 9 0 4 1;
#X connect 10 0 9 1;
#X connect 11 0 10 0;
#X connect 12 0 13 0;
#X connect 13 0 11 0;
#X connect 15 0 11 0;
