#N canvas 495 23 450 300 10;
#X floatatom 21 291 8 0 0 0 - - -, f 8;
#X floatatom 21 87 5 0 127 0 - - -, f 5;
#X floatatom 50 145 5 0 0 0 - - -, f 5;
#X floatatom 79 166 5 0 0 0 - - -, f 5;
#X floatatom 109 187 5 0 0 0 - - -, f 5;
#X floatatom 138 208 5 0 0 0 - - -, f 5;
#X text 78 85 input value;
#X text 105 144 in low;
#X text 131 165 in high;
#X text 165 186 out low;
#X text 194 208 out high;
#X floatatom 168 234 5 0 0 0 - - -, f 5;
#X text 221 233 log coefficient;
#X text 259 251 0 = linear 1 = log;
#X text 25 47 AZI 0 to 360;
#X obj 196 37 loadbang;
#X msg 196 57 0;
#X msg 197 77 127;
#X msg 197 99 360;
#X obj 21 262 maxlib/scale;
#X obj 21 19 inlet;
#X obj 21 312 outlet;
#X connect 0 0 21 0;
#X connect 1 0 19 0;
#X connect 2 0 19 1;
#X connect 3 0 19 2;
#X connect 4 0 19 3;
#X connect 5 0 19 4;
#X connect 11 0 19 5;
#X connect 15 0 16 0;
#X connect 15 0 17 0;
#X connect 15 0 18 0;
#X connect 16 0 2 0;
#X connect 16 0 4 0;
#X connect 17 0 3 0;
#X connect 18 0 5 0;
#X connect 19 0 0 0;
#X connect 20 0 1 0;
