#N canvas 495 23 418 391 10;
#X floatatom 40 349 14 0 0 0 - - -, f 14;
#X floatatom 40 144 5 0 127 0 - - -, f 5;
#X floatatom 69 203 5 0 0 0 - - -, f 5;
#X floatatom 98 224 5 0 0 0 - - -, f 5;
#X floatatom 128 245 5 0 0 0 - - -, f 5;
#X floatatom 157 266 5 0 0 0 - - -, f 5;
#X text 97 143 input value;
#X text 124 202 in low;
#X text 150 223 in high;
#X text 184 244 out low;
#X text 213 266 out high;
#X floatatom 187 292 5 0 0 0 - - -, f 5;
#X text 240 291 log coefficient;
#X text 278 309 0 = linear 1 = log;
#X obj 40 45 inlet;
#X obj 40 374 outlet;
#X obj 215 95 loadbang;
#X msg 215 115 0;
#X msg 216 135 127;
#X text 44 105 Volumes 0 to 3;
#X msg 220 158 3;
#X obj 40 320 maxlib/scale;
#X text 15 7 Scales midi inputs to volume;
#X connect 0 0 15 0;
#X connect 1 0 21 0;
#X connect 2 0 21 1;
#X connect 3 0 21 2;
#X connect 4 0 21 3;
#X connect 5 0 21 4;
#X connect 11 0 21 5;
#X connect 14 0 1 0;
#X connect 16 0 17 0;
#X connect 16 0 18 0;
#X connect 16 0 20 0;
#X connect 17 0 2 0;
#X connect 17 0 4 0;
#X connect 18 0 3 0;
#X connect 20 0 5 0;
#X connect 21 0 0 0;
