#N canvas 495 23 828 831 10;
#X msg 28 101 30;
#X msg 43 124 90;
#X msg 58 148 150;
#X msg 73 171 210;
#X msg 89 192 270;
#X msg 104 215 330;
#X obj 49 -65 bng 15 250 50 0 empty empty empty 17 7 0 10 -262144 -1
-1;
#X floatatom 28 51 5 0 0 0 - - -, f 5;
#X floatatom 28 334 5 0 0 0 - - -, f 5;
#X obj 28 356 - 180;
#X floatatom 28 378 5 0 0 0 - - -, f 5;
#X text 69 346 convert to the appropriate azimuth input used in the
ambisonics patch., f 29;
#X obj 28 510 line;
#X floatatom 28 532 5 0 0 0 - - -, f 5;
#X msg 28 486 \$1 \$2;
#X obj 28 460 pack f f;
#X obj 28 421 t f b;
#X obj 297 484 route 0 1 2 3 4;
#X obj 297 438 random 5;
#X floatatom 297 460 5 0 0 0 - - -, f 5;
#X text 393 528 Transition time between angles in ms.;
#X msg 297 510 25;
#X msg 314 533 250;
#X msg 331 557 750;
#X msg 349 580 1250;
#X msg 384 624 3000;
#X msg 366 601 2000;
#X floatatom 297 641 5 0 0 0 - - -, f 5;
#X obj 297 670 t b f;
#X text 70 483 Generate ramps for time transitions between speakers
angles., f 16;
#X text 227 74 Angles for each speaker and in between speakers;
#X msg 119 96 60;
#X msg 132 119 120;
#X msg 148 143 180;
#X msg 165 166 240;
#X msg 180 187 310;
#X msg 195 210 0;
#X obj 28 29 random 12;
#X obj 28 74 route 0 1 2 3 4 5 6 7 8 9 10 11;
#X obj 296 718 pipe;
#X floatatom 325 694 5 0 0 0 - - -, f 5;
#X obj 296 693 bng 15 250 50 0 empty empty empty 17 7 0 10 -262144
-1 -1;
#X obj 296 741 bng 15 250 50 0 empty empty empty 17 7 0 10 -262144
-1 -1;
#X obj 28 -34 gate;
#X obj 28 -12 bng 15 250 50 0 empty empty empty 17 7 0 10 -262144 -1
-1;
#X obj 28 8 t b b;
#X msg 70 6 0;
#X obj -32 -73 loadbang;
#X msg -32 -51 1;
#X text 71 -18 avoids a bang during the speaker transition;
#X text 336 718 As soon as the transition is finished \, the gate is
open for a new bang, f 28;
#X msg 297 760 1;
#X obj 28 553 outlet;
#X obj 49 -92 inlet, f 6;
#X text 412 782 7 seconds after the transition a new bang is automatically
sent.;
#X obj 345 785 pipe 7000;
#X obj 345 807 bng 15 250 50 0 empty empty empty 17 7 0 10 -262144
-1 -1;
#X obj 324 834 gate;
#X text 365 834 This may generate a loop. This gate is used to control
it., f 34;
#X obj 234 817 r spat-loop;
#X connect 0 0 8 0;
#X connect 1 0 8 0;
#X connect 2 0 8 0;
#X connect 3 0 8 0;
#X connect 4 0 8 0;
#X connect 5 0 8 0;
#X connect 6 0 43 1;
#X connect 7 0 38 0;
#X connect 8 0 9 0;
#X connect 9 0 10 0;
#X connect 10 0 16 0;
#X connect 12 0 13 0;
#X connect 13 0 52 0;
#X connect 14 0 12 0;
#X connect 15 0 14 0;
#X connect 16 0 15 0;
#X connect 16 1 18 0;
#X connect 17 0 21 0;
#X connect 17 1 22 0;
#X connect 17 2 23 0;
#X connect 17 3 24 0;
#X connect 17 4 26 0;
#X connect 17 5 25 0;
#X connect 18 0 19 0;
#X connect 19 0 17 0;
#X connect 21 0 27 0;
#X connect 22 0 27 0;
#X connect 23 0 27 0;
#X connect 24 0 27 0;
#X connect 25 0 27 0;
#X connect 26 0 27 0;
#X connect 27 0 15 1;
#X connect 27 0 28 0;
#X connect 28 0 41 0;
#X connect 28 1 40 0;
#X connect 31 0 8 0;
#X connect 32 0 8 0;
#X connect 33 0 8 0;
#X connect 34 0 8 0;
#X connect 35 0 8 0;
#X connect 36 0 8 0;
#X connect 37 0 7 0;
#X connect 38 0 0 0;
#X connect 38 1 1 0;
#X connect 38 2 2 0;
#X connect 38 3 3 0;
#X connect 38 4 4 0;
#X connect 38 5 5 0;
#X connect 38 6 31 0;
#X connect 38 7 32 0;
#X connect 38 8 33 0;
#X connect 38 9 34 0;
#X connect 38 10 35 0;
#X connect 38 11 36 0;
#X connect 39 0 42 0;
#X connect 40 0 39 1;
#X connect 41 0 39 0;
#X connect 42 0 51 0;
#X connect 42 0 55 0;
#X connect 43 0 44 0;
#X connect 44 0 45 0;
#X connect 45 0 37 0;
#X connect 45 1 46 0;
#X connect 46 0 43 0;
#X connect 47 0 48 0;
#X connect 48 0 43 0;
#X connect 48 0 57 0;
#X connect 51 0 43 0;
#X connect 53 0 6 0;
#X connect 55 0 56 0;
#X connect 56 0 57 1;
#X connect 57 0 6 0;
#X connect 59 0 57 0;
