#N canvas -48 81 1349 505 12;
#X obj -10 704 *~;
#X floatatom 26 685 5 0 0 0 - - -, f 5;
#X obj -10 218 bp~ 100 50;
#X obj -10 189 pink~;
#X obj 23 161 line;
#X msg 23 134 \$1 75;
#X floatatom 23 109 5 0 0 0 - - -, f 5;
#X obj -10 731 outlet~;
#X obj 26 658 r sub-vol;
#X obj 140 219 bp~ 100 50;
#X obj 140 190 pink~;
#X obj 173 162 line;
#X msg 173 135 \$1 75;
#X floatatom 173 110 5 0 0 0 - - -, f 5;
#X obj 290 219 bp~ 100 50;
#X obj 290 190 pink~;
#X obj 323 162 line;
#X msg 323 135 \$1 75;
#X floatatom 323 110 5 0 0 0 - - -, f 5;
#X obj 440 220 bp~ 100 50;
#X obj 440 191 pink~;
#X obj 473 163 line;
#X msg 473 136 \$1 75;
#X floatatom 473 111 5 0 0 0 - - -, f 5;
#X obj 150 394 bp~ 100 50;
#X obj 150 365 pink~;
#X obj 183 337 line;
#X msg 183 310 \$1 75;
#X floatatom 183 285 5 0 0 0 - - -, f 5;
#X obj 300 395 bp~ 100 50;
#X obj 300 366 pink~;
#X obj 333 338 line;
#X msg 333 311 \$1 75;
#X floatatom 333 286 5 0 0 0 - - -, f 5;
#X obj 450 395 bp~ 100 50;
#X obj 450 366 pink~;
#X obj 483 338 line;
#X msg 483 311 \$1 75;
#X floatatom 483 286 5 0 0 0 - - -, f 5;
#X obj 600 396 bp~ 100 50;
#X obj 600 367 pink~;
#X obj 633 339 line;
#X msg 633 312 \$1 75;
#X floatatom 633 287 5 0 0 0 - - -, f 5;
#X obj 340 564 bp~ 100 50;
#X obj 340 535 pink~;
#X obj 373 507 line;
#X msg 373 480 \$1 75;
#X floatatom 373 455 5 0 0 0 - - -, f 5;
#X obj 490 565 bp~ 100 50;
#X obj 490 536 pink~;
#X obj 523 508 line;
#X msg 523 481 \$1 75;
#X floatatom 523 456 5 0 0 0 - - -, f 5;
#X obj 640 565 bp~ 100 50;
#X obj 640 536 pink~;
#X obj 673 508 line;
#X msg 673 481 \$1 75;
#X floatatom 673 456 5 0 0 0 - - -, f 5;
#X obj 790 566 bp~ 100 50;
#X obj 790 537 pink~;
#X obj 823 509 line;
#X msg 823 482 \$1 75;
#X floatatom 823 457 5 0 0 0 - - -, f 5;
#X obj 876 44 unpack;
#X floatatom 876 94 0 0 0 0 - - -;
#X floatatom 890 71 0 0 0 0 - - -;
#X obj 959 44 unpack;
#X floatatom 959 94 0 0 0 0 - - -;
#X floatatom 973 71 0 0 0 0 - - -;
#X obj 1043 44 unpack;
#X floatatom 1043 94 0 0 0 0 - - -;
#X floatatom 1057 71 0 0 0 0 - - -;
#X obj 1098 46 unpack;
#X floatatom 1098 96 0 0 0 0 - - -;
#X floatatom 1112 73 0 0 0 0 - - -;
#X obj 1181 46 unpack;
#X floatatom 1181 96 0 0 0 0 - - -;
#X floatatom 1195 73 0 0 0 0 - - -;
#X obj 1265 46 unpack;
#X floatatom 1265 96 0 0 0 0 - - -;
#X floatatom 1279 73 0 0 0 0 - - -;
#X obj 739 -26 fiddle~ 2048 1 20 12;
#X obj 876 3 route 1 2 3 4 5 6 7 8 9 10 11 12;
#X obj 992 137 unpack;
#X floatatom 992 187 0 0 0 0 - - -;
#X floatatom 1006 164 0 0 0 0 - - -;
#X obj 1075 137 unpack;
#X floatatom 1074 186 0 0 0 0 - - -;
#X floatatom 1089 164 0 0 0 0 - - -;
#X obj 1159 137 unpack;
#X floatatom 1159 187 0 0 0 0 - - -;
#X floatatom 1173 164 0 0 0 0 - - -;
#X obj 1214 139 unpack;
#X floatatom 1214 189 0 0 0 0 - - -;
#X floatatom 1228 166 0 0 0 0 - - -;
#X obj 1297 139 unpack;
#X floatatom 1297 189 0 0 0 0 - - -;
#X floatatom 1311 166 0 0 0 0 - - -;
#X obj 1381 139 unpack;
#X floatatom 1381 189 0 0 0 0 - - -;
#X floatatom 1395 166 0 0 0 0 - - -;
#X obj 739 -53 inlet~;
#X obj 875 117 s frequencia-rel-1-sub;
#X obj 867 137 s frequencia-rel-2-sub;
#X obj 865 168 s frequencia-rel-3-sub;
#X obj 857 188 s frequencia-rel-4-sub;
#X obj 865 226 s frequencia-rel-5-sub;
#X obj 857 247 s frequencia-rel-6-sub;
#X obj 980 248 s frequencia-rel-7-sub;
#X obj 972 268 s frequencia-rel-8-sub;
#X obj 970 299 s frequencia-rel-9-sub;
#X obj 962 319 s frequencia-rel-10-sub;
#X obj 970 356 s frequencia-rel-11-sub;
#X obj 962 379 s frequencia-rel-12-sub;
#X obj 823 431 r frequencia-rel-12-sub;
#X obj 673 431 r frequencia-rel-11-sub;
#X obj 523 430 r frequencia-rel-10-sub;
#X obj 373 430 r frequencia-rel-9-sub;
#X obj 633 261 r frequencia-rel-8-sub;
#X obj 483 261 r frequencia-rel-7-sub;
#X obj 333 261 r frequencia-rel-6-sub;
#X obj 183 260 r frequencia-rel-5-sub;
#X obj 473 85 r frequencia-rel-4-sub;
#X obj 323 85 r frequencia-rel-3-sub;
#X obj 173 85 r frequencia-rel-2-sub;
#X obj 23 83 r frequencia-rel-1-sub;
#X connect 0 0 7 0;
#X connect 1 0 0 1;
#X connect 2 0 0 0;
#X connect 3 0 2 0;
#X connect 4 0 2 1;
#X connect 5 0 4 0;
#X connect 6 0 5 0;
#X connect 8 0 1 0;
#X connect 9 0 0 0;
#X connect 10 0 9 0;
#X connect 11 0 9 1;
#X connect 12 0 11 0;
#X connect 13 0 12 0;
#X connect 14 0 0 0;
#X connect 15 0 14 0;
#X connect 16 0 14 1;
#X connect 17 0 16 0;
#X connect 18 0 17 0;
#X connect 19 0 0 0;
#X connect 20 0 19 0;
#X connect 21 0 19 1;
#X connect 22 0 21 0;
#X connect 23 0 22 0;
#X connect 24 0 0 0;
#X connect 25 0 24 0;
#X connect 25 0 0 0;
#X connect 26 0 24 1;
#X connect 26 0 0 0;
#X connect 27 0 26 0;
#X connect 27 0 0 0;
#X connect 28 0 27 0;
#X connect 28 0 0 0;
#X connect 29 0 0 0;
#X connect 30 0 29 0;
#X connect 30 0 0 0;
#X connect 31 0 29 1;
#X connect 31 0 0 0;
#X connect 32 0 31 0;
#X connect 32 0 0 0;
#X connect 33 0 32 0;
#X connect 33 0 0 0;
#X connect 34 0 0 0;
#X connect 35 0 34 0;
#X connect 35 0 0 0;
#X connect 36 0 34 1;
#X connect 36 0 0 0;
#X connect 37 0 36 0;
#X connect 37 0 0 0;
#X connect 38 0 37 0;
#X connect 38 0 0 0;
#X connect 39 0 0 0;
#X connect 40 0 39 0;
#X connect 40 0 0 0;
#X connect 41 0 39 1;
#X connect 41 0 0 0;
#X connect 42 0 41 0;
#X connect 42 0 0 0;
#X connect 43 0 42 0;
#X connect 43 0 0 0;
#X connect 44 0 0 0;
#X connect 45 0 44 0;
#X connect 45 0 0 0;
#X connect 46 0 44 1;
#X connect 46 0 0 0;
#X connect 47 0 46 0;
#X connect 47 0 0 0;
#X connect 48 0 47 0;
#X connect 48 0 0 0;
#X connect 49 0 0 0;
#X connect 50 0 49 0;
#X connect 50 0 0 0;
#X connect 51 0 49 1;
#X connect 51 0 0 0;
#X connect 52 0 51 0;
#X connect 52 0 0 0;
#X connect 53 0 52 0;
#X connect 53 0 0 0;
#X connect 54 0 0 0;
#X connect 55 0 54 0;
#X connect 55 0 0 0;
#X connect 56 0 54 1;
#X connect 56 0 0 0;
#X connect 57 0 56 0;
#X connect 57 0 0 0;
#X connect 58 0 57 0;
#X connect 58 0 0 0;
#X connect 59 0 0 0;
#X connect 60 0 59 0;
#X connect 60 0 0 0;
#X connect 61 0 59 1;
#X connect 61 0 0 0;
#X connect 62 0 61 0;
#X connect 62 0 0 0;
#X connect 63 0 62 0;
#X connect 63 0 0 0;
#X connect 64 0 65 0;
#X connect 64 1 66 0;
#X connect 65 0 103 0;
#X connect 67 0 68 0;
#X connect 67 1 69 0;
#X connect 68 0 104 0;
#X connect 70 0 71 0;
#X connect 70 1 72 0;
#X connect 71 0 105 0;
#X connect 73 0 74 0;
#X connect 73 1 75 0;
#X connect 74 0 106 0;
#X connect 76 0 77 0;
#X connect 76 1 78 0;
#X connect 77 0 107 0;
#X connect 79 0 80 0;
#X connect 79 1 81 0;
#X connect 80 0 108 0;
#X connect 82 4 83 0;
#X connect 83 0 64 0;
#X connect 83 1 67 0;
#X connect 83 2 70 0;
#X connect 83 3 73 0;
#X connect 83 4 76 0;
#X connect 83 5 79 0;
#X connect 83 6 84 0;
#X connect 83 7 87 0;
#X connect 83 8 90 0;
#X connect 83 9 93 0;
#X connect 83 10 96 0;
#X connect 83 11 99 0;
#X connect 84 0 85 0;
#X connect 84 1 86 0;
#X connect 85 0 109 0;
#X connect 87 0 88 0;
#X connect 87 1 89 0;
#X connect 88 0 110 0;
#X connect 90 0 91 0;
#X connect 90 1 92 0;
#X connect 91 0 111 0;
#X connect 93 0 94 0;
#X connect 93 1 95 0;
#X connect 94 0 112 0;
#X connect 96 0 97 0;
#X connect 96 1 98 0;
#X connect 97 0 113 0;
#X connect 99 0 100 0;
#X connect 99 1 101 0;
#X connect 100 0 114 0;
#X connect 102 0 82 0;
#X connect 115 0 63 0;
#X connect 115 0 0 0;
#X connect 116 0 58 0;
#X connect 116 0 0 0;
#X connect 117 0 53 0;
#X connect 117 0 0 0;
#X connect 118 0 48 0;
#X connect 118 0 0 0;
#X connect 119 0 43 0;
#X connect 119 0 0 0;
#X connect 120 0 38 0;
#X connect 120 0 0 0;
#X connect 121 0 33 0;
#X connect 121 0 0 0;
#X connect 122 0 28 0;
#X connect 122 0 0 0;
#X connect 123 0 23 0;
#X connect 124 0 18 0;
#X connect 125 0 13 0;
#X connect 126 0 6 0;
