#N canvas 169 125 1201 729 10;
#X obj 13 -103 tgl 15 0 empty empty empty 17 7 0 10 -262144 -1 -1 0
1;
#X obj 28 73 outlet~;
#X obj 201 -147 soundfiler;
#N canvas 0 22 450 278 (subpatch) 0;
#X array array1 4e+06 float 0 black black;
#X coords 0 1 4e+06 -1 200 140 1;
#X restore 195 -97 graph;
#X msg 301 71 bang;
#X msg 299 95 stop;
#X obj 299 123 tabplay~ array1;
#X obj 232 136 *~ 1;
#X obj 14 -73 route 0 1;
#X obj 41 -48 bng 15 250 50 0 empty empty empty 17 7 0 10 -262144 -1
-1;
#X obj 8 -51 bng 15 250 50 0 empty empty empty 17 7 0 10 -262144 -1
-1;
#X obj 59 -138 outlet;
#X msg 207 -363 read -resize ./soundtest/I-sampling.wav array1;
#X msg 205 -337 read -resize ./soundtest/II-sampling.wav array1;
#X obj 529 -159 soundfiler;
#N canvas 0 22 450 278 (subpatch) 0;
#X array array2 417764 float 0 black black;
#X coords 0 1 417763 -1 200 140 1;
#X restore 415 -99 graph;
#X msg 487 61 bang;
#X msg 485 85 stop;
#X obj 485 112 tabplay~ array2;
#X msg 378 154 bang;
#X msg 539 168 0;
#X msg 530 -366 read -skip 4e+06 -resize ./soundtest/I-sampling.wav
array2;
#X obj 960 -92 hradio 15 1 0 8 empty empty empty 0 -8 0 10 -262144
-1 -1 7;
#X obj 961 -62 route 1 2 3 4 5 6 7;
#X msg 531 -343 read -skip 4e+06 -resize ./soundtest/II-sampling.wav
array2;
#X obj 970 -33 bng 15 250 50 0 empty empty empty 17 7 0 10 -262144
-1 -1;
#X obj 987 -15 bng 15 250 50 0 empty empty empty 17 7 0 10 -262144
-1 -1;
#X obj 1010 3 bng 15 250 50 0 empty empty empty 17 7 0 10 -262144 -1
-1;
#X obj 1027 21 bng 15 250 50 0 empty empty empty 17 7 0 10 -262144
-1 -1;
#X obj 1050 41 bng 15 250 50 0 empty empty empty 17 7 0 10 -262144
-1 -1;
#X obj 1073 59 bng 15 250 50 0 empty empty empty 17 7 0 10 -262144
-1 -1;
#X obj 1090 77 bng 15 250 50 0 empty empty empty 17 7 0 10 -262144
-1 -1;
#X obj 1107 -95 tgl 42 0 empty empty empty 17 7 0 10 -262144 -1 -1
0 1;
#X text 1092 -119 START / STOP;
#X msg 220 -307 read -resize ./soundtest/III-sampling.wav array1;
#X msg 532 -314 read -skip 4e+06 -resize ./soundtest/III-sampling.wav
array2;
#X msg 216 -273 read -resize ./soundtest/IV-sampling.wav array1;
#X msg 528 -280 read -skip 4e+06 -resize ./soundtest/IV-sampling.wav
array2;
#X msg 748 40 bang;
#X msg 746 64 stop;
#X msg 828 117 0;
#X obj 746 93 tabplay~ array3;
#X obj 539 141 gate 2;
#X msg 593 167 bang;
#X msg 458 140 1;
#X msg 494 140 2;
#N canvas 0 22 450 278 (subpatch) 0;
#X array array3 4e+06 float 0 black black;
#X coords 0 1 4e+06 -1 200 140 1;
#X restore 634 -99 graph;
#X obj 920 -159 soundfiler;
#X msg 917 -222 read -skip 8e+06 -resize ./soundtest/IV-sampling.wav
array3;
#X obj 984 -299 mtof;
#X floatatom 984 -277 8 0 0 0 - - -, f 8;
#X floatatom 985 -325 5 0 0 0 - - -, f 5;
#X msg 225 -246 read -resize ./soundtest/V-sampling.wav array1;
#X msg 537 -252 read -skip 4e+06 -resize ./soundtest/V-sampling.wav
array2;
#X msg 233 -217 read -resize ./soundtest/VI-sampling.wav array1;
#X msg 545 -223 read -skip 4e+06 -resize ./soundtest/VI-sampling.wav
array2;
#X obj 1072 -168 r player;
#X obj 1009 -196 r piece-selection;
#X msg 243 -187 read -resize ./soundtest/VII-sampling.wav array1;
#X msg 555 -193 read -skip 4e+06 -resize ./soundtest/VII-sampling.wav
array2;
#X connect 0 0 8 0;
#X connect 0 0 11 0;
#X connect 4 0 6 0;
#X connect 5 0 6 0;
#X connect 6 0 7 0;
#X connect 6 1 19 0;
#X connect 7 0 1 0;
#X connect 8 0 10 0;
#X connect 8 1 9 0;
#X connect 9 0 4 0;
#X connect 10 0 5 0;
#X connect 10 0 17 0;
#X connect 10 0 39 0;
#X connect 12 0 2 0;
#X connect 13 0 2 0;
#X connect 16 0 18 0;
#X connect 17 0 18 0;
#X connect 18 0 7 0;
#X connect 18 1 42 1;
#X connect 19 0 16 0;
#X connect 20 0 32 0;
#X connect 21 0 14 0;
#X connect 22 0 23 0;
#X connect 23 0 25 0;
#X connect 23 1 26 0;
#X connect 23 2 27 0;
#X connect 23 3 28 0;
#X connect 23 4 29 0;
#X connect 23 5 30 0;
#X connect 23 6 31 0;
#X connect 24 0 14 0;
#X connect 25 0 12 0;
#X connect 25 0 21 0;
#X connect 25 0 44 0;
#X connect 26 0 24 0;
#X connect 26 0 13 0;
#X connect 26 0 44 0;
#X connect 27 0 35 0;
#X connect 27 0 34 0;
#X connect 27 0 44 0;
#X connect 28 0 36 0;
#X connect 28 0 37 0;
#X connect 28 0 45 0;
#X connect 28 0 48 0;
#X connect 29 0 53 0;
#X connect 29 0 52 0;
#X connect 30 0 55 0;
#X connect 30 0 54 0;
#X connect 31 0 58 0;
#X connect 31 0 59 0;
#X connect 32 0 0 0;
#X connect 34 0 2 0;
#X connect 35 0 14 0;
#X connect 36 0 2 0;
#X connect 37 0 14 0;
#X connect 38 0 41 0;
#X connect 39 0 41 0;
#X connect 40 0 32 0;
#X connect 41 0 7 0;
#X connect 41 1 40 0;
#X connect 42 0 20 0;
#X connect 42 1 43 0;
#X connect 43 0 38 0;
#X connect 44 0 42 0;
#X connect 45 0 42 0;
#X connect 48 0 47 0;
#X connect 49 0 50 0;
#X connect 51 0 49 0;
#X connect 52 0 2 0;
#X connect 53 0 14 0;
#X connect 54 0 2 0;
#X connect 55 0 14 0;
#X connect 56 0 32 0;
#X connect 57 0 22 0;
#X connect 58 0 2 0;
#X connect 59 0 14 0;
