#N canvas 109 23 177 191 10;
#X obj 21 106 vcf~;
#X obj 35 79 sig~;
#X text 70 56 center frequency;
#X text 118 78 q;
#X floatatom 35 58 5 0 0 0 - - -, f 5;
#X floatatom 82 79 4 0 0 0 - - -, f 4;
#X obj 21 136 +~;
#X obj 21 8 inlet~;
#X obj 21 160 outlet~;
#X obj 103 30 * 100;
#X obj 34 35 r vcf-freq;
#X obj 104 5 r vcf-q;
#X connect 0 0 6 0;
#X connect 0 1 6 1;
#X connect 1 0 0 1;
#X connect 4 0 1 0;
#X connect 5 0 0 2;
#X connect 6 0 8 0;
#X connect 7 0 0 0;
#X connect 9 0 5 0;
#X connect 10 0 4 0;
#X connect 11 0 9 0;
