#N canvas 327 41 507 251 10;
#X obj 220 25 s~ modulator;
#X obj 318 22 phasor~;
#X obj 318 50 expr~ $v1 > 0.1;
#X obj 318 72 s~ carrier;
#X floatatom 318 -3 5 0 0 0 - - -, f 5;
#X obj 372 21 s tick;
#X obj 372 -10 metro 20;
#X obj 269 1 s q;
#X floatatom 269 -27 5 0 0 0 - - -, f 5;
#N canvas 0 22 450 300 out 0;
#X obj 56 418 outlet~;
#X obj 7 179 r~ voice_1;
#X obj 79 179 r~ voice_2;
#X obj 147 179 r~ voice_3;
#X obj 219 179 r~ voice_4;
#X obj 50 247 r~ voice_5;
#X obj 122 247 r~ voice_6;
#X obj 190 247 r~ voice_7;
#X obj 262 247 r~ voice_8;
#X obj 221 303 r~ voice_9;
#X obj 293 303 r~ voice_10;
#X obj 367 303 r~ voice_11;
#X obj 439 303 r~ voice_12;
#X obj 167 346 r~ voice_13;
#X obj 239 346 r~ voice_14;
#X obj 315 346 r~ voice_15;
#X obj 392 345 r~ voice_16;
#X connect 1 0 0 0;
#X connect 2 0 0 0;
#X connect 3 0 0 0;
#X connect 4 0 0 0;
#X connect 5 0 0 0;
#X connect 6 0 0 0;
#X connect 7 0 0 0;
#X connect 8 0 0 0;
#X connect 9 0 0 0;
#X connect 10 0 0 0;
#X connect 11 0 0 0;
#X connect 12 0 0 0;
#X connect 13 0 0 0;
#X connect 14 0 0 0;
#X connect 15 0 0 0;
#X connect 16 0 0 0;
#X restore 318 96 pd out;
#X obj 318 121 hip~ 2000;
#X msg 318 -39 60;
#X obj 318 -71 loadbang;
#X msg 269 -52 7;
#X obj 220 0 inlet~;
#X obj 318 145 outlet~;
#X obj 204 -53 r voc-q;
#X obj 382 -59 r voc-freq;
#X text 5 -54 Basic vocoder with 16 bands;
#X obj 9 26 band 100 1;
#X obj 9 48 band 200 2;
#X obj 9 67 band 250 3;
#X obj 9 86 band 400 4;
#X obj 9 106 band 650 5;
#X obj 9 127 band 800 6;
#X obj 9 148 band 1100 7;
#X obj 9 169 band 1200 8;
#X obj 89 27 band 1300 9;
#X obj 89 47 band 1500 10;
#X obj 88 67 band 1700 11;
#X obj 89 86 band 2000 12;
#X obj 89 106 band 2200 13;
#X obj 89 125 band 2500 14;
#X obj 89 147 band 2800 15;
#X obj 89 166 band 3000 16;
#X connect 1 0 2 0;
#X connect 2 0 3 0;
#X connect 4 0 1 0;
#X connect 6 0 5 0;
#X connect 8 0 7 0;
#X connect 9 0 10 0;
#X connect 10 0 15 0;
#X connect 11 0 4 0;
#X connect 12 0 11 0;
#X connect 12 0 6 0;
#X connect 12 0 13 0;
#X connect 13 0 8 0;
#X connect 14 0 0 0;
#X connect 16 0 8 0;
#X connect 17 0 4 0;
